<?xml version="1.0" encoding="UTF-8" standalone="no"?>
<svg width="90px" height="65px" viewBox="0 0 90 65" version="1.1" xmlns="http://www.w3.org/2000/svg" xmlns:xlink="http://www.w3.org/1999/xlink" xmlns:sketch="http://www.bohemiancoding.com/sketch/ns">
    <!-- Generator: Sketch 3.5.1 (25234) - http://www.bohemiancoding.com/sketch -->
    <title>bubles</title>
    <desc>Created with Sketch.</desc>
    <defs></defs>
    <g id="Page-1" stroke="none" stroke-width="1" fill="none" fill-rule="evenodd" sketch:type="MSPage">
        <path d="M50.9999864,7.48326698 C62.6999864,17.4467177 62.6999864,33.6266803 50.9999864,43.5049733 C41.0999864,51.9355854 26.0999864,53.2129508 14.6999864,47.5073851 L14.5999864,47.4222274 C10.0999864,50.3175891 5.19998635,50.8285353 1.89998635,50.4027468 C0.79998635,50.2324314 0.49998635,48.9550659 1.59998635,48.5292774 C4.69998635,47.251912 6.59998635,44.697181 7.79998635,42.5682386 L7.49998635,42.3127655 C-2.90001365,32.2641571 -2.50001365,16.9357715 8.79998635,7.39810928 C20.2999864,-2.48018369 39.2999864,-2.48018369 50.9999864,7.48326698 Z M46.7999864,26.0000243 C46.7999864,24.0000244 45.1999864,22.4000244 43.1999864,22.4000244 C41.1999864,22.4000244 39.5999864,24.0000244 39.5999864,26.0000243 C39.5999864,28.0000243 41.1999864,29.6000242 43.1999864,29.6000242 C45.1999864,29.6000242 46.7999864,28.0000243 46.7999864,26.0000243 Z M33.3999864,26.0000243 C33.3999864,24.0000244 31.7999864,22.4000244 29.7999864,22.4000244 C27.7999864,22.4000244 26.1999864,24.0000244 26.1999864,26.0000243 C26.1999864,28.0000243 27.7999864,29.6000242 29.7999864,29.6000242 C31.7999864,29.6000242 33.3999864,28.0000243 33.3999864,26.0000243 Z M19.8999864,26.0000243 C19.8999864,24.0000244 18.2999864,22.4000244 16.2999864,22.4000244 C14.2999864,22.4000244 12.6999864,24.0000244 12.6999864,26.0000243 C12.6999864,28.0000243 14.2999864,29.6000242 16.2999864,29.6000242 C18.2999864,29.6000242 19.8999864,28.0000243 19.8999864,26.0000243 Z M35.8045526,54.7490699 C36.4269929,55.3903709 37.8668196,56.9070691 38.5749864,57.5049733 C48.4749864,65.9355854 63.4749864,67.2129508 74.8749864,61.5073851 C79.4749864,64.3175891 84.3749864,64.8285353 87.6749864,64.4027468 C88.7749864,64.2324314 89.0749864,62.9550659 87.9749864,62.5292774 C84.8749864,61.251912 82.9749864,58.697181 81.7749864,56.5682386 L82.0749864,56.3127655 C92.4749864,46.2641571 92.0749864,30.9357715 80.7749864,21.3981093 C76.1947579,17.4637755 68.7143655,14.6205927 62.6897627,13.8255777 C67.2146669,26.0430917 63.3194128,37.4447429 57.7559744,43.4012193 C52.1925359,49.3576957 46.7993837,53.1711397 35.8045526,54.7490699 Z" id="bubles" fill="#000000" sketch:type="MSShapeGroup"></path>
    </g>
</svg>