<?xml version="1.0" encoding="UTF-8" standalone="no"?>
<svg width="89px" height="89px" viewBox="0 0 89 89" version="1.1" xmlns="http://www.w3.org/2000/svg" xmlns:xlink="http://www.w3.org/1999/xlink" xmlns:sketch="http://www.bohemiancoding.com/sketch/ns">
    <!-- Generator: Sketch 3.5.1 (25234) - http://www.bohemiancoding.com/sketch -->
    <title>call</title>
    <desc>Created with Sketch.</desc>
    <defs></defs>
    <g id="Page-1" stroke="none" stroke-width="1" fill="none" fill-rule="evenodd" sketch:type="MSPage">
        <path d="M85.4935216,64.863 C84.4985216,64.074 76.1475216,57.588 70.7795216,53.422 L70.7355216,53.381 C69.9715216,52.618 68.6115216,52.145 67.1835216,52.145 C66.0785216,52.145 63.9795216,52.427 62.3745216,54.334 C62.3405216,54.373 62.3085216,54.413 62.2795216,54.457 C61.8765216,55.022 59.3195216,58.794 58.3675216,60.202 L58.1855216,60.469 L57.8695216,60.404 C51.4805216,59.089 43.1925216,51.157 40.8035216,48.758 C34.4885216,42.41 29.6885216,35.608 27.9645216,30.555 L27.8455216,30.204 L28.1525216,29.998 C30.4745216,28.439 33.1575216,26.622 33.7955216,26.166 C33.8945216,26.094 33.9865216,26.013 34.0715216,25.923 C36.6245216,23.223 36.6505216,18.984 34.1405216,16.253 L34.0645216,16.165 C30.2115216,11.318 23.7315216,3.163 23.4155216,2.768 C23.4065216,2.758 23.4005216,2.749 23.3925216,2.739 C22.2865216,1.415 20.3025216,-2.84217094e-14 18.0495216,-2.84217094e-14 C16.3665216,-2.84217094e-14 14.7375216,0.773 13.2045216,2.296 L13.1305216,2.365 C9.31252161,5.689 3.35052161,10.883 2.50552161,11.628 C2.43952161,11.686 2.37652161,11.75 2.31852161,11.817 C-1.10647839,15.797 -0.73547839,23.175 3.42252161,33.742 C7.65952161,44.515 14.9505216,55.406 23.9525216,64.41 C31.4225216,71.879 39.9405216,78.103 48.5875216,82.405 C56.6035216,86.397 63.9845216,88.595 69.3695216,88.595 L69.3705216,88.595 C72.3945216,88.595 76.1135216,86.38 80.4265216,82.012 C83.4965216,78.901 85.7365216,75.672 85.9765216,75.323 C86.0405216,75.231 86.0965216,75.135 86.1435216,75.032 C88.5565216,71.736 88.3855216,67.834 85.6825216,65.034 C85.6235216,64.975 85.5595216,64.917 85.4935216,64.863 Z M86.9315216,1.732 C85.8725216,0.711 84.4335216,0.197 82.9615216,0.32 L61.6005216,2.592 C58.7945216,2.83 56.7145216,5.296 56.9515216,8.1 C57.1905216,10.906 59.6515216,12.979 62.4595216,12.749 L70.8325216,11.791 L54.9015216,28.285 C52.9115216,30.274 52.9115216,33.501 54.9015216,35.491 C55.8965216,36.487 57.2015216,36.984 58.5055216,36.984 C59.8095216,36.984 61.1135216,36.486 62.1085216,35.491 L77.2675216,19.797 L76.5685216,28.029 C76.4305216,30.84 78.5975216,33.23 81.4085216,33.37 C81.4935216,33.373 81.5775216,33.375 81.6625216,33.375 C84.3625216,33.375 86.6145216,31.254 86.7485216,28.529 L88.3655216,7.194 C88.4575216,6.761 88.4855216,6.322 88.4645216,5.882 L88.4825216,5.649 C88.5545216,4.181 87.9885216,2.755 86.9315216,1.732 Z" id="call" fill="#000000" sketch:type="MSShapeGroup"></path>
    </g>
</svg>