<?xml version="1.0" encoding="UTF-8" standalone="no"?>
<svg width="33px" height="32px" viewBox="0 0 33 32" version="1.1" xmlns="http://www.w3.org/2000/svg" xmlns:xlink="http://www.w3.org/1999/xlink">
    <!-- Generator: Sketch 3.7.1 (28215) - http://www.bohemiancoding.com/sketch -->
    <title>cigarette</title>
    <desc>Created with Sketch.</desc>
    <defs></defs>
    <g id="Page-1" stroke="none" stroke-width="1" fill="none" fill-rule="evenodd">
        <path d="M1.66513985,27.3390634 C1.5661831,27.3160759 1.46150375,27.3161831 1.35939091,27.3418967 C1.12639193,27.4005692 0.944763957,27.5829903 0.887107191,27.8162427 C0.829450426,28.0494952 0.905170254,28.2955291 1.084,28.456 L4.449,31.821 C4.5709293,31.9430396 4.73648846,32.0114227 4.909,32.011 L4.909,32.011 C5.17239574,32.0113103 5.40994057,31.852633 5.51051498,31.6091948 C5.56035038,31.4885692 5.57167347,31.3589499 5.54768724,31.2362757 C5.5880352,31.2440584 5.62931195,31.2480379 5.671,31.248 L5.671,31.248 C5.93457788,31.2487168 6.17249453,31.0901883 6.27332601,30.8466584 C6.32334968,30.7258403 6.3347192,30.5959691 6.31064948,30.4730747 C6.35132732,30.4809899 6.39295447,30.4850382 6.435,30.485 L6.435,30.485 C6.69839574,30.4853103 6.93594057,30.326633 7.03651498,30.0831948 C7.1370894,29.8397565 7.08080867,29.5596877 6.894,29.374 L3.529,26.009 C3.27494902,25.7552252 2.86327484,25.755449 2.6095,26.0095 C2.4508087,26.168364 2.39143829,26.3888632 2.43134681,26.5938463 C2.22612385,26.5538913 2.00537053,26.6134566 1.8465,26.7725 C1.69238814,26.9267796 1.63194757,27.1391884 1.66513985,27.3390634 Z M19.5924041,9.06159591 C20.2916027,8.36239727 21.69,6.964 21.69,6.964 L28.654,0 L32.904,4.25 L23.8521,13.3019 L19.5924041,9.06159591 Z M23.0495453,14.0872555 C18.0429246,19.0938761 8.066,29.088 8.066,29.088 L3.816,24.838 L18.8261862,9.86477661 L23.0495453,14.0872555 Z M0.65,25.506 C0.477435881,25.5060002 0.31195411,25.437381 0.190026677,25.315266 C0.0680992446,25.193151 -0.000265483261,25.0275639 -3.99791311e-14,24.855 L-3.99791311e-14,13.38 C-4.00952586e-14,13.0210149 0.291014913,12.73 0.65,12.73 C1.00898509,12.73 1.3,13.0210149 1.3,13.38 L1.3,24.855 C1.30026548,25.0275639 1.23190076,25.193151 1.10997332,25.315266 C0.98804589,25.437381 0.822564119,25.5060002 0.65,25.506 L0.65,25.506 Z M3.52,20.022 C3.16101491,20.022 2.87,19.7309851 2.87,19.372 L2.87,0.87 C2.87,0.511014913 3.16101491,0.22 3.52,0.22 C3.87898509,0.22 4.17,0.511014913 4.17,0.87 L4.17,19.37 C4.1705315,19.542737 4.10228426,19.7085813 3.98032796,19.8309128 C3.85837166,19.9532444 3.6927378,20.0220008 3.52,20.022 L3.52,20.022 Z" id="cigarette" fill="#231F20"></path>
    </g>
</svg>