<?xml version="1.0" encoding="UTF-8" standalone="no"?>
<svg width="237px" height="46px" viewBox="0 0 237 46" version="1.1" xmlns="http://www.w3.org/2000/svg" xmlns:xlink="http://www.w3.org/1999/xlink" xmlns:sketch="http://www.bohemiancoding.com/sketch/ns">
    <!-- Generator: Sketch 3.4.4 (17249) - http://www.bohemiancoding.com/sketch -->
    <title>do</title>
    <desc>Created with Sketch.</desc>
    <defs></defs>
    <g id="Page-1" stroke="none" stroke-width="1" fill="none" fill-rule="evenodd" sketch:type="MSPage">
        <path d="M68.106,14.742 L102.082,23.149 L100.881,28.002 C100.881,28.002 107.445,29.648 107.436,30.654 C107.427,31.66 108.23,35.629 104.293,35.027 C100.357,34.426 97.258,34.317 97.258,34.317 C97.258,34.317 92.327,35.328 89.982,34.577 C87.638,33.826 86.05,29.875 83.908,29.984 C81.766,30.092 80.525,35.328 80.525,35.328 L64.023,31.244 L64.023,31.244 L-7.10542736e-15,15.403 C2.486,10.053 5.338,4.907 8.527,0 L68.106,14.742 L68.106,14.742 L68.106,14.742 Z M236.29,45.018 L109.41,45.018 C109.41,45.018 106.127,42.068 109.41,41.018 C112.693,39.968 109.679,42.714 114.41,43.018 C120.805,43.429 124.41,40.018 124.41,40.018 C124.41,40.018 133.577,41.858 134.41,38.018 C135.273,34.042 127.701,33.662 124.41,34.018 C122.016,33.371 123.41,28.018 123.41,28.018 L231.872,28.018 C233.73,33.522 235.208,39.2 236.29,45.018 L236.29,45.018 Z" id="do" fill="#4A4A4A" sketch:type="MSShapeGroup"></path>
    </g>
</svg>