<?xml version="1.0" encoding="UTF-8" standalone="no"?>
<svg width="106px" height="100px" viewBox="0 0 106 100" version="1.1" xmlns="http://www.w3.org/2000/svg" xmlns:xlink="http://www.w3.org/1999/xlink" xmlns:sketch="http://www.bohemiancoding.com/sketch/ns">
    <!-- Generator: Sketch 3.4.4 (17249) - http://www.bohemiancoding.com/sketch -->
    <title>dust</title>
    <desc>Created with Sketch.</desc>
    <defs></defs>
    <g id="Page-1" stroke="none" stroke-width="1" fill="none" fill-rule="evenodd" sketch:type="MSPage">
        <path d="M104.5,62 C103.948,62 103.5,61.552 103.5,61 C103.5,60.448 103.948,60 104.5,60 C105.052,60 105.5,60.448 105.5,61 C105.5,61.552 105.052,62 104.5,62 L104.5,62 Z M98,93 C95.515,93 93.5,90.985 93.5,88.5 C93.5,86.015 95.515,84 98,84 C100.485,84 102.5,86.015 102.5,88.5 C102.5,90.985 100.485,93 98,93 L98,93 Z M99.5,40 C98.395,40 97.5,39.105 97.5,38 C97.5,36.895 98.395,36 99.5,36 C100.605,36 101.5,36.895 101.5,38 C101.5,39.105 100.605,40 99.5,40 L99.5,40 Z M93.5,24 C92.395,24 91.5,23.105 91.5,22 C91.5,20.895 92.395,20 93.5,20 C94.605,20 95.5,20.895 95.5,22 C95.5,23.105 94.605,24 93.5,24 L93.5,24 Z M86,70 C85.172,70 84.5,69.328 84.5,68.5 C84.5,67.672 85.172,67 86,67 C86.828,67 87.5,67.672 87.5,68.5 C87.5,69.328 86.828,70 86,70 L86,70 Z M82,33 C81.724,33 81.5,32.776 81.5,32.5 C81.5,32.224 81.724,32 82,32 C82.276,32 82.5,32.224 82.5,32.5 C82.5,32.776 82.276,33 82,33 L82,33 Z M78.5,55 C76.843,55 75.5,53.657 75.5,52 C75.5,50.343 76.843,49 78.5,49 C80.157,49 81.5,50.343 81.5,52 C81.5,53.657 80.157,55 78.5,55 L78.5,55 Z M76.5,94 C76.5,95.105 75.605,96 74.5,96 C73.395,96 72.5,95.105 72.5,94 C72.5,92.895 73.395,92 74.5,92 C75.605,92 76.5,92.895 76.5,94 L76.5,94 Z M72,80 C70.619,80 69.5,78.881 69.5,77.5 C69.5,76.119 70.619,75 72,75 C73.381,75 74.5,76.119 74.5,77.5 C74.5,78.881 73.381,80 72,80 L72,80 Z M69,8 C68.724,8 68.5,7.776 68.5,7.5 C68.5,7.224 68.724,7 69,7 C69.276,7 69.5,7.224 69.5,7.5 C69.5,7.776 69.276,8 69,8 L69,8 Z M65.5,52 C64.948,52 64.5,51.552 64.5,51 C64.5,50.448 64.948,50 65.5,50 C66.052,50 66.5,50.448 66.5,51 C66.5,51.552 66.052,52 65.5,52 L65.5,52 Z M61.5,34 C59.291,34 57.5,32.209 57.5,30 C57.5,27.791 59.291,26 61.5,26 C63.709,26 65.5,27.791 65.5,30 C65.5,32.209 63.709,34 61.5,34 L61.5,34 Z M56,82 C55.172,82 54.5,81.328 54.5,80.5 C54.5,79.672 55.172,79 56,79 C56.828,79 57.5,79.672 57.5,80.5 C57.5,81.328 56.828,82 56,82 L56,82 Z M53,17 C52.172,17 51.5,16.328 51.5,15.5 C51.5,14.672 52.172,14 53,14 C53.828,14 54.5,14.672 54.5,15.5 C54.5,16.328 53.828,17 53,17 L53,17 Z M52.5,53.5 C52.5,54.881 51.381,56 50,56 C48.619,56 47.5,54.881 47.5,53.5 C47.5,52.119 48.619,51 50,51 C51.381,51 52.5,52.119 52.5,53.5 L52.5,53.5 Z M48.5,95 C48.5,95.552 48.052,96 47.5,96 C46.948,96 46.5,95.552 46.5,95 C46.5,94.448 46.948,94 47.5,94 C48.052,94 48.5,94.448 48.5,95 L48.5,95 Z M45.5,35 C44.948,35 44.5,34.552 44.5,34 C44.5,33.448 44.948,33 45.5,33 C46.052,33 46.5,33.448 46.5,34 C46.5,34.552 46.052,35 45.5,35 L45.5,35 Z M43.5,2 C42.948,2 42.5,1.552 42.5,1 C42.5,0.448 42.948,0 43.5,0 C44.052,0 44.5,0.448 44.5,1 C44.5,1.552 44.052,2 43.5,2 L43.5,2 Z M40,68 C38.619,68 37.5,66.881 37.5,65.5 C37.5,64.119 38.619,63 40,63 C41.381,63 42.5,64.119 42.5,65.5 C42.5,66.881 41.381,68 40,68 L40,68 Z M40.5,22 C39.948,22 39.5,21.552 39.5,21 C39.5,20.448 39.948,20 40.5,20 C41.052,20 41.5,20.448 41.5,21 C41.5,21.552 41.052,22 40.5,22 L40.5,22 Z M37.5,56 C36.948,56 36.5,55.552 36.5,55 C36.5,54.448 36.948,54 37.5,54 C38.052,54 38.5,54.448 38.5,55 C38.5,55.552 38.052,56 37.5,56 L37.5,56 Z M38.5,81 C38.5,82.105 37.605,83 36.5,83 C35.395,83 34.5,82.105 34.5,81 C34.5,79.895 35.395,79 36.5,79 C37.605,79 38.5,79.895 38.5,81 L38.5,81 Z M31.5,40 C30.948,40 30.5,39.552 30.5,39 C30.5,38.448 30.948,38 31.5,38 C32.052,38 32.5,38.448 32.5,39 C32.5,39.552 32.052,40 31.5,40 L31.5,40 Z M30,25 C29.724,25 29.5,24.776 29.5,24.5 C29.5,24.224 29.724,24 30,24 C30.276,24 30.5,24.224 30.5,24.5 C30.5,24.776 30.276,25 30,25 L30,25 Z M30.5,51.5 C30.5,52.328 29.828,53 29,53 C28.172,53 27.5,52.328 27.5,51.5 C27.5,50.672 28.172,50 29,50 C29.828,50 30.5,50.672 30.5,51.5 L30.5,51.5 Z M29.5,93 C29.5,94.657 28.157,96 26.5,96 C24.843,96 23.5,94.657 23.5,93 C23.5,91.343 24.843,90 26.5,90 C28.157,90 29.5,91.343 29.5,93 L29.5,93 Z M23.5,63 C21.843,63 20.5,61.657 20.5,60 C20.5,58.343 21.843,57 23.5,57 C25.157,57 26.5,58.343 26.5,60 C26.5,61.657 25.157,63 23.5,63 L23.5,63 Z M26,37 C25.724,37 25.5,36.776 25.5,36.5 C25.5,36.224 25.724,36 26,36 C26.276,36 26.5,36.224 26.5,36.5 C26.5,36.776 26.276,37 26,37 L26,37 Z M22,17 C21.172,17 20.5,16.328 20.5,15.5 C20.5,14.672 21.172,14 22,14 C22.828,14 23.5,14.672 23.5,15.5 C23.5,16.328 22.828,17 22,17 L22,17 Z M21.5,98.5 C21.5,99.328 20.828,100 20,100 C19.172,100 18.5,99.328 18.5,98.5 C18.5,97.672 19.172,97 20,97 C20.828,97 21.5,97.672 21.5,98.5 L21.5,98.5 Z M15,49 C14.172,49 13.5,48.328 13.5,47.5 C13.5,46.672 14.172,46 15,46 C15.828,46 16.5,46.672 16.5,47.5 C16.5,48.328 15.828,49 15,49 L15,49 Z M5.5,87 C4.948,87 4.5,86.552 4.5,86 C4.5,85.448 4.948,85 5.5,85 C6.052,85 6.5,85.448 6.5,86 C6.5,86.552 6.052,87 5.5,87 L5.5,87 Z M2,67 C1.172,67 0.5,66.328 0.5,65.5 C0.5,64.672 1.172,64 2,64 C2.828,64 3.5,64.672 3.5,65.5 C3.5,66.328 2.828,67 2,67 L2,67 Z M15,74 C15.276,74 15.5,74.224 15.5,74.5 C15.5,74.776 15.276,75 15,75 C14.724,75 14.5,74.776 14.5,74.5 C14.5,74.224 14.724,74 15,74 L15,74 Z M23.5,74 C24.052,74 24.5,74.448 24.5,75 C24.5,75.552 24.052,76 23.5,76 C22.948,76 22.5,75.552 22.5,75 C22.5,74.448 22.948,74 23.5,74 L23.5,74 Z M43.5,42 C44.052,42 44.5,42.448 44.5,43 C44.5,43.552 44.052,44 43.5,44 C42.948,44 42.5,43.552 42.5,43 C42.5,42.448 42.948,42 43.5,42 L43.5,42 Z M50,69 C50.276,69 50.5,69.224 50.5,69.5 C50.5,69.776 50.276,70 50,70 C49.724,70 49.5,69.776 49.5,69.5 C49.5,69.224 49.724,69 50,69 L50,69 Z M61,64 C62.381,64 63.5,65.119 63.5,66.5 C63.5,67.881 62.381,69 61,69 C59.619,69 58.5,67.881 58.5,66.5 C58.5,65.119 59.619,64 61,64 L61,64 Z" id="dust" fill="#4A4A4A" sketch:type="MSShapeGroup"></path>
    </g>
</svg>