<?xml version="1.0" encoding="UTF-8" standalone="no"?>
<svg width="31px" height="31px" viewBox="0 0 31 31" version="1.1" xmlns="http://www.w3.org/2000/svg" xmlns:xlink="http://www.w3.org/1999/xlink">
    <!-- Generator: Sketch 3.7.1 (28215) - http://www.bohemiancoding.com/sketch -->
    <title>e1</title>
    <desc>Created with Sketch.</desc>
    <defs></defs>
    <g id="Page-1" stroke="none" stroke-width="1" fill="none" fill-rule="evenodd">
        <path d="M7.061,15.1315 L7.061,23.918 L13.987,23.918 C14.3465374,23.9182761 14.6382238,23.6270374 14.6385,23.2675 C14.6387761,22.9079626 14.3475374,22.6162761 13.988,22.616 L8.361,22.616 L8.361,16.106 L13.988,16.106 C14.3469851,16.106 14.638,15.8149851 14.638,15.456 C14.638,15.0970149 14.3469851,14.806 13.988,14.806 L8.361,14.806 L8.361,8.321 L13.988,8.321 C14.3469851,8.321 14.638,8.02998509 14.638,7.671 C14.638,7.31201491 14.3469851,7.021 13.988,7.021 L7.061,7.021 L7.061,15.1315 Z M0,0 L30.991,0 L30.991,30.991 L0,30.991 L0,0 Z M23.28,23.918 C22.9210149,23.918 22.63,23.6269851 22.63,23.268 L22.63,8.94 L18.16,13.41 C17.905949,13.6637748 17.4942748,13.663551 17.2405,13.4095 C16.9867252,13.155449 16.986949,12.7437748 17.241,12.49 L23.93,5.8 L23.93,23.267 C23.9302655,23.4395639 23.8619008,23.605151 23.7399733,23.727266 C23.6180459,23.849381 23.4525641,23.9180002 23.28,23.918 Z" id="e1" fill="#231F20"></path>
    </g>
</svg>