<?xml version="1.0" encoding="UTF-8" standalone="no"?>
<svg width="16px" height="16px" viewBox="0 0 16 16" version="1.1" xmlns="http://www.w3.org/2000/svg" xmlns:xlink="http://www.w3.org/1999/xlink" xmlns:sketch="http://www.bohemiancoding.com/sketch/ns">
    <!-- Generator: Sketch 3.5.2 (25235) - http://www.bohemiancoding.com/sketch -->
    <title>hint-info</title>
    <desc>Created with Sketch.</desc>
    <defs></defs>
    <g id="Page-1" stroke="none" stroke-width="1" fill="none" fill-rule="evenodd" sketch:type="MSPage">
        <path d="M8,0 C12.418278,0 16,3.581722 16,8 C16,12.418278 12.418278,16 8,16 C3.581722,16 0,12.418278 0,8 C0,3.581722 3.581722,0 8,0 L8,0 Z M9,4.07 C9,3.51771525 8.55228475,3.07 8,3.07 C7.44771525,3.07 7,3.51771525 7,4.07 C6.95793525,4.45342214 7.1388065,4.82713726 7.46560736,5.03203523 C7.79240821,5.2369332 8.20759179,5.2369332 8.53439264,5.03203523 C8.8611935,4.82713726 9.04206475,4.45342214 9,4.07 L9,4.07 Z M7.146,13 L8.853,13 L8.853,6.29 L7.146,6.29 L7.146,13 L7.146,13 Z" id="hint-info" fill="#ACAFB2" sketch:type="MSShapeGroup"></path>
    </g>
</svg>