<?xml version="1.0" encoding="UTF-8" standalone="no"?>
<svg width="110px" height="152px" viewBox="0 0 110 152" version="1.1" xmlns="http://www.w3.org/2000/svg" xmlns:xlink="http://www.w3.org/1999/xlink" xmlns:sketch="http://www.bohemiancoding.com/sketch/ns">
    <!-- Generator: Sketch 3.4.4 (17249) - http://www.bohemiancoding.com/sketch -->
    <title>kg</title>
    <desc>Created with Sketch.</desc>
    <defs></defs>
    <g id="Page-1" stroke="none" stroke-width="1" fill="none" fill-rule="evenodd" sketch:type="MSPage">
        <path d="M109.999,97.158 C109.999,104.559 108.544,111.741 105.674,118.506 C102.904,125.037 98.939,130.902 93.89,135.937 C88.84,140.972 82.959,144.925 76.409,147.688 C69.625,150.549 62.421,152 54.999,152 C47.577,152 40.373,150.549 33.589,147.688 C27.039,144.926 21.158,140.972 16.109,135.938 C11.059,130.903 7.094,125.038 4.324,118.507 C1.455,111.742 0,104.559 0,97.158 C0,80.065 9.857,69.883 13.384,63.165 C12.301,57.188 12.152,50.849 12.152,45.866 L12.152,30.957 C12.152,13.887 26.037,0 43.105,0 L66.9,0 C83.967,0 97.853,13.887 97.853,30.957 L97.853,45.871 C97.853,50.851 97.704,57.187 96.621,63.163 C100.151,69.878 109.999,78.091 109.999,97.158 L109.999,97.158 Z M93.127,30.957 C93.127,16.492 81.359,4.726 66.9,4.726 L43.105,4.726 C28.643,4.726 16.877,16.492 16.877,30.957 L16.877,45.866 C16.877,51.708 17.116,58.227 18.353,63.933 C14.779,70.142 5.53,81.844 5.53,97.158 C5.528,124.403 27.678,146.486 54.999,146.486 C82.321,146.486 104.469,124.4 104.469,97.158 C104.469,81.618 95.225,70.132 91.651,63.933 C92.887,58.233 93.127,51.711 93.127,45.871 L93.127,30.957 L93.127,30.957 Z M72.827,53.267 C72.358,53.267 71.872,53.184 71.37,53.006 C66.343,50.89 60.808,49.717 55.003,49.717 C49.196,49.717 43.668,50.888 38.634,53.006 C38.134,53.184 37.649,53.267 37.182,53.267 C34.014,53.267 31.668,42.441 30.97,38.181 L29.775,30.962 C29.78,23.609 35.757,17.631 43.11,17.631 L66.899,17.631 C74.242,17.631 80.233,23.609 80.233,30.962 L79.036,38.181 C78.338,42.442 75.998,53.267 72.827,53.267 L72.827,53.267 Z M66.899,22.357 L43.11,22.357 C38.483,22.357 34.694,26.031 34.508,30.617 L35.633,37.416 C36.003,39.673 36.844,47.987 37.298,48.444 C42.923,46.152 48.877,44.99 55.003,44.99 C61.132,44.99 67.087,46.153 72.71,48.446 C73.162,47.99 74.003,39.676 74.372,37.417 L74.373,37.412 L74.374,37.407 L75.5,30.614 C75.317,26.03 71.529,22.357 66.899,22.357 L66.899,22.357 Z M46.688,97.173 L52.1,90.986 L55.702,90.986 L50.706,96.412 L55.974,104.917 L52.507,104.917 L48.86,98.379 L46.688,100.708 L46.688,104.917 L44.009,104.917 L44.009,90.986 L46.688,90.986 L46.688,97.173 L46.688,97.173 Z M62.578,104.917 C61.287,104.917 60.265,104.344 59.51,103.197 C58.919,102.291 58.623,101.164 58.623,99.814 C58.623,98.123 59.011,96.83 59.786,95.937 C60.562,95.044 61.525,94.597 62.678,94.597 C63.866,94.597 64.847,95.145 65.619,96.241 L65.619,94.825 L67.999,94.825 L67.999,103.881 C67.999,105.072 67.906,105.963 67.719,106.552 C67.532,107.141 67.269,107.603 66.932,107.939 C66.594,108.275 66.143,108.538 65.579,108.728 C65.014,108.918 64.301,109.013 63.438,109.013 C61.809,109.013 60.654,108.72 59.972,108.134 C59.29,107.548 58.949,106.805 58.949,105.906 C58.949,105.817 58.952,105.709 58.958,105.582 L61.863,105.953 C61.912,106.308 62.023,106.552 62.198,106.685 C62.44,106.875 62.82,106.97 63.339,106.97 C64.002,106.97 64.5,106.865 64.832,106.656 C65.055,106.517 65.224,106.292 65.339,105.982 C65.417,105.76 65.456,105.351 65.456,104.756 L65.456,103.283 C64.696,104.372 63.737,104.917 62.578,104.917 L62.578,104.917 Z M65.502,99.729 C65.502,98.683 65.296,97.908 64.886,97.401 C64.476,96.894 63.957,96.64 63.33,96.64 C62.72,96.64 62.218,96.889 61.823,97.386 C61.427,97.884 61.23,98.642 61.23,99.662 C61.23,100.733 61.427,101.517 61.823,102.014 C62.218,102.512 62.705,102.76 63.284,102.76 C63.906,102.76 64.431,102.505 64.859,101.995 C65.287,101.485 65.502,100.73 65.502,99.729 L65.502,99.729 Z" id="kg" fill="#4A4A4A" sketch:type="MSShapeGroup"></path>
    </g>
</svg>