<?xml version="1.0" encoding="UTF-8" standalone="no"?>
<svg width="40px" height="32px" viewBox="0 0 40 32" version="1.1" xmlns="http://www.w3.org/2000/svg" xmlns:xlink="http://www.w3.org/1999/xlink">
    <!-- Generator: Sketch 3.7.1 (28215) - http://www.bohemiancoding.com/sketch -->
    <title>labuten</title>
    <desc>Created with Sketch.</desc>
    <defs></defs>
    <g id="Page-1" stroke="none" stroke-width="1" fill="none" fill-rule="evenodd">
        <path d="M10.417,20.765 L0.706,28.919 C0.328136571,29.265656 0.079209406,29.730367 0,30.237 C0.000991829354,30.6008365 0.16008238,30.9462751 0.435921741,31.1835315 C0.711761102,31.4207879 1.07710671,31.52643 1.437,31.473 L17.3,31.473 C19.681629,31.5570366 21.9068323,30.2900252 23.05,28.199 L29.076,16.95 C29.3045059,16.4077438 29.8836151,16.101765 30.4603419,16.2185673 C31.0370688,16.3353697 31.451489,16.8425644 31.451,17.431 L31.451,31.425 L34.505,31.425 L38.955,10.953 L38.955,10.959 C40.647,3.788 35.435,0 31.571,0 L20.784,17.742 C18.984,20.713 18.01,20.765 14.555,20.765" id="labuten" fill="#231F20"></path>
    </g>
</svg>