<?xml version="1.0" encoding="UTF-8" standalone="no"?>
<svg width="191px" height="210px" viewBox="0 0 191 210" version="1.1" xmlns="http://www.w3.org/2000/svg" xmlns:xlink="http://www.w3.org/1999/xlink" xmlns:sketch="http://www.bohemiancoding.com/sketch/ns">
    <!-- Generator: Sketch 3.4.4 (17249) - http://www.bohemiancoding.com/sketch -->
    <title>letter-r</title>
    <desc>Created with Sketch.</desc>
    <defs></defs>
    <g id="Page-1" stroke="none" stroke-width="1" fill="none" fill-rule="evenodd" sketch:type="MSPage">
        <g id="letter-r" sketch:type="MSArtboardGroup" fill="#ED1C23">
            <path d="M60.3374852,98.9394574 L0,98.9394574 L0,205 L61.3966359,205 L61.3966359,100.676118 L65.6207606,107.602301 L125.187695,205 L190.876223,205 L144.501207,129.152114 C175.468158,118.778025 194.266427,87.3962516 188.80086,55.1984037 C183.335293,23.0005559 155.234343,-0.420101309 122.578677,0.00571344442 L0,0.00571344442 L60.3374852,98.9394574 L60.3374852,98.9394574 L60.3374852,98.9394574 Z M60.3406047,98.9394574 L61.3966359,100.673156 L60.3374852,98.9394574 L60.3406047,98.9394574 L60.3406047,98.9394574 Z M124.470498,66.8293331 C124.450859,74.6624547 120.577719,81.9842525 114.113486,86.408264 L87.4924651,42.9246274 L100.272136,42.9246274 C113.55426,42.846414 124.386544,53.5472445 124.470498,66.8293331 L124.470498,66.8293331 L124.470498,66.8293331 L124.470498,66.8293331 Z" id="r-logo" sketch:type="MSShapeGroup"></path>
        </g>
    </g>
</svg>