<?xml version="1.0" encoding="UTF-8" standalone="no"?>
<svg width="157px" height="122px" viewBox="0 0 157 122" version="1.1" xmlns="http://www.w3.org/2000/svg" xmlns:xlink="http://www.w3.org/1999/xlink" xmlns:sketch="http://www.bohemiancoding.com/sketch/ns">
    <!-- Generator: Sketch 3.4.4 (17249) - http://www.bohemiancoding.com/sketch -->
    <title>loader</title>
    <desc>Created with Sketch.</desc>
    <defs></defs>
    <g id="Page-1" stroke="none" stroke-width="1" fill="none" fill-rule="evenodd" sketch:type="MSPage">
        <path d="M156.969,60.6 L156.969,66.327 C156.969,67.625 156.279,68.762 155.248,69.392 L155.248,73.871 C155.248,75.853 153.641,77.46 151.658,77.46 L105.951,77.46 C103.969,77.46 102.361,75.853 102.361,73.871 L102.361,69.783 C100.844,69.366 99.731,67.974 99.731,66.325 L99.731,60.599 C99.731,58.95 100.844,57.559 102.361,57.141 L102.361,50.088 C100.844,49.67 99.731,48.279 99.731,46.63 L99.731,40.902 C99.731,39.255 100.844,37.863 102.361,37.446 L102.361,33.52 C102.361,31.538 103.969,29.933 105.951,29.933 L151.658,29.933 C153.641,29.933 155.248,31.538 155.248,33.52 L155.248,37.839 C156.278,38.47 156.969,39.606 156.969,40.904 L156.969,46.632 C156.969,47.93 156.278,49.066 155.248,49.696 L155.248,57.535 C156.278,58.165 156.969,59.302 156.969,60.6 L156.969,60.6 Z M105.951,73.873 L151.658,73.873 L151.658,66.55 L105.951,66.55 L105.951,73.873 L105.951,73.873 Z M151.658,33.52 L105.951,33.52 L105.951,40.374 L151.658,40.374 L151.658,33.52 L151.658,33.52 Z M153.379,61.546 L129.662,61.546 C129.379,61.546 129.148,61.316 129.148,61.033 C129.148,60.751 129.379,60.52 129.662,60.52 L151.656,60.52 L151.656,47.206 L131.33,47.206 C131.047,47.206 130.817,46.976 130.817,46.693 C130.817,46.41 131.047,46.18 131.33,46.18 L153.379,46.18 L153.379,41.4 L103.321,41.4 L103.321,46.18 L123.371,46.18 C123.654,46.18 123.885,46.41 123.885,46.693 C123.885,46.976 123.654,47.206 123.371,47.206 L105.95,47.206 L105.95,60.52 L114.495,60.52 C114.777,60.52 115.008,60.751 115.008,61.033 C115.008,61.316 114.777,61.546 114.495,61.546 L103.321,61.546 L103.321,65.524 L153.379,65.524 L153.379,61.546 L153.379,61.546 Z M116.739,60.52 L117.807,60.52 C118.09,60.52 118.32,60.751 118.32,61.033 C118.32,61.316 118.09,61.546 117.807,61.546 L116.739,61.546 C116.456,61.546 116.226,61.316 116.226,61.033 C116.226,60.751 116.456,60.52 116.739,60.52 L116.739,60.52 Z M125.822,46.18 L126.717,46.18 C126.998,46.18 127.23,46.41 127.23,46.693 C127.23,46.976 126.998,47.206 126.717,47.206 L125.822,47.206 C125.539,47.206 125.309,46.976 125.309,46.693 C125.309,46.41 125.539,46.18 125.822,46.18 L125.822,46.18 Z M140.982,82.178 C140.982,83.169 140.177,83.971 139.188,83.971 L97.153,83.971 L97.153,88.762 L97.153,94.347 C97.153,94.599 97.099,94.839 97.003,95.057 C96.986,95.099 96.951,95.131 96.928,95.169 C96.839,95.342 96.731,95.506 96.591,95.64 C96.582,95.647 96.581,95.658 96.574,95.666 C96.521,95.715 96.452,95.733 96.397,95.771 C96.27,95.865 96.146,95.958 95.994,96.015 C95.888,96.054 95.778,96.059 95.666,96.08 C95.561,96.101 95.467,96.143 95.359,96.143 C95.331,96.143 95.31,96.127 95.279,96.127 C95.256,96.124 95.235,96.137 95.209,96.134 C94.839,96.106 94.469,96.078 94.087,96.078 C86.974,96.078 81.129,101.41 80.492,108.487 C80.41,109.415 79.634,110.122 78.705,110.122 L28.728,110.122 C27.799,110.122 27.023,109.413 26.941,108.487 C26.302,101.412 20.458,96.078 13.344,96.078 C9.978,96.078 6.738,97.326 4.222,99.594 C3.738,100.027 3.058,100.17 2.447,99.959 C1.834,99.754 1.379,99.231 1.258,98.596 C0.127,92.641 -2.789,72.779 7.117,67.176 C9.767,65.678 12.833,64.98 16.765,64.98 C17.952,64.98 23.949,65.039 25.408,65.172 L27.176,14.747 C27.291,13.853 28.056,13.184 28.956,13.184 L69.64,13.184 C70.429,13.184 71.122,13.696 71.354,14.45 L86.088,62.213 L93.567,62.213 L93.567,1.794 C93.567,0.803 94.369,0 95.359,0 C96.35,0 97.153,0.803 97.153,1.794 L97.153,80.384 L139.188,80.384 C140.179,80.384 140.982,81.189 140.982,82.178 L140.982,82.178 Z M93.565,65.802 L87.193,65.802 L93.556,86.431 L93.565,86.433 L93.565,65.802 L93.565,65.802 Z M93.567,90.271 L82.077,87.913 C81.794,87.883 81.59,87.63 81.618,87.349 C81.648,87.07 81.915,86.904 82.182,86.892 L90.494,88.598 C90.471,88.544 90.439,88.495 90.421,88.438 L83.438,65.802 L82.334,62.213 L68.317,16.771 L30.536,16.771 L28.747,67.363 C28.621,68.338 27.729,69.028 26.764,68.916 C24.665,68.677 18.266,68.565 16.767,68.565 C13.481,68.565 10.974,69.115 8.885,70.3 C3.208,73.51 2.811,85.064 4.3,95.066 C7.006,93.39 10.13,92.489 13.346,92.489 C21.769,92.489 28.789,98.421 30.29,106.533 L77.145,106.533 C78.614,98.589 85.374,92.737 93.567,92.496 L93.567,90.271 L93.567,90.271 Z M79.751,81.649 L36.138,62.753 C35.199,62.347 34.594,61.422 34.594,60.402 L34.594,24.011 C34.594,22.595 35.741,21.448 37.158,21.448 L62.397,21.448 C63.5,21.448 64.481,22.157 64.83,23.202 L83.201,78.488 C83.519,79.447 83.245,80.505 82.498,81.185 C82.018,81.628 81.396,81.858 80.77,81.858 C80.424,81.858 80.079,81.789 79.751,81.649 L79.751,81.649 Z M62.397,24.01 L37.158,24.01 L37.158,60.4 L80.77,79.297 L62.397,24.01 L62.397,24.01 Z M55.731,39.782 C55.859,39.527 56.168,39.424 56.421,39.555 C56.674,39.683 56.777,39.992 56.648,40.245 L47.357,58.692 C47.267,58.871 47.087,58.974 46.898,58.974 C46.82,58.974 46.739,58.957 46.668,58.919 C46.415,58.791 46.312,58.482 46.441,58.231 L55.731,39.782 L55.731,39.782 Z M46.898,54.988 C46.823,54.988 46.745,54.97 46.673,54.935 C46.418,54.81 46.312,54.503 46.438,54.25 L56.368,33.988 C56.494,33.733 56.796,33.627 57.054,33.752 C57.309,33.878 57.416,34.187 57.29,34.438 L47.359,54.701 C47.268,54.883 47.089,54.988 46.898,54.988 L46.898,54.988 Z M59.671,84.57 L74.029,86.046 C74.312,86.077 74.518,86.327 74.487,86.604 C74.46,86.871 74.237,87.068 73.977,87.068 C73.961,87.068 73.946,87.067 73.928,87.067 L59.416,85.575 C59.316,85.568 59.22,85.526 59.144,85.463 C45.432,74.414 38.182,70.343 30.548,68.874 C30.271,68.82 30.091,68.551 30.143,68.274 C30.199,67.993 30.464,67.805 30.744,67.869 C38.468,69.354 45.844,73.461 59.671,84.57 L59.671,84.57 Z M76.553,86.238 C76.853,86.206 77.085,86.376 77.122,86.655 L77.129,86.716 C77.164,86.995 76.967,87.25 76.684,87.285 C76.663,87.288 76.64,87.29 76.621,87.29 C76.366,87.29 76.146,87.1 76.113,86.84 C76.077,86.559 76.272,86.274 76.553,86.238 L76.553,86.238 Z M78.496,86.515 L80.318,86.73 C80.597,86.761 80.799,87.018 80.765,87.299 C80.733,87.559 80.513,87.752 80.257,87.752 C80.236,87.752 80.217,87.749 80.196,87.747 L78.375,87.531 C78.094,87.499 77.892,87.243 77.927,86.964 C77.96,86.683 78.223,86.493 78.496,86.515 L78.496,86.515 Z M12.872,99.793 C19.006,99.793 23.979,104.765 23.979,110.896 C23.979,117.029 19.006,122 12.872,122 C6.737,122 1.763,117.031 1.763,110.896 C1.763,104.765 6.737,99.793 12.872,99.793 L12.872,99.793 Z M12.872,114.737 C14.99,114.737 16.713,113.016 16.713,110.896 C16.713,108.778 14.99,107.056 12.872,107.056 C10.751,107.056 9.028,108.778 9.028,110.896 C9.028,113.016 10.751,114.737 12.872,114.737 L12.872,114.737 Z M12.872,108.546 C14.17,108.546 15.222,109.598 15.222,110.896 C15.222,112.194 14.17,113.246 12.872,113.246 C11.573,113.246 10.521,112.194 10.521,110.896 C10.521,109.598 11.573,108.546 12.872,108.546 L12.872,108.546 Z M94.205,99.793 C100.34,99.793 105.314,104.765 105.314,110.896 C105.314,117.029 100.342,122 94.205,122 C88.072,122 83.098,117.031 83.098,110.896 C83.098,104.765 88.07,99.793 94.205,99.793 L94.205,99.793 Z M94.205,114.737 C96.326,114.737 98.049,113.016 98.049,110.896 C98.049,108.778 96.326,107.056 94.205,107.056 C92.086,107.056 90.364,108.778 90.364,110.896 C90.364,113.016 92.086,114.737 94.205,114.737 L94.205,114.737 Z M94.205,108.546 C95.504,108.546 96.556,109.598 96.556,110.896 C96.556,112.194 95.504,113.246 94.205,113.246 C92.907,113.246 91.854,112.194 91.854,110.896 C91.854,109.598 92.907,108.546 94.205,108.546 L94.205,108.546 Z" id="loader" fill="#4A4A4A" sketch:type="MSShapeGroup"></path>
    </g>
</svg>