<?xml version="1.0" encoding="UTF-8" standalone="no"?>
<svg width="38px" height="38px" viewBox="0 0 38 38" version="1.1" xmlns="http://www.w3.org/2000/svg" xmlns:xlink="http://www.w3.org/1999/xlink">
    <!-- Generator: Sketch 3.7.1 (28215) - http://www.bohemiancoding.com/sketch -->
    <title>loupe</title>
    <desc>Created with Sketch.</desc>
    <defs></defs>
    <g id="Page-1" stroke="none" stroke-width="1" fill="none" fill-rule="evenodd">
        <path d="M14,17.5 L10,17.5 C9.17157288,17.5 8.5,16.8284271 8.5,16 C8.5,15.1715729 9.17157288,14.5 10,14.5 L14,14.5 L14,10.5 C14,9.67157288 14.6715729,9 15.5,9 C16.3284271,9 17,9.67157288 17,10.5 L17,14.5 L21,14.5 C21.8284271,14.5 22.5,15.1715729 22.5,16 C22.5,16.8284271 21.8284271,17.5 21,17.5 L17,17.5 L17,21.5 C17,22.3284271 16.3284271,23 15.5,23 C14.6715729,23 14,22.3284271 14,21.5 L14,17.5 Z M25.3483644,27.4696848 C22.670663,29.6753761 19.2400227,31 15.5,31 C6.93958638,31 0,24.0604136 0,15.5 C0,6.93958638 6.93958638,0 15.5,0 C24.0604136,0 31,6.93958638 31,15.5 C31,19.2400227 29.6753761,22.670663 27.4696848,25.3483644 L37.0606602,34.9393398 C37.6464466,35.5251263 37.6464466,36.4748737 37.0606602,37.0606602 C36.4748737,37.6464466 35.5251263,37.6464466 34.9393398,37.0606602 L25.3483644,27.4696848 Z M15.5,28 C8.59644063,28 3,22.4035594 3,15.5 C3,8.59644063 8.59644063,3 15.5,3 C22.4035594,3 28,8.59644063 28,15.5 C28,22.4035594 22.4035594,28 15.5,28 Z" id="loupe" fill="#979797"></path>
    </g>
</svg>