<?xml version="1.0" encoding="UTF-8" standalone="no"?>
<svg width="39px" height="39px" viewBox="0 0 39 39" version="1.1" xmlns="http://www.w3.org/2000/svg" xmlns:xlink="http://www.w3.org/1999/xlink">
    <!-- Generator: Sketch 3.7.1 (28215) - http://www.bohemiancoding.com/sketch -->
    <title>mop</title>
    <desc>Created with Sketch.</desc>
    <defs></defs>
    <g id="Page-1" stroke="none" stroke-width="1" fill="none" fill-rule="evenodd">
        <path d="M6.91600301,32.8 C6.916001,32.7993336 6.916,32.7986669 6.916,32.798 L6.916,0.65 C6.91599999,0.41777736 7.03988929,0.203194788 7.24099999,0.0870834647 C7.4421107,-0.0290278581 7.6898893,-0.0290278581 7.89100001,0.0870834647 C8.09211071,0.203194788 8.21600001,0.41777736 8.216,0.65 L8.216,32.8 L13.276,32.8 C14.2996732,32.8032933 15.1287067,33.6323268 15.132,34.656 L15.132,38.78 L0,38.78 L0,34.654 C0.00438957048,33.6311079 0.83310375,32.8032867 1.856,32.8 L6.9160028,32.8 Z M30.234,15.383 L22.545,15.383 L13.961,15.383 L17.967,38.78 L34.812,38.78 L38.819,15.383 L30.234,15.383 Z" id="mop" fill="#231F20"></path>
    </g>
</svg>