<svg class="icon icon-mouse" xmlns="http://www.w3.org/2000/svg" width="12.347mm" height="19.403mm" viewBox="0 0 35 55">
  <title>mouse</title>
  <g>
    <path d="M17.5,52A14.5,14.5,0,0,1,3,37.5v-20a14.5,14.5,0,0,1,29,0v20A14.5,14.5,0,0,1,17.5,52h0Zm0,3A17.5,17.5,0,0,0,35,37.5v-20a17.5,17.5,0,0,0-35,0v20A17.5,17.5,0,0,0,17.5,55Zm0-43A1.5,1.5,0,0,1,19,13.5v4a1.5,1.5,0,1,1-3,0v-4A1.5,1.5,0,0,1,17.5,12Zm0-1A2.5,2.5,0,0,0,15,13.5v4a2.5,2.5,0,1,0,5,0v-4A2.5,2.5,0,0,0,17.5,11h0Z" fill="#4a4a4a"/>
    <path class="icon-mouse__arrow" d="M17.5,28.382l5.552-2.776,0.447-.223,0.224,0.447,0.448,0.894L24.4,27.17l-0.448.224-6,3-0.447.223v0l-0.447-.223-6-3L10.6,27.17l0.224-.447,0.448-.894,0.224-.447,0.447,0.223Z" fill="#4a4a4a"/>
    <path class="icon-mouse__arrow" d="M17.5,34.382l5.552-2.776,0.447-.223,0.224,0.447,0.448,0.894L24.4,33.17l-0.448.224-6,3-0.447.223v0l-0.447-.223-6-3L10.6,33.17l0.224-.447,0.448-.894,0.224-.447,0.447,0.223Z" fill="#4a4a4a"/>
    <path class="icon-mouse__arrow" d="M17.5,40.382l5.552-2.776,0.447-.223,0.224,0.447,0.448,0.894L24.4,39.17l-0.448.224-6,3-0.447.223v0l-0.447-.223-6-3L10.6,39.17l0.224-.447,0.448-.894,0.224-.447,0.447,0.223Z" fill="#4a4a4a"/>
  </g>
</svg>
