<?xml version="1.0" encoding="UTF-8" standalone="no"?>
<svg width="271px" height="210px" viewBox="0 0 271 210" version="1.1" xmlns="http://www.w3.org/2000/svg" xmlns:xlink="http://www.w3.org/1999/xlink" xmlns:sketch="http://www.bohemiancoding.com/sketch/ns">
    <!-- Generator: Sketch 3.4.4 (17249) - http://www.bohemiancoding.com/sketch -->
    <title>r-dot-o</title>
    <desc>Created with Sketch.</desc>
    <defs></defs>
    <g id="Page-1" stroke="none" stroke-width="1" fill="none" fill-rule="evenodd" sketch:type="MSPage">
        <path d="M239.162,209.306142 C221.606,209.306142 207.322,195.217142 207.322,177.899142 C207.322,160.582142 221.606,146.493142 239.162,146.493142 C256.717,146.493142 271,160.582142 271,177.899142 C271,195.217142 256.717,209.306142 239.162,209.306142 L239.162,209.306142 Z M239.162,149.451142 C223.241,149.451142 210.288,162.213142 210.288,177.899142 C210.288,193.586142 223.241,206.348142 239.162,206.348142 C255.083,206.348142 268.035,193.586142 268.035,177.899142 C268.035,162.213142 255.083,149.451142 239.162,149.451142 L239.162,149.451142 Z M194.047,205.412142 L125.604,205.412142 L64.835,106.332142 L64.835,205.412142 L1.157,205.412142 L1.157,97.8801424 L59.667,97.8801424 L-0.001,0.306142361 L123.856,0.306142361 C161.296,0.306142361 191.755,30.3421424 191.755,67.2621424 C191.755,95.1941424 174.147,120.151142 147.751,129.935142 L194.047,205.412142 L194.047,205.412142 Z M127.266,202.454142 L188.756,202.454142 L143.303,128.349142 L145.055,127.753142 C171.214,118.848142 188.789,94.5381424 188.789,67.2621424 C188.789,31.9731424 159.66,3.26414236 123.856,3.26414236 L5.281,3.26414236 L61.87,95.8031424 L61.87,95.8011424 L68.797,107.131142 L127.266,202.454142 L127.266,202.454142 Z M4.123,202.454142 L61.87,202.454142 L61.87,100.838142 L4.123,100.838142 L4.123,202.454142 L4.123,202.454142 Z M115.039,89.1271424 L86.515,42.6251424 L101.797,42.6251424 C115.807,42.6251424 127.205,53.8701424 127.205,67.6911424 C127.205,75.8601424 123.14,83.5411424 116.329,88.2381424 L115.039,89.1271424 L115.039,89.1271424 Z M91.806,45.5831424 L115.904,84.8691424 C121.15,80.6821424 124.24,74.3701424 124.24,67.6911424 C124.24,55.5011424 114.172,45.5831424 101.797,45.5831424 L91.806,45.5831424 L91.806,45.5831424 Z" id="r-dot-o" fill="#4A4A4A" sketch:type="MSShapeGroup"></path>
    </g>
</svg>