<?xml version="1.0" encoding="UTF-8" standalone="no"?>
<svg width="512px" height="512px" viewBox="0 0 512 512" version="1.1" xmlns="http://www.w3.org/2000/svg" xmlns:xlink="http://www.w3.org/1999/xlink" xmlns:sketch="http://www.bohemiancoding.com/sketch/ns">
    <!-- Generator: Sketch 3.4.4 (17249) - http://www.bohemiancoding.com/sketch -->
    <title>r-logo</title>
    <desc>Created with Sketch.</desc>
    <defs></defs>
    <g id="Page-1" stroke="none" stroke-width="1" fill="none" fill-rule="evenodd" sketch:type="MSPage">
        <g id="r-logo" sketch:type="MSArtboardGroup" fill="#4A4A4A">
            <path d="M121.932232,233.704249 L16,233.704249 L16,419.910716 L123.791742,419.910716 L123.791742,236.753238 L131.207878,248.913275 L235.787284,419.910716 L351.114137,419.910716 L269.695282,286.747463 C324.062783,268.534068 357.066189,213.43828 347.470501,156.909742 C337.874813,100.381203 288.539042,59.2624441 231.206729,60.0100309 L16,60.0100309 L121.932232,233.704249 L121.932232,233.704249 L121.932232,233.704249 Z M495.99647,373.530126 C496.24573,395.383183 483.27364,415.223447 463.155154,423.759531 C443.036668,432.295615 419.754997,427.837481 404.21317,412.472916 C388.671344,397.108351 383.946451,373.879349 392.251205,353.664273 C400.555959,333.449197 420.246121,320.250383 442.100599,320.248962 C456.317186,320.154019 469.987782,325.71741 480.098142,335.712457 C490.208502,345.707505 495.928336,359.313386 495.99647,373.530126 L495.99647,373.530126 L495.99647,373.530126 Z M121.937709,233.704249 L123.791742,236.748037 L121.932232,233.704249 L121.937709,233.704249 L121.937709,233.704249 Z M234.528127,177.329723 C234.493648,191.082037 227.693722,203.936639 216.344715,211.703708 L169.607199,135.361139 L192.043983,135.361139 C215.362903,135.223822 234.380733,154.010864 234.528127,177.329723 L234.528127,177.329723 L234.528127,177.329723 L234.528127,177.329723 Z" sketch:type="MSShapeGroup"></path>
        </g>
    </g>
</svg>