<?xml version="1.0" encoding="UTF-8" standalone="no"?>
<svg width="280px" height="220px" viewBox="0 0 280 220" version="1.1" xmlns="http://www.w3.org/2000/svg" xmlns:xlink="http://www.w3.org/1999/xlink" xmlns:sketch="http://www.bohemiancoding.com/sketch/ns">
    <!-- Generator: Sketch 3.4.4 (17249) - http://www.bohemiancoding.com/sketch -->
    <title>r-logo</title>
    <desc>Created with Sketch.</desc>
    <defs></defs>
    <g id="Page-1" stroke="none" stroke-width="1" fill="none" fill-rule="evenodd" sketch:type="MSPage">
        <g id="r-logo" sketch:type="MSArtboardGroup" fill="#ED1C23">
            <path d="M66.3374852,104.939457 L6,104.939457 L6,211 L67.3966359,211 L67.3966359,106.676118 L71.6207606,113.602301 L131.187695,211 L196.876223,211 L150.501207,135.152114 C181.468158,124.778025 200.266427,93.3962516 194.80086,61.1984037 C189.335293,29.0005559 161.234343,5.57989869 128.578677,6.00571344 L6,6.00571344 L66.3374852,104.939457 L66.3374852,104.939457 L66.3374852,104.939457 Z M130.470498,72.8293331 C130.450859,80.6624547 126.577719,87.9842525 120.113486,92.408264 L93.4924651,48.9246274 L106.272136,48.9246274 C119.55426,48.846414 130.386544,59.5472445 130.470498,72.8293331 L130.470498,72.8293331 Z M275.422839,185.353521 C275.568419,197.807183 268.178479,209.115731 256.714239,213.982571 C245.25,218.84941 231.981614,216.310809 223.123608,207.555776 C214.265601,198.800742 211.572034,185.562946 216.304496,174.042586 C221.036957,162.522225 232.258326,155.000561 244.712839,155.000521 C261.574479,154.903033 275.323169,168.491898 275.422839,185.353521 Z" sketch:type="MSShapeGroup"></path>
        </g>
    </g>
</svg>