<?xml version="1.0" encoding="UTF-8" standalone="no"?>
<svg width="261px" height="200px" viewBox="0 0 261 200" version="1.1" xmlns="http://www.w3.org/2000/svg" xmlns:xlink="http://www.w3.org/1999/xlink" xmlns:sketch="http://www.bohemiancoding.com/sketch/ns">
    <!-- Generator: Sketch 3.4.4 (17249) - http://www.bohemiancoding.com/sketch -->
    <title>r-logo</title>
    <desc>Created with Sketch.</desc>
    <defs></defs>
    <g id="Page-1" stroke="none" stroke-width="1" fill="none" fill-rule="evenodd" sketch:type="MSPage">
        <path d="M57.5767733,94.4125314 L0,94.4125314 L0,195.620326 L58.5874632,195.620326 L58.5874632,96.0697322 L62.6183151,102.679011 L119.459794,195.620326 L182.142775,195.620326 L137.889625,123.242823 C167.4397,113.343395 185.377862,83.3974792 180.16237,52.672828 C174.946877,21.9481768 148.131672,-0.400879781 116.97015,0.0054520286 L0,0.0054520286 L57.5767733,94.4125314 L57.5767733,94.4125314 L57.5767733,94.4125314 Z M260.889887,170.411335 C261.025366,182.289009 253.974716,193.07268 243.039824,197.712252 C232.104932,202.351823 219.450771,199.928718 211.003406,191.577699 C202.556041,183.22668 199.987946,170.601146 204.501784,159.613755 C209.015622,148.626364 219.717709,141.452484 231.596156,141.451711 C239.32322,141.400108 246.753525,144.423948 252.248755,149.856502 C257.743984,155.289056 260.852854,162.684187 260.889887,170.411335 L260.889887,170.411335 L260.889887,170.411335 Z M57.5797502,94.4125314 L58.5874632,96.0669051 L57.5767733,94.4125314 L57.5797502,94.4125314 L57.5797502,94.4125314 Z M118.775412,63.77159 C118.756671,71.2463109 115.060745,78.2331035 108.89228,82.4546965 L83.4892905,40.9606323 L95.6842343,40.9606323 C108.358641,40.8859975 118.695299,51.0972167 118.775412,63.77159 L118.775412,63.77159 L118.775412,63.77159 L118.775412,63.77159 Z" id="r-logo" fill="#4A4A4A" sketch:type="MSShapeGroup"></path>
    </g>
</svg>