<svg class="icon icon-radio" xmlns="http://www.w3.org/2000/svg" width="42" height="82" viewBox="0 0 42 82">
  <title>radio</title>
  <g>
    <path d="M17.4,20.447a1.292,1.292,0,0,1,2.584,0V33.938a1.9,1.9,0,0,1,.645,1.418v11.66a9.223,9.223,0,0,1,4.212,1.89,1.894,1.894,0,0,1,.566,1.356v19.17h0a14.969,14.969,0,0,1-1.552,6.181C22.378,78.715,18.848,82,12.886,82H12.708c-6.072.064-9.654-3.251-11.157-6.385A15,15,0,0,1,0,69.432V50.261a1.914,1.914,0,0,1,.567-1.356c0.48-.474,3.226-2.694,12.139-2.688,1.529,0,2.865.068,4.051,0.177V35.356a1.9,1.9,0,0,1,.647-1.421V20.447h0Zm-4.7,29.6c-5.192,0-7.758.8-8.829,1.283v18.1s0,0.079.016,0.318,0.052,0.6.127,1.029a10.982,10.982,0,0,0,1,3.115c1.194,2.192,2.992,4.2,7.692,4.266,4.13-.047,5.969-1.617,7.222-3.45A11.13,11.13,0,0,0,21.52,69.75a2.433,2.433,0,0,0,.014-0.318h0v-18.1a8.246,8.246,0,0,0-.829-0.319,26.122,26.122,0,0,0-8-.964h0Zm-4.5,10.079h9.131v2.734H8.207V60.131h0Zm0-5.466h9.131V57.4H8.207V54.665h0Z" fill="#4a4a4a"/>
    <path class="icon-radio__signal" d="M28.769,17.563a10.963,10.963,0,0,1-4.353,11.982,1.307,1.307,0,0,1-1.8-.313,1.27,1.27,0,0,1,.316-1.78,8.474,8.474,0,0,0,3.659-6.936,8.364,8.364,0,0,0-.312-2.269,8.549,8.549,0,0,0-7.673-6.19l0,0a1.28,1.28,0,1,1,.173-2.553,11.137,11.137,0,0,1,9.988,8.057h0Z" fill="#4a4a4a"/>
    <path class="icon-radio__signal" d="M35.1,15.824a17.322,17.322,0,0,1-3.037,15.384,1.3,1.3,0,0,1-1.812.237,1.266,1.266,0,0,1-.238-1.793A14.894,14.894,0,0,0,23.53,6.568,1.277,1.277,0,0,1,22.8,4.912a1.3,1.3,0,0,1,1.674-.726A17.564,17.564,0,0,1,35.1,15.824h0Z" fill="#4a4a4a"/>
    <path class="icon-radio__signal" d="M39.172,31.657a1.3,1.3,0,0,1-1.747.527,1.271,1.271,0,0,1-.536-1.73A21.008,21.008,0,0,0,29.012,2.375h0A1.267,1.267,0,0,1,28.567.624,1.3,1.3,0,0,1,30.34.18a23.661,23.661,0,0,1,10.774,14,23.428,23.428,0,0,1-1.942,17.481h0Z" fill="#4a4a4a"/>
  </g>
</svg>
