<?xml version="1.0" encoding="UTF-8" standalone="no"?>
<svg width="122px" height="100px" viewBox="0 0 122 100" version="1.1" xmlns="http://www.w3.org/2000/svg" xmlns:xlink="http://www.w3.org/1999/xlink" xmlns:sketch="http://www.bohemiancoding.com/sketch/ns">
    <!-- Generator: Sketch 3.4.4 (17249) - http://www.bohemiancoding.com/sketch -->
    <title>sound-0</title>
    <desc>Created with Sketch.</desc>
    <defs></defs>
    <g id="Page-1" stroke="none" stroke-width="1" fill="none" fill-rule="evenodd" sketch:type="MSPage">
        <path d="M94.9517227,50.0385372 L80,35.0833333 L85.9583333,29.1166667 L100.915627,44.0774428 L115.625,29.375 L121.5,35.2666667 L106.798277,49.9614628 L121.75,64.9166667 L115.791667,70.8833333 L100.834373,55.9225572 L86.125,70.625 L80.25,64.7333333 L94.9517227,50.0385372 Z M17.5416667,75 L0.875,75 L0.875,25 L17.5416667,25 L59.2083333,0 L59.2083333,100 L17.5416667,75 Z M9.20833333,66.6666667 L17.5416667,66.6666667 L17.5416667,33.3333333 L9.20833333,33.3333333 L9.20833333,66.6666667 Z M25.875,66.6666667 L50.8333333,84.3208333 L50.8333333,16.0583333 L25.875,29.1666667 L25.875,66.6666667 Z" id="sound-0" fill="#FFFFFF" sketch:type="MSShapeGroup"></path>
    </g>
</svg>