<?xml version="1.0" encoding="UTF-8" standalone="no"?>
<svg width="56px" height="56px" viewBox="0 0 56 56" version="1.1" xmlns="http://www.w3.org/2000/svg" xmlns:xlink="http://www.w3.org/1999/xlink" xmlns:sketch="http://www.bohemiancoding.com/sketch/ns">
    <!-- Generator: Sketch 3.4.4 (17249) - http://www.bohemiancoding.com/sketch -->
    <title>squares</title>
    <desc>Created with Sketch.</desc>
    <defs></defs>
    <g id="Page-1" stroke="none" stroke-width="1" fill="none" fill-rule="evenodd" sketch:type="MSPage">
        <path d="M30,56 L30,30 L56,30 L56,56 L30,56 L30,56 Z M30,0 L56,0 L56,26 L30,26 L30,0 L30,0 Z M32,24 L54,24 L54,2 L32,2 L32,24 L32,24 Z M0,30 L26,30 L26,56 L0,56 L0,30 L0,30 Z M0,0 L26,0 L26,26 L0,26 L0,0 L0,0 Z" id="squares" fill="#4A4A4A" sketch:type="MSShapeGroup"></path>
    </g>
</svg>