<?xml version="1.0" encoding="UTF-8" standalone="no"?>
<svg width="16px" height="23px" viewBox="0 0 16 23" version="1.1" xmlns="http://www.w3.org/2000/svg" xmlns:xlink="http://www.w3.org/1999/xlink" xmlns:sketch="http://www.bohemiancoding.com/sketch/ns">
    <!-- Generator: Sketch 3.5.2 (25235) - http://www.bohemiancoding.com/sketch -->
    <title>tag</title>
    <desc>Created with Sketch.</desc>
    <defs></defs>
    <g id="Page-1" stroke="none" stroke-width="1" fill="none" fill-rule="evenodd" sketch:type="MSPage">
        <path d="M8,22.72 C7.067,22.72 3.644,17.062 3.644,16.97 C2.311,14.72 0,10.53 0,8 C0,3.581722 3.581722,0 8,0 C12.418278,0 16,3.581722 16,8 C16,10.576 13.733,14.716 12.356,16.97 C12.356,17.062 8.933,22.72 8,22.72 L8,22.72 Z M8,4.78 C6.68748446,4.73475613 5.47885935,5.49065519 4.94510639,6.69059346 C4.41135344,7.89053173 4.65930382,9.29434035 5.5718202,10.2388285 C6.48433657,11.1833167 7.87877788,11.4794442 9.09637865,10.9873137 C10.3139794,10.4951832 11.1110356,9.31329512 11.111,8 C11.130294,7.15907341 10.8122436,6.34540047 10.2277892,5.74046846 C9.64333466,5.13553646 8.84109237,4.78966512 8,4.78 L8,4.78 Z" id="tag" fill="#000000" sketch:type="MSShapeGroup"></path>
    </g>
</svg>