<?xml version="1.0" encoding="UTF-8" standalone="no"?>
<svg width="30px" height="36px" viewBox="0 0 30 36" version="1.1" xmlns="http://www.w3.org/2000/svg" xmlns:xlink="http://www.w3.org/1999/xlink">
    <!-- Generator: Sketch 3.7.1 (28215) - http://www.bohemiancoding.com/sketch -->
    <title>temp</title>
    <desc>Created with Sketch.</desc>
    <defs></defs>
    <g id="Page-1" stroke="none" stroke-width="1" fill="none" fill-rule="evenodd">
        <path d="M9.078,29.7973732 C9.07470786,29.8187676 9.073,29.8406843 9.073,29.863 L9.073,30.911 C9.07410263,32.115076 10.049924,33.0908974 11.254,33.092 C12.4574573,33.089797 13.4323489,32.1144582 13.434,30.911 L13.434,29.863 L13.436,29.863 L13.436,22.778 C13.436,22.0464988 14.0289988,21.4535 14.7605,21.4535 C15.4920012,21.4535 16.085,22.0464988 16.085,22.778 L16.085,29.6867065 L16.084,29.6867065 L16.084,30.911 C16.0856525,32.1148479 17.0611521,33.0903475 18.265,33.092 C19.4684573,33.089797 20.4433489,32.1144582 20.445,30.911 L20.445,29.9043426 C20.4463273,29.8906603 20.447,29.8768649 20.447,29.863 L20.447,22.778 C20.4337581,22.2961242 20.6832702,21.845076 21.0985197,21.6002342 C21.5137691,21.3553924 22.0292309,21.3553924 22.4444803,21.6002342 C22.8597298,21.845076 23.1092419,22.2961242 23.096,22.778 L23.096,29.8335109 C23.0953369,29.8432547 23.095,29.853088 23.095,29.863 L23.095,30.911 C23.0966525,32.1148479 24.0721521,33.0903475 25.276,33.092 C26.4796855,33.0903463 27.4548984,32.1146861 27.456,30.911 L27.456,21.025 C27.456,20.7886221 27.2643779,20.597 27.028,20.597 C26.7916221,20.597 26.6,20.7886221 26.6,21.025 L26.6,30.911 C26.6,31.6425012 26.0070012,32.2355 25.2755,32.2355 C24.5439988,32.2355 23.951,31.6425012 23.951,30.911 L23.951,29.8654891 C23.9516631,29.8557453 23.952,29.845912 23.952,29.836 L23.952,22.778 C23.9519999,21.573467 22.975533,20.5970001 21.771,20.5970001 C20.566467,20.5970001 19.5900001,21.573467 19.59,22.778 L19.59,29.836 L19.589,29.836 L19.589,30.911 C19.6022419,31.3928758 19.3527298,31.843924 18.9374803,32.0887658 C18.5222309,32.3336076 18.0067691,32.3336076 17.5915197,32.0887658 C17.1762702,31.843924 16.9267581,31.3928758 16.94,30.911 L16.94,29.836 L16.941,29.836 L16.941,22.778 C16.941,21.573467 15.964533,20.597 14.76,20.597 C13.555467,20.597 12.579,21.573467 12.579,22.778 L12.579,29.8065109 C12.5783369,29.8162547 12.578,29.826088 12.578,29.836 L12.578,30.911 C12.5912419,31.3928758 12.3417298,31.843924 11.9264803,32.0887658 C11.5112309,32.3336076 10.9957691,32.3336076 10.5805197,32.0887658 C10.1652702,31.843924 9.91575811,31.3928758 9.929,30.911 L9.929,29.863 C9.929,29.8539314 9.92871796,29.8449286 9.92816216,29.836 L9.934,29.836 L9.934,22.778 C9.934,21.573467 8.95753304,20.597 7.753,20.597 C6.54846696,20.597 5.572,21.573467 5.572,22.778 L5.572,29.7371779 C5.56805434,29.7605301 5.566,29.7845251 5.566,29.809 L5.566,30.884 C5.566,31.6155012 4.97300115,32.2085 4.2415,32.2085 C3.50999885,32.2085 2.917,31.6155012 2.917,30.884 L2.917,21.025 C2.917,20.7886221 2.72537787,20.597 2.489,20.597 C2.25262213,20.597 2.061,20.7886221 2.061,21.025 L2.061,30.884 C2.06265367,32.0876855 3.03831389,33.0628984 4.242,33.064 C5.44490594,33.0623489 6.419797,32.0879051 6.422,30.885 L6.422,29.863 L6.429,29.863 L6.429,22.778 C6.41575811,22.2961242 6.66527021,21.845076 7.08051966,21.6002342 C7.49576911,21.3553924 8.01123089,21.3553924 8.42648034,21.6002342 C8.84172979,21.845076 9.09124189,22.2961242 9.078,22.778 L9.078,29.7973732 Z M21.625,8.98 L21.625,15.428 C21.625,15.8145993 21.9384007,16.128 22.325,16.128 C22.7065319,16.1236489 23.0142994,15.8145471 23.017,15.433 L23.017,8.97225802 L25.007,10.963 C25.1745442,11.1737422 25.4481042,11.2697204 25.7105911,11.2098541 C25.9730781,11.1499878 26.17797,10.9448875 26.2375694,10.6823398 C26.2971688,10.4197921 26.2009125,10.1463299 25.99,9.979 L22.324,6.314 L18.658,9.979 C18.4637534,10.179492 18.407201,10.4762311 18.5140908,10.7341136 C18.6209806,10.9919961 18.8708756,11.1617157 19.15,11.166 C19.3345046,11.1666293 19.5116206,11.093551 19.642,10.963 L21.625,8.98 Z M14.059,2.667 L14.059,15.428 C14.059,15.8145993 14.3724007,16.128 14.759,16.128 C15.1420822,16.123622 15.4504777,15.8121069 15.451,15.429 L15.451,2.65925802 L17.441,4.65 C17.7195099,4.87325018 18.1213929,4.85118682 18.3737899,4.59878988 C18.6261868,4.34639294 18.6482502,3.94450995 18.425,3.666 L14.759,0 L11.093,3.666 C10.898065,3.86641384 10.8410789,4.16360152 10.9480539,4.42190698 C11.0550289,4.68021245 11.3054466,4.85009145 11.585,4.854 C11.7693023,4.85409792 11.9460296,4.78067153 12.076,4.65 L14.059,2.667 Z M6.494,8.98 L6.494,15.428 C6.494,15.8145993 6.80740068,16.128 7.194,16.128 C7.57553185,16.1236489 7.8832994,15.8145471 7.886,15.433 L7.886,8.97303207 L9.876,10.966 C10.0068713,11.0954515 10.1839267,11.1674253 10.368,11.166 C10.6471244,11.1617157 10.8970194,10.9919961 11.0039092,10.7341136 C11.110799,10.4762311 11.0542466,10.179492 10.86,9.979 L7.194,6.314 L3.528,9.979 C3.31708752,10.1463299 3.22083122,10.4197921 3.2804306,10.6823398 C3.34002998,10.9448875 3.54492192,11.1499878 3.80740886,11.2098541 C4.06989579,11.2697204 4.34345575,11.1737422 4.511,10.963 L6.494,8.98 Z M0,18.536 L29.8,18.536 L29.8,35.337 L0,35.337 L0,18.536 Z" id="temp" fill="#231F20"></path>
    </g>
</svg>