<?xml version="1.0" encoding="UTF-8" standalone="no"?>
<svg width="39px" height="35px" viewBox="0 0 39 35" version="1.1" xmlns="http://www.w3.org/2000/svg" xmlns:xlink="http://www.w3.org/1999/xlink">
    <!-- Generator: Sketch 3.7.1 (28215) - http://www.bohemiancoding.com/sketch -->
    <title>wineglass</title>
    <desc>Created with Sketch.</desc>
    <defs></defs>
    <g id="Page-1" stroke="none" stroke-width="1" fill="none" fill-rule="evenodd">
        <path d="M5.8630826,28.2196267 L13.299,20.779 C13.3051614,20.7728453 13.3114283,20.7668314 13.3177961,20.7609595 C10.8985952,17.8610763 11.0453298,13.5450992 13.758,10.817 L23.576,0 L35,10.427 L24.185,21.244 C21.4553679,23.9581945 17.1360728,24.1035689 14.2361535,21.6801234 C14.2302453,21.6865192 14.2241937,21.692813 14.218,21.699 L6.78309726,29.1395531 L11.536,33.892 C11.720667,34.0779675 11.7755857,34.3566456 11.6752825,34.5987718 C11.5749793,34.840898 11.3390783,34.9991011 11.077,35 L11.077,35 C10.9048348,35.0001566 10.7396846,34.9317938 10.618,34.81 L5.42583376,29.6198254 C5.41070521,29.6060688 5.39620341,29.591579 5.38238568,29.576394 L0.19,24.386 C-0.0640509849,24.1322252 -0.0642748425,23.720551 0.1895,23.4665 C0.443274843,23.212449 0.854949015,23.2122252 1.109,23.466 L5.8630826,28.2196267 Z M36.313,19.731 C35.047392,19.7304482 34.0215518,18.704608 34.021,17.439 C34.021,15.097 36.313,13.106 36.313,13.106 C36.313,13.106 38.6,15.1 38.6,17.439 C38.5956303,18.7010737 37.5750612,19.7238741 36.313,19.731 Z" id="wineglass" fill="#231F20"></path>
    </g>
</svg>