<?xml version="1.0" encoding="UTF-8" standalone="no"?>
<svg width="120px" height="153px" viewBox="0 0 120 153" version="1.1" xmlns="http://www.w3.org/2000/svg" xmlns:xlink="http://www.w3.org/1999/xlink" xmlns:sketch="http://www.bohemiancoding.com/sketch/ns">
    <!-- Generator: Sketch 3.4.4 (17249) - http://www.bohemiancoding.com/sketch -->
    <title>wood-samples</title>
    <desc>Created with Sketch.</desc>
    <defs></defs>
    <g id="Page-1" stroke="none" stroke-width="1" fill="none" fill-rule="evenodd" sketch:type="MSPage">
        <path d="M113.811,67.991 C113.811,64.877 117.266,61.958 119.987,59.763 L119.987,81.34 C119.734,80.949 119.479,80.552 119.208,80.14 C116.804,76.462 113.811,71.887 113.811,67.991 L113.811,67.991 Z M119.988,81.342 L119.987,81.342 L119.987,81.34 C119.987,81.341 119.988,81.341 119.988,81.342 L119.988,81.342 Z M119.988,93.442 C118.618,90.897 116.912,88.41 115.234,85.98 C110.356,78.914 105.747,72.243 108.818,64.361 C110.242,60.471 112.357,57.545 114.6,54.447 L115.361,53.392 C115.968,52.573 116.641,51.792 117.355,50.967 C118.264,49.913 119.178,48.823 119.988,47.632 L119.988,57.79 L119.421,58.249 C116.411,60.672 112.289,63.987 112.289,67.992 C112.289,72.351 115.42,77.144 117.936,80.991 C118.609,82.022 119.243,82.989 119.764,83.868 L119.988,83.731 L119.988,93.442 L119.988,93.442 Z M116.209,49.953 C115.51,50.762 114.784,51.601 114.136,52.476 L113.372,53.537 C111.065,56.724 108.888,59.734 107.397,63.811 C104.03,72.45 109.09,79.779 113.985,86.866 C116.264,90.17 118.608,93.58 119.988,97.016 L119.988,109.745 C119.192,106.534 117.999,103.213 116.214,100.146 C114.704,97.638 112.924,95.189 111.205,92.818 C108.287,88.799 105.27,84.64 103.463,80.067 C100.105,71.496 101.83,62.278 108.738,51.884 C109.773,50.331 110.904,48.795 111.996,47.308 C115.339,42.761 118.762,38.053 119.99,32.216 L119.99,44.538 C119.094,46.598 117.631,48.305 116.209,49.953 L116.209,49.953 Z M110.81,0.991 L112.22,0.991 C113.347,4.123 115.513,6.768 117.621,9.323 C118.423,10.297 119.244,11.302 119.988,12.307 L119.988,23.868 C118.972,18.418 116.345,12.931 113.94,7.906 C112.775,5.477 111.679,3.166 110.81,0.991 L110.81,0.991 Z M113.854,0.991 L118.887,0.991 C119.494,0.991 119.988,1.49 119.988,2.105 L119.988,9.802 C119.589,9.305 119.188,8.813 118.79,8.334 C116.892,6.031 114.945,3.654 113.854,0.991 L113.854,0.991 Z M118.702,30.964 C117.743,36.906 114.356,41.511 110.772,46.387 C109.669,47.887 108.526,49.439 107.472,51.022 C100.265,61.872 98.489,71.559 102.048,80.639 C103.926,85.4 107.003,89.636 109.977,93.736 C111.678,96.077 113.437,98.501 114.909,100.943 C118.138,106.488 119.99,114.428 119.99,122.72 L119.99,124.932 L119.988,124.932 C119.988,125.547 119.494,126.047 118.887,126.047 L117.628,126.047 C117.54,118.208 113.303,109.378 109.215,103.552 C107.648,101.298 105.78,99.059 103.976,96.895 C98.599,90.443 93.04,83.771 93.624,75.007 C94.139,69.605 96.274,63.087 97.95,59.127 C98.864,56.812 100.187,54.813 101.466,52.881 C102.862,50.772 104.304,48.59 105.253,45.967 C107.313,40.232 106.404,35.786 104.265,30.453 C103.367,28.353 102.604,26.187 101.868,24.093 C100.893,21.321 99.885,18.458 98.571,15.8 C98.208,15.063 97.698,14.147 97.123,13.118 C95.112,9.515 92.137,4.178 92.601,0.991 L96.069,0.991 C95.81,5.506 98.686,11.63 100.632,15.773 C100.915,16.376 101.18,16.94 101.424,17.477 C103.309,21.293 105.321,24.289 109.014,26.499 L109.166,26.583 C110.071,27.077 110.72,27.433 111.278,27.433 C111.505,27.433 111.718,27.374 111.927,27.24 C112.604,26.806 112.683,25.859 112.596,24.162 C112.481,21.26 111.533,18.358 110.618,15.552 C110.194,14.257 109.796,13.032 109.487,11.826 C108.884,9.741 107.977,7.751 107.101,5.826 C106.344,4.17 105.637,2.596 105.112,0.992 L109.171,0.992 C110.091,3.386 111.289,5.913 112.566,8.582 C115.967,15.678 119.819,23.722 118.702,30.964 L118.702,30.964 Z M108.018,12.238 C108.334,13.469 108.742,14.717 109.171,16.036 C110.054,18.742 110.965,21.539 111.073,24.235 C111.118,25.136 111.099,25.593 111.065,25.823 C110.776,25.708 110.29,25.443 109.788,25.17 C106.42,23.153 104.552,20.36 102.797,16.808 C102.561,16.29 102.296,15.719 102.008,15.113 C100.11,11.069 97.328,5.088 97.633,0.991 L103.504,0.991 C104.069,2.853 104.906,4.693 105.716,6.472 C106.571,8.346 107.453,10.283 108.018,12.238 L108.018,12.238 Z M95.796,13.878 C96.355,14.88 96.856,15.774 97.209,16.49 C98.48,19.063 99.428,21.759 100.431,24.611 C101.177,26.729 101.948,28.92 102.861,31.049 C104.857,36.026 105.713,40.168 103.822,45.437 C102.936,47.885 101.607,49.894 100.2,52.02 C98.878,54.019 97.51,56.086 96.543,58.535 C94.831,62.579 92.642,69.279 92.106,74.878 C91.476,84.291 97.238,91.204 102.81,97.889 C104.676,100.128 106.439,102.241 107.97,104.445 C111.923,110.076 116.017,118.577 116.104,126.047 L114.327,126.047 C112.936,122.091 105.466,104.888 99.857,103.51 C98.718,103.23 97.681,103.558 96.843,104.462 C92.778,108.94 93.765,114.963 94.634,120.277 C94.969,122.314 95.27,124.246 95.325,126.047 L80.878,126.047 C81.052,125.707 81.258,125.328 81.456,124.968 C81.844,124.261 82.245,123.528 82.551,122.834 C83.2,121.156 83.773,119.436 84.324,117.777 C85.287,114.886 86.281,111.893 87.711,109.101 C91.837,100.625 90.018,92.913 88.089,84.749 C87.237,81.14 86.356,77.409 86.005,73.555 C85.483,67.297 89.178,62.623 93.09,57.675 C96.152,53.802 99.317,49.798 100.42,44.892 C102.565,35.36 98.051,26.813 92.859,19.014 C90.319,14.994 87.691,10.835 85.416,6.56 C84.265,4.56 83.246,3.012 81.731,1.478 C81.567,1.312 81.452,1.148 81.335,0.989 L91.075,0.989 C90.691,4.71 93.608,9.953 95.796,13.878 L95.796,13.878 Z M84.084,7.314 C86.375,11.62 89.018,15.803 91.582,19.862 C96.591,27.389 100.949,35.588 98.93,44.548 C97.907,49.11 94.851,52.976 91.898,56.711 C87.97,61.677 83.91,66.813 84.484,73.69 C84.845,77.661 85.74,81.447 86.605,85.109 C88.467,92.995 90.227,100.442 86.348,108.404 C84.872,111.29 83.859,114.338 82.879,117.286 C82.331,118.93 81.766,120.628 81.142,122.24 C80.873,122.854 80.487,123.555 80.122,124.22 C79.694,124.999 79.387,125.577 79.191,126.048 L63.571,126.048 C65.991,123.662 68.295,120.264 70.536,116.941 C71.812,115.048 73.017,113.262 74.17,111.783 C79.496,104.914 83.393,98.907 81.121,89.442 C80.103,85.323 79.922,80.703 79.749,76.234 C79.422,67.832 79.083,59.144 73.406,52.409 C67.642,45.989 66.239,38.97 64.614,30.841 C64.23,28.918 63.836,26.946 63.369,24.913 L63.184,24.145 C61.435,16.808 58.865,6.106 52.077,0.989 L58.194,0.989 C59.596,4.825 65.45,11.383 70.036,11.383 C70.288,11.383 70.536,11.363 70.779,11.324 C72.37,11.055 73.407,10.375 73.859,9.303 C74.861,6.928 72.58,3.531 70.912,1.052 C70.897,1.029 70.887,1.012 70.87,0.991 L79.331,0.991 L79.288,1.099 C79.596,1.224 79.743,1.414 80.022,1.799 C80.2,2.046 80.393,2.307 80.651,2.571 C82.056,3.993 82.98,5.398 84.084,7.314 L84.084,7.314 Z M78.455,17.508 L78.093,17.504 C74.484,17.504 72.189,18.925 71.101,21.786 C69.116,25.803 70.685,31.842 71.722,35.835 L71.869,36.402 C73.669,42.482 76.647,50.832 81.7,53.145 C82.684,53.579 83.679,53.799 84.655,53.799 C87.369,53.799 89.844,52.069 91.282,49.159 C93.936,43.605 92.54,37.857 90.834,32.986 C89.373,28.41 85.951,17.694 78.455,17.508 L78.455,17.508 Z M89.913,48.478 C88.324,51.695 85.27,53.033 82.315,51.734 C77.322,49.449 74.419,39.647 73.334,35.984 L73.194,35.442 C72.214,31.671 70.737,25.974 72.493,22.407 C73.379,20.083 75.105,19.047 78.092,19.047 L78.414,19.051 C84.833,19.212 88.02,29.197 89.39,33.481 C90.998,38.071 92.318,43.445 89.913,48.478 L89.913,48.478 Z M84.136,33.39 C83.313,32.081 81.204,29.038 79.377,29.038 C78.997,29.038 78.075,29.185 77.715,30.503 C76.927,32.76 78.76,39.403 81.1,42.758 C82.081,44.168 83.085,44.882 84.077,44.882 L84.079,44.882 C85.12,44.882 85.991,44.134 86.666,42.663 C87.695,40.425 85.947,36.27 84.136,33.39 L84.136,33.39 Z M84.079,43.339 C83.867,43.339 83.271,43.195 82.345,41.869 C80.187,38.776 78.575,32.669 79.168,30.968 C79.245,30.689 79.334,30.597 79.377,30.582 C79.836,30.582 81.183,31.572 82.851,34.221 C84.831,37.371 85.878,40.719 85.284,42.011 C85.056,42.508 84.597,43.339 84.079,43.339 L84.079,43.339 Z M72.455,8.697 C72.221,9.254 71.572,9.626 70.527,9.802 C66.975,10.406 61.457,4.549 59.843,0.989 L69.035,0.989 C69.222,1.275 69.418,1.576 69.651,1.922 C70.953,3.857 73.131,7.098 72.455,8.697 L72.455,8.697 Z M61.703,24.506 L61.883,25.27 C62.346,27.281 62.737,29.239 63.118,31.147 C64.788,39.497 66.229,46.709 72.261,53.429 C77.58,59.739 77.907,68.154 78.224,76.292 C78.4,80.839 78.584,85.542 79.638,89.809 C81.752,98.613 78.207,104.076 72.97,110.829 C71.787,112.346 70.567,114.154 69.278,116.067 C66.683,119.915 64,123.867 61.267,126.045 L53.184,126.045 C53.898,124.282 54.31,122.485 54.694,120.737 C55.016,119.258 55.322,117.86 55.801,116.5 C56.262,115.255 57.039,114.11 57.863,112.898 C59.537,110.431 61.271,107.877 60.193,104.424 C58.766,99.818 54.82,98.358 51.003,96.945 C47.586,95.677 44.373,94.449 43.205,91.015 L43.205,82.258 C48.002,86.591 55.929,92.234 64.714,92.234 C65.416,92.234 66.128,92.199 66.84,92.121 C69.969,91.794 72.289,90.372 73.732,87.891 C78.923,78.988 70.834,59.059 69.894,56.816 C67.612,51.37 64.861,46.07 62.198,40.946 C60.848,38.348 59.498,35.75 58.193,33.107 C56.775,30.418 54.58,27.474 52.256,24.358 C48.11,18.8 43.823,13.051 43.204,7.882 L43.204,2.105 C43.204,1.49 43.699,0.989 44.306,0.989 L49.216,0.989 C57.035,4.956 59.844,16.71 61.703,24.506 L61.703,24.506 Z M68.783,99.452 C66.762,99.251 64.733,101.007 64.01,102.702 C63.554,103.772 63.645,104.766 64.299,105.466 C64.528,105.681 64.939,105.936 65.598,105.936 C67.518,105.936 70.768,103.552 70.93,101.573 C70.974,101.051 70.855,99.8 68.783,99.452 L68.783,99.452 Z M65.598,104.391 C65.473,104.391 65.374,104.369 65.371,104.369 C65.116,104.096 65.312,103.541 65.409,103.312 C65.88,102.211 67.249,100.978 68.463,100.978 C68.522,100.978 68.574,100.98 68.582,100.98 C68.902,101.035 69.435,101.166 69.412,101.444 C69.325,102.49 66.868,104.391 65.598,104.391 L65.598,104.391 Z M50.902,52.299 C54.761,56.116 58.751,60.066 60.954,65.051 C61.799,67.072 61.675,67.896 61.467,68.063 C60.933,68.498 58.57,67.693 55.999,65.833 C52.12,63.215 46.76,58.912 43.207,54.611 L43.207,43.717 C45.423,46.861 48.197,49.621 50.902,52.299 L50.902,52.299 Z M43.205,43.715 L43.207,43.715 L43.207,43.717 C43.206,43.716 43.206,43.715 43.205,43.715 L43.205,43.715 Z M43.205,28.805 C46.215,34.743 51.257,41.047 55.811,46.715 C57.72,49.09 59.524,51.335 61.052,53.397 C65.799,59.65 68.452,65.922 69.653,73.714 C69.7,74.083 69.77,74.54 69.85,75.047 C70.15,76.971 70.653,80.191 69.952,81.441 C68.899,83.942 66.691,83.435 63.181,82.408 L62.619,82.245 C56.187,80.148 51.468,75.518 46.433,70.169 C46.044,69.695 45.653,69.246 45.27,68.806 C44.52,67.941 43.816,67.116 43.205,66.219 L43.205,56.952 C46.796,60.908 51.586,64.71 55.133,67.104 C55.838,67.613 58.861,69.705 61.024,69.705 C61.557,69.705 62.039,69.577 62.42,69.267 C63.878,68.085 62.734,65.347 62.352,64.434 C60.025,59.166 55.929,55.112 51.968,51.193 C48.788,48.048 45.503,44.795 43.247,40.987 L43.205,41.013 L43.205,28.805 L43.205,28.805 Z M45.294,71.197 C50.51,76.739 55.377,81.508 62.175,83.723 L62.755,83.892 C64.265,84.335 65.866,84.803 67.311,84.803 C68.989,84.803 70.452,84.173 71.313,82.13 C72.238,80.489 71.725,77.205 71.352,74.808 C71.277,74.319 71.208,73.88 71.16,73.499 C69.914,65.417 67.168,58.927 62.265,52.466 C60.724,50.388 58.91,48.132 56.993,45.742 C51.693,39.148 45.699,31.68 43.204,25.101 L43.204,13.175 C45.001,17.188 48.052,21.287 51.041,25.289 C53.327,28.356 55.487,31.251 56.839,33.816 C58.139,36.451 59.493,39.058 60.848,41.666 C63.497,46.763 66.234,52.033 68.493,57.42 C69.401,59.589 77.231,78.856 72.42,87.108 C71.219,89.169 69.342,90.308 66.682,90.586 C56.98,91.631 47.984,84.713 43.204,80.168 L43.204,68.742 C43.505,69.103 43.808,69.462 44.125,69.827 C44.499,70.257 44.882,70.695 45.294,71.197 L45.294,71.197 Z M47.53,110.187 C47.213,112.007 45.883,114.08 44.597,116.083 C44.108,116.847 43.633,117.595 43.205,118.33 L43.205,106.802 C43.936,107.07 44.625,107.248 45.215,107.394 C47.134,107.866 47.781,108.025 47.53,110.187 L47.53,110.187 Z M43.205,94.151 C45.011,96.333 47.765,97.389 50.479,98.396 C54.107,99.738 57.535,101.008 58.739,104.887 C59.592,107.623 58.208,109.662 56.607,112.023 C55.769,113.259 54.903,114.537 54.372,115.969 C53.856,117.43 53.525,118.942 53.207,120.402 C52.795,122.283 52.353,124.221 51.526,126.045 L44.307,126.045 C43.699,126.047 43.205,125.547 43.205,124.932 L43.205,122.791 C43.117,121.228 44.516,119.04 45.874,116.925 C47.244,114.791 48.659,112.583 49.035,110.411 C49.45,106.848 47.481,106.362 45.576,105.894 C44.849,105.715 44.039,105.504 43.205,105.138 L43.205,94.151 L43.205,94.151 Z M22.561,150.049 L97.102,150.049 L97.102,133.818 L99.932,133.818 L99.932,152.916 L19.73,152.916 L19.73,24.748 L34.748,24.748 L34.748,27.614 L22.561,27.614 L22.561,150.049 L22.561,150.049 Z M9.99,27.024 L16.682,27.024 L16.682,29.891 L12.82,29.891 L12.82,150.133 L16.682,150.133 L16.682,153 L9.99,153 L9.99,27.024 L9.99,27.024 Z M0,30.903 L6.693,30.903 L6.693,33.77 L2.83,33.77 L2.83,150.133 L6.693,150.133 L6.693,153 L0,153 L0,30.903 L0,30.903 Z M99.903,126.047 L96.847,126.047 C96.794,124.131 96.481,122.13 96.135,120.024 C95.284,114.817 94.402,109.432 97.957,105.513 C98.418,105.015 98.892,104.866 99.498,105.011 C103.864,106.082 110.925,121.09 112.719,126.047 L106.215,126.047 C105.988,125.459 105.764,124.868 105.538,124.262 C104.534,121.559 103.497,118.766 101.937,116.527 L101.204,115.474 L100.633,116.627 C99.37,119.184 99.093,123.158 99.903,126.047 L99.903,126.047 Z M104.111,124.804 C104.267,125.228 104.426,125.632 104.583,126.047 L101.488,126.047 C100.793,124.001 100.813,120.97 101.48,118.675 C102.523,120.528 103.327,122.695 104.111,124.804 L104.111,124.804 Z" id="wood-samples" fill="#4A4A4A" sketch:type="MSShapeGroup"></path>
    </g>
</svg>