<?xml version="1.0" encoding="UTF-8" standalone="no"?>
<svg width="171px" height="83px" viewBox="0 0 171 83" version="1.1" xmlns="http://www.w3.org/2000/svg" xmlns:xlink="http://www.w3.org/1999/xlink" xmlns:sketch="http://www.bohemiancoding.com/sketch/ns">
    <!-- Generator: Sketch 3.4.4 (17249) - http://www.bohemiancoding.com/sketch -->
    <title>wood-log</title>
    <desc>Created with Sketch.</desc>
    <defs></defs>
    <g id="Page-1" stroke="none" stroke-width="1" fill="none" fill-rule="evenodd" sketch:type="MSPage">
        <path d="M171,60.16 C171,72.753 160.858,82.998 148.401,83 L22.6,83 C10.136,83 0,72.755 0,60.16 C0,47.565 10.136,37.32 22.598,37.32 L26.782,37.32 C23.575,33.375 21.645,28.331 21.645,22.836 C21.645,10.245 31.781,0 44.245,0 L128.814,0 C141.278,0 151.417,10.245 151.417,22.836 C151.417,28.179 149.61,33.246 146.292,37.32 L148.4,37.32 C160.858,37.32 171,47.567 171,60.16 L171,60.16 Z M162.456,44.862 C158.196,44.299 152.498,46.684 147.894,48.633 C146.691,49.143 145.55,49.619 144.506,50.023 C140.376,51.616 126.019,55.548 119.751,55.548 C112.993,55.548 102.978,53.607 96.461,51.036 C91.766,49.182 85.817,48.053 82.648,47.538 C85.033,51.157 86.429,55.495 86.429,60.16 C86.429,61.139 86.347,62.097 86.23,63.044 C89.414,63.497 100.62,64.985 112.303,65.202 C126.378,65.457 155.411,60.942 168.929,57.658 C168.333,52.624 165.958,48.145 162.456,44.862 L162.456,44.862 Z M148.4,81.069 C155.53,81.069 161.833,77.403 165.553,71.841 C163.387,72.905 160.299,73.871 154.782,74.37 C150.054,74.796 144.201,74.675 136.794,74.52 C130.92,74.401 124.256,74.26 116.704,74.374 C105.011,74.546 97.383,78.684 93.938,81.069 L148.4,81.069 L148.4,81.069 Z M90.774,81.069 C92.397,79.621 100.966,72.678 116.677,72.444 C124.281,72.333 130.94,72.471 136.834,72.594 C144.185,72.746 149.996,72.867 154.613,72.448 C162.52,71.736 165.091,70.04 167.346,68.537 C168.462,65.97 169.092,63.14 169.094,60.16 C169.094,59.974 169.072,59.795 169.066,59.609 C155.701,62.819 128.005,67.141 113.477,67.141 C113.061,67.141 112.66,67.137 112.271,67.13 C100.445,66.913 89.104,65.402 85.924,64.947 C84.388,72.185 79.45,78.154 72.89,81.069 L90.774,81.069 L90.774,81.069 Z M84.518,60.16 C84.518,48.629 75.236,39.252 63.827,39.252 C62.308,39.252 60.832,39.428 59.405,39.743 L59.401,39.747 L59.219,39.791 C59.189,39.799 59.158,39.808 59.128,39.816 C58.303,40.01 57.494,40.26 56.702,40.555 C56.635,40.58 56.57,40.603 56.506,40.628 C54.876,41.254 53.323,42.085 51.895,43.109 C51.87,43.126 51.849,43.143 51.826,43.161 C51.152,43.65 50.506,44.182 49.89,44.752 C47.247,47.195 45.222,50.305 44.11,53.834 C44.046,54.039 43.998,54.25 43.939,54.456 C43.829,54.849 43.723,55.245 43.635,55.648 C43.582,55.892 43.538,56.138 43.493,56.384 C43.421,56.787 43.358,57.194 43.308,57.607 C43.28,57.822 43.251,58.039 43.232,58.256 C43.177,58.883 43.137,59.517 43.137,60.16 C43.137,60.803 43.175,61.437 43.232,62.065 C43.253,62.282 43.282,62.499 43.308,62.716 C43.358,63.127 43.419,63.534 43.493,63.937 C43.538,64.182 43.582,64.428 43.635,64.672 C43.725,65.073 43.829,65.467 43.939,65.859 C43.998,66.068 44.048,66.281 44.112,66.488 C46.774,74.932 54.604,81.069 63.827,81.071 C75.238,81.071 84.518,71.69 84.518,60.16 L84.518,60.16 Z M92.621,37.32 C91.181,37.105 89.741,36.89 88.337,36.677 C83.721,35.978 79.361,35.32 77.045,35.106 C71.907,34.623 65.005,34.978 63.258,35.083 C62.744,35.899 62.185,36.688 61.567,37.437 C62.312,37.36 63.067,37.32 63.83,37.32 L92.621,37.32 L92.621,37.32 Z M46.483,45.545 C45.731,45.624 44.982,45.68 44.245,45.68 C42.67,45.68 41.133,45.513 39.647,45.202 C41.104,46.895 42.303,48.794 43.213,50.848 C44.067,48.928 45.165,47.141 46.483,45.545 L46.483,45.545 Z M54.771,81.069 C49.641,78.79 45.512,74.639 43.217,69.476 C40.899,74.738 36.765,78.824 31.698,81.069 L54.771,81.069 L54.771,81.069 Z M22.6,39.252 C11.191,39.252 1.907,48.629 1.907,60.16 C1.907,71.69 11.191,81.069 22.596,81.069 C31.532,81.069 39.377,75.349 42.21,66.815 C42.026,66.208 41.876,65.59 41.743,64.972 C41.697,64.751 41.661,64.53 41.621,64.309 C41.534,63.833 41.462,63.355 41.405,62.875 C41.378,62.66 41.351,62.443 41.332,62.226 C41.27,61.541 41.228,60.849 41.228,60.158 C41.228,59.469 41.27,58.78 41.332,58.094 C41.351,57.873 41.378,57.655 41.405,57.436 C41.462,56.961 41.534,56.491 41.619,56.021 C41.661,55.794 41.697,55.566 41.745,55.341 C41.878,54.727 42.028,54.112 42.21,53.507 C40.964,49.758 38.705,46.469 35.659,43.957 C34.743,43.575 33.865,43.128 33.014,42.633 C32.847,42.537 32.687,42.433 32.524,42.331 C31.823,41.899 31.147,41.433 30.499,40.928 C30.406,40.855 30.299,40.801 30.208,40.726 C27.765,39.745 25.205,39.252 22.6,39.252 L22.6,39.252 Z M44.245,1.931 C32.836,1.931 23.554,11.31 23.552,22.836 C23.552,29.483 26.645,35.4 31.441,39.234 C32.104,39.766 32.805,40.25 33.529,40.694 C33.674,40.782 33.814,40.874 33.958,40.958 C34.76,41.423 35.589,41.842 36.449,42.197 C38.859,43.191 41.486,43.75 44.243,43.75 C45.689,43.75 47.179,43.581 48.674,43.249 C48.725,43.203 48.782,43.166 48.834,43.12 C49.474,42.544 50.141,42.001 50.844,41.5 C50.857,41.49 50.87,41.479 50.884,41.469 C52.371,40.413 53.988,39.545 55.706,38.873 C55.788,38.841 55.873,38.812 55.955,38.781 C56.726,38.489 57.517,38.242 58.326,38.036 C58.375,38.025 58.423,38.002 58.472,37.99 C62.643,33.993 64.936,28.625 64.936,22.838 C64.936,11.312 55.655,1.931 44.245,1.931 L44.245,1.931 Z M58.33,1.931 C60.483,2.947 63.105,4.322 65.426,5.94 C69.642,8.878 73.148,8.845 76.538,8.824 L77.467,8.818 C81.037,8.818 87.655,7.776 92.127,6.09 C93.735,5.483 95.646,4.548 97.664,3.557 C98.828,2.985 99.968,2.432 101.059,1.931 L58.33,1.931 L58.33,1.931 Z M128.811,1.935 L107.168,1.935 C105.357,1.935 101.709,3.721 98.496,5.295 C96.526,6.263 94.489,7.259 92.792,7.898 C88.12,9.661 81.2,10.752 77.465,10.752 L76.551,10.755 C76.234,10.757 75.911,10.759 75.588,10.759 C72.312,10.759 68.628,10.515 64.343,7.528 C60.028,4.519 54.42,2.298 53.466,1.931 L53.466,1.933 L53.301,1.933 C60.777,5.253 66.131,12.545 66.758,21.152 C69.817,21.012 79.713,20.77 85.699,23.132 C92.433,25.787 105.467,28.492 111.53,28.492 C117.3,28.492 129.067,23.692 132.637,21.24 C135.877,19.023 142.54,15.632 148.297,15.876 C145.449,7.768 137.801,1.935 128.811,1.935 L128.811,1.935 Z M149.503,22.838 C149.503,21.127 149.277,19.472 148.892,17.88 C143.496,17.312 136.673,20.806 133.711,22.834 C130.028,25.363 117.849,30.42 111.53,30.42 C105.174,30.42 92.038,27.699 85.008,24.925 C79.42,22.723 69.747,22.957 66.832,23.084 C66.794,26.586 65.928,30.003 64.381,33.094 C67.131,32.96 72.739,32.772 77.22,33.188 C79.589,33.409 83.775,34.041 88.62,34.772 C96.163,35.913 104.717,37.205 108.87,37.307 C109.208,37.316 109.56,37.32 109.915,37.322 L110.567,37.322 C117.19,37.291 126.076,36.145 130.439,34.168 C134.427,32.361 143.152,28.978 148.715,28.538 C149.228,26.705 149.507,24.792 149.503,22.838 L149.503,22.838 Z M148.044,30.554 C143.384,31.13 136.3,33.628 131.22,35.926 C130.063,36.45 128.624,36.915 127.021,37.32 L143.724,37.32 C145.61,35.337 147.066,33.046 148.044,30.554 L148.044,30.554 Z M72.891,39.252 C76.03,40.647 78.793,42.74 80.993,45.34 C82.726,45.574 90.877,46.761 97.155,49.241 C103.483,51.735 113.202,53.617 119.751,53.617 C125.808,53.617 139.791,49.779 143.828,48.222 C144.852,47.826 145.977,47.352 147.157,46.849 C151.117,45.179 155.846,43.207 160.054,42.898 C156.733,40.601 152.72,39.252 148.4,39.252 L72.891,39.252 L72.891,39.252 Z M107.171,21.429 C101.832,21.429 93.396,17.85 93.035,17.702 L91.105,16.876 L92.986,15.945 C93.324,15.778 101.314,11.869 107.415,11.869 L107.8,11.873 C113.924,12.048 121.376,15.788 121.691,15.947 L123.572,16.901 L121.625,17.702 C121.25,17.855 112.497,21.429 107.171,21.429 L107.171,21.429 Z M107.751,13.8 L107.416,13.795 C103.531,13.795 98.614,15.605 95.891,16.753 C98.713,17.811 103.755,19.501 107.173,19.501 C110.616,19.501 115.864,17.786 118.773,16.728 C116.179,15.619 111.595,13.91 107.751,13.8 L107.751,13.8 Z" id="wood-log" fill="#4A4A4A" sketch:type="MSShapeGroup"></path>
    </g>
</svg>