<?xml version="1.0" encoding="UTF-8" standalone="no"?>
<svg width="115px" height="147px" viewBox="0 0 115 147" version="1.1" xmlns="http://www.w3.org/2000/svg" xmlns:xlink="http://www.w3.org/1999/xlink" xmlns:sketch="http://www.bohemiancoding.com/sketch/ns">
    <!-- Generator: Sketch 3.4.4 (17249) - http://www.bohemiancoding.com/sketch -->
    <title>wood</title>
    <desc>Created with Sketch.</desc>
    <defs></defs>
    <g id="Page-1" stroke="none" stroke-width="1" fill="none" fill-rule="evenodd" sketch:type="MSPage">
        <path d="M115,111.889 L115,146.903 L22.705,146.903 L22.705,0 L25.986,0 L111.811,0 L115,0 L115,111.889 L115,111.889 L115,111.889 L115,111.889 Z M91.426,143.617 L94.784,143.617 C93.89,141.22 92.97,138.762 91.781,136.658 C91.162,138.777 91.037,141.435 91.426,143.617 L91.426,143.617 Z M85.63,138.204 C85.94,140.078 86.221,141.878 86.362,143.617 L89.65,143.617 C89.155,140.524 89.561,136.822 90.807,134.31 L91.463,132.989 L92.307,134.196 C94.102,136.762 95.296,139.963 96.451,143.061 C96.522,143.25 96.592,143.431 96.663,143.617 L104.139,143.617 C101.429,136.897 94.143,122.131 89.5,120.996 C88.803,120.83 88.258,121 87.727,121.572 C83.637,126.063 84.651,132.235 85.63,138.204 L85.63,138.204 Z M25.962,134.251 C26.083,134.063 26.199,133.877 26.322,133.687 C27.801,131.391 29.332,129.015 29.696,126.929 C29.985,124.45 29.241,124.268 27.033,123.728 C26.701,123.646 26.341,123.554 25.962,123.448 L25.962,134.251 L25.962,134.251 Z M25.962,121.594 C26.478,121.757 26.98,121.893 27.448,122.008 C29.64,122.545 31.906,123.101 31.429,127.186 C30.996,129.675 29.367,132.206 27.791,134.652 C27.146,135.652 26.5,136.665 25.962,137.638 L25.962,143.617 L34.891,143.617 C35.479,141.977 35.866,140.288 36.229,138.637 C36.595,136.964 36.976,135.231 37.57,133.556 C38.181,131.915 39.178,130.45 40.143,129.033 C41.985,126.326 43.577,123.99 42.596,120.854 C41.21,116.408 37.265,114.952 33.09,113.414 C30.534,112.47 27.957,111.475 25.962,109.778 L25.962,121.594 L25.962,121.594 Z M25.962,64.639 C29.989,69.082 35.406,73.377 39.443,76.091 C42.401,78.223 45.121,79.146 45.735,78.648 C45.974,78.456 46.118,77.512 45.145,75.195 C42.609,69.481 38.018,64.954 33.577,60.578 C30.942,57.981 28.274,55.297 25.962,52.354 L25.962,64.639 L25.962,64.639 Z M25.962,49.454 C28.454,53.044 31.67,56.224 34.803,59.311 C39.362,63.804 44.075,68.45 46.753,74.488 C47.193,75.535 48.51,78.672 46.832,80.027 C46.393,80.382 45.838,80.529 45.225,80.529 C42.736,80.529 39.257,78.132 38.446,77.548 C34.758,75.069 29.913,71.27 25.962,67.217 L25.962,78.165 C26.327,78.608 26.704,79.049 27.096,79.499 C27.536,80.003 27.986,80.517 28.435,81.061 C34.229,87.192 39.659,92.499 47.061,94.902 L47.708,95.089 C51.747,96.266 54.288,96.847 55.499,93.981 C56.306,92.548 55.727,88.857 55.382,86.652 C55.29,86.071 55.209,85.547 55.156,85.124 C53.773,76.194 50.72,69.004 45.258,61.838 C43.499,59.474 41.423,56.901 39.226,54.178 C34.566,48.402 29.471,42.05 25.962,35.927 L25.962,49.454 L25.962,49.454 Z M25.962,32.251 C29.287,39.051 35.243,46.441 40.586,53.064 C42.793,55.802 44.88,58.388 46.653,60.77 C52.296,68.176 55.456,75.614 56.89,84.878 C56.945,85.314 57.024,85.817 57.111,86.379 C57.54,89.126 58.13,92.889 57.066,94.771 C56.075,97.112 54.391,97.835 52.46,97.835 C50.797,97.835 48.955,97.298 47.218,96.79 L46.55,96.596 C38.726,94.058 33.126,88.592 27.123,82.239 C26.716,81.745 26.335,81.308 25.962,80.881 L25.962,93.665 C31.693,98.809 41.361,105.575 51.736,104.463 C54.798,104.144 56.958,102.838 58.34,100.476 C63.876,91.018 54.865,68.934 53.82,66.448 C51.221,60.274 48.071,54.234 45.022,48.392 C43.464,45.403 41.906,42.415 40.409,39.395 C38.854,36.454 36.368,33.136 33.737,29.621 C30.909,25.849 28.045,22.003 25.962,18.197 L25.962,32.251 L25.962,32.251 Z M25.962,3.286 L25.962,14.189 C27.87,18.85 31.548,23.764 35.136,28.554 C37.81,32.126 40.336,35.499 41.967,38.581 C43.469,41.611 45.022,44.589 46.576,47.567 C49.641,53.44 52.807,59.514 55.433,65.756 C56.514,68.327 65.823,91.169 59.85,101.374 C58.188,104.217 55.519,105.847 51.918,106.222 C51.099,106.311 50.279,106.352 49.471,106.352 C40.084,106.352 31.554,100.776 25.962,96.003 L25.962,107.224 C27.74,109.505 30.638,110.622 33.693,111.751 C38.086,113.37 42.627,115.045 44.269,120.323 C45.509,124.281 43.514,127.208 41.588,130.037 C40.639,131.425 39.746,132.738 39.215,134.165 C38.663,135.724 38.312,137.325 37.941,139.021 C37.607,140.534 37.253,142.08 36.747,143.617 L47.133,143.617 C49.716,141.024 52.255,137.315 54.723,133.669 C56.207,131.475 57.611,129.404 58.972,127.664 C64.999,119.925 69.078,113.663 66.646,103.572 C65.433,98.681 65.221,93.291 65.018,88.079 C64.654,78.752 64.278,69.107 58.156,61.874 C51.215,54.172 49.557,45.905 47.635,36.335 C47.197,34.148 46.747,31.904 46.214,29.598 L46.006,28.723 C44.067,20.621 41.213,8.812 33.993,3.286 L25.962,3.286 L25.962,3.286 Z M44.691,3.286 C47.176,7.313 52.549,12.482 56.161,11.869 C57.364,11.668 58.111,11.241 58.38,10.603 C59.108,8.889 56.961,5.528 55.455,3.286 L44.691,3.286 L44.691,3.286 Z M67.812,3.582 C67.715,3.482 67.635,3.384 67.551,3.286 L57.567,3.286 C59.27,5.906 60.963,9.014 59.995,11.298 C59.476,12.527 58.282,13.306 56.451,13.614 C56.172,13.659 55.886,13.682 55.596,13.682 C50.885,13.682 45.023,7.699 42.668,3.286 L36.681,3.286 C43.192,9.56 45.857,20.564 47.711,28.31 L47.924,29.19 C48.461,31.52 48.915,33.781 49.357,35.984 C51.226,45.302 52.841,53.347 59.474,60.705 C66.007,68.425 66.397,78.382 66.773,88.012 C66.973,93.135 67.181,98.43 68.352,103.151 C70.967,114 66.483,120.885 60.353,128.758 C59.027,130.453 57.64,132.5 56.172,134.67 C54.029,137.835 51.834,141.048 49.557,143.617 L66.877,143.617 C66.985,143.417 67.076,143.241 67.202,143.012 C67.623,142.251 68.067,141.447 68.377,140.744 C69.094,138.896 69.745,136.949 70.375,135.065 C71.503,131.687 72.669,128.193 74.368,124.885 C78.831,115.759 76.807,107.224 74.663,98.185 C73.668,93.988 72.638,89.648 72.222,85.096 C71.563,77.214 76.234,71.328 80.754,65.636 C84.153,61.355 87.669,56.924 88.847,51.695 C91.17,41.425 86.155,32.028 80.391,23.4 C77.441,18.748 74.398,13.954 71.763,9.018 C70.491,6.822 69.428,5.212 67.812,3.582 L67.812,3.582 Z M69.927,3.286 C71.207,4.746 72.209,6.274 73.295,8.154 C75.913,13.054 78.938,17.82 81.861,22.429 C87.835,31.367 93.03,41.163 90.562,52.089 C89.292,57.713 85.65,62.302 82.127,66.741 C77.625,72.412 73.372,77.769 73.972,84.942 C74.377,89.36 75.39,93.636 76.371,97.773 C78.591,107.13 80.685,115.969 75.936,125.684 C74.29,128.885 73.147,132.315 72.038,135.628 C71.404,137.53 70.745,139.501 69.998,141.424 C69.682,142.138 69.277,142.886 68.875,143.617 L84.607,143.617 C84.467,141.988 84.197,140.277 83.903,138.494 C82.903,132.403 81.767,125.5 86.445,120.367 C87.41,119.331 88.603,118.955 89.913,119.276 C95.815,120.72 103.501,137.314 106.001,143.617 L108.545,143.617 C107.965,135.435 103.537,126.43 99.25,120.348 C97.488,117.821 95.459,115.399 93.312,112.833 C86.9,105.17 80.268,97.247 80.994,86.458 C81.61,80.041 84.13,72.361 86.1,67.727 C87.213,64.92 88.787,62.551 90.308,60.259 C91.928,57.822 93.457,55.519 94.477,52.714 C96.653,46.675 95.667,41.927 93.37,36.223 C92.32,33.782 91.433,31.271 90.574,28.843 C89.42,25.574 88.329,22.484 86.866,19.535 C86.459,18.715 85.884,17.69 85.24,16.541 C83.008,12.554 80.122,7.381 79.802,3.286 L69.927,3.286 L69.927,3.286 Z M87.362,3.286 C87.659,7.857 90.429,13.799 92.389,17.957 C92.72,18.652 93.025,19.306 93.297,19.9 C95.317,23.971 97.466,27.172 101.342,29.485 C101.919,29.797 102.479,30.101 102.812,30.233 C102.85,29.97 102.873,29.446 102.821,28.412 C102.697,25.322 101.648,22.116 100.632,19.015 C100.139,17.503 99.669,16.073 99.305,14.662 C98.655,12.421 97.64,10.201 96.656,8.053 C95.945,6.499 95.218,4.903 94.624,3.286 L87.362,3.286 L87.362,3.286 Z M111.743,3.286 L106.745,3.286 C108.04,5.737 109.886,7.993 111.701,10.187 C111.715,10.203 111.729,10.221 111.743,10.237 L111.743,3.286 L111.743,3.286 Z M111.743,13.018 C111.284,12.446 110.817,11.879 110.356,11.321 C108.279,8.814 106.16,6.229 104.778,3.286 L103.153,3.286 C104.032,5.331 105.047,7.468 106.12,9.697 C108.132,13.884 110.271,18.352 111.743,22.88 L111.743,13.018 L111.743,13.018 Z M111.743,70.227 C108.923,72.582 105.972,75.49 105.972,78.565 C105.972,82.797 109.064,87.727 111.743,91.819 L111.743,70.227 L111.743,70.227 Z M111.743,95.036 C111.415,94.528 111.074,94.007 110.719,93.465 C107.823,89.056 104.22,83.562 104.22,78.566 C104.22,74.272 108.372,70.67 111.743,67.949 L111.743,57.02 C111.189,57.716 110.621,58.393 110.049,59.052 C109.228,59.998 108.454,60.892 107.756,61.831 L106.88,63.04 C104.299,66.591 101.865,69.945 100.226,74.404 C96.691,83.438 101.995,91.085 107.609,99.184 C109.025,101.226 110.456,103.305 111.743,105.42 L111.743,95.036 L111.743,95.036 Z M111.743,108.972 C110.185,106.005 108.158,103.067 106.172,100.199 C100.539,92.076 94.715,83.676 98.59,73.774 C100.306,69.1 102.812,65.651 105.467,61.997 L106.346,60.782 C107.091,59.779 107.927,58.818 108.732,57.89 C109.783,56.675 110.837,55.42 111.743,54.059 L111.743,41.93 C109.868,46.688 106.855,50.832 103.883,54.859 C102.626,56.562 101.324,58.323 100.134,60.103 C92.184,72.016 90.199,82.582 94.064,92.406 C96.143,97.648 99.614,102.414 102.973,107.021 C104.95,109.738 106.999,112.545 108.736,115.421 C109.98,117.547 110.949,119.782 111.743,122.03 L111.743,108.972 L111.743,108.972 Z M111.743,128.576 C110.746,123.951 109.227,119.741 107.235,116.333 C105.541,113.535 103.516,110.757 101.56,108.073 C98.137,103.374 94.596,98.518 92.434,93.062 C88.339,82.654 90.383,71.551 98.677,59.115 C99.89,57.301 101.205,55.522 102.474,53.802 C106.599,48.214 110.496,42.936 111.6,36.125 C111.665,35.703 111.706,35.276 111.743,34.849 L111.743,31.202 C111.179,24.286 107.693,17.026 104.539,10.472 C103.336,7.967 102.204,5.578 101.249,3.286 L96.507,3.286 C97.02,4.611 97.618,5.937 98.25,7.313 C99.258,9.52 100.301,11.799 100.995,14.19 C101.352,15.571 101.81,16.976 102.297,18.46 C103.35,21.677 104.441,25.003 104.573,28.329 C104.673,30.274 104.583,31.359 103.804,31.857 C103.563,32.01 103.318,32.078 103.057,32.078 C102.415,32.078 101.668,31.67 100.626,31.104 L100.452,31.008 C96.201,28.474 93.886,25.041 91.717,20.666 C91.436,20.051 91.131,19.405 90.805,18.714 C88.778,14.414 85.881,8.255 85.572,3.286 L81.544,3.286 C81.89,6.958 84.749,12.069 86.768,15.671 C87.429,16.851 88.016,17.9 88.434,18.745 C89.945,21.791 91.105,25.073 92.228,28.249 C93.075,30.65 93.952,33.133 94.986,35.54 C97.448,41.652 98.493,46.748 96.124,53.321 C95.031,56.328 93.372,58.829 91.765,61.246 C90.294,63.46 88.771,65.751 87.719,68.406 C85.79,72.944 83.333,80.415 82.741,86.607 C82.069,96.652 88.466,104.298 94.654,111.694 C96.73,114.174 98.879,116.74 100.682,119.324 C105.129,125.635 109.722,135.021 110.299,143.617 L111.743,143.617 L111.743,128.576 L111.743,128.576 Z M79.53,38.443 C81.493,44.026 83.099,50.615 80.046,56.981 C78.391,60.315 75.542,62.298 72.419,62.298 C71.296,62.298 70.151,62.046 69.019,61.548 C63.203,58.897 59.777,49.327 57.706,42.358 L57.537,41.709 C56.343,37.131 54.538,30.21 56.822,25.605 C58.074,22.326 60.714,20.697 64.868,20.697 L65.284,20.702 C73.911,20.915 77.849,33.198 79.53,38.443 L79.53,38.443 Z M65.238,22.471 L64.867,22.466 C61.429,22.466 59.443,23.654 58.424,26.318 C56.403,30.406 58.103,36.936 59.23,41.258 L59.392,41.88 C60.64,46.078 63.981,57.312 69.727,59.931 C73.127,61.42 76.642,59.887 78.47,56.199 C81.238,50.431 79.718,44.272 77.868,39.011 C76.292,34.1 72.624,22.655 65.238,22.471 L65.238,22.471 Z M71.756,52.078 C71.756,52.078 71.756,52.078 71.755,52.078 C70.612,52.078 69.457,51.259 68.328,49.643 C65.636,45.798 63.526,38.184 64.433,35.597 C64.847,34.087 65.909,33.917 66.346,33.917 C68.448,33.917 70.875,37.406 71.822,38.906 C73.906,42.207 75.918,46.97 74.734,49.534 C73.956,51.22 72.955,52.078 71.756,52.078 L71.756,52.078 Z M70.343,39.858 C68.423,36.822 66.873,35.688 66.346,35.688 C66.296,35.704 66.194,35.81 66.105,36.13 C65.423,38.08 67.278,45.079 69.761,48.625 C70.827,50.144 71.512,50.309 71.756,50.309 C72.353,50.309 72.88,49.357 73.143,48.787 C73.827,47.306 72.622,43.469 70.343,39.858 L70.343,39.858 Z M50.489,122.057 C49.731,122.057 49.258,121.764 48.994,121.518 C48.242,120.716 48.137,119.577 48.661,118.35 C49.494,116.407 51.828,114.394 54.154,114.625 C56.538,115.024 56.675,116.457 56.625,117.056 C56.438,119.324 52.699,122.057 50.489,122.057 L50.489,122.057 Z M53.923,116.376 C53.914,116.376 53.854,116.374 53.786,116.374 C52.389,116.374 50.813,117.787 50.271,119.049 C50.16,119.311 49.934,119.948 50.228,120.26 C50.231,120.26 50.345,120.286 50.489,120.286 C51.95,120.286 54.778,118.107 54.878,116.908 C54.904,116.589 54.291,116.439 53.923,116.376 L53.923,116.376 Z M11.496,2.61 L19.198,2.61 L19.198,5.895 L14.753,5.895 L14.753,143.714 L19.198,143.714 L19.198,147 L11.496,147 L11.496,2.61 L11.496,2.61 Z M0,7.055 L7.702,7.055 L7.702,10.341 L3.257,10.341 L3.257,143.714 L7.702,143.714 L7.702,147 L0,147 L0,7.055 L0,7.055 Z" id="wood" fill="#4A4A4A" sketch:type="MSShapeGroup"></path>
    </g>
</svg>