<?xml version="1.0" encoding="UTF-8" standalone="no"?>
<svg width="1003px" height="212px" viewBox="0 0 1003 212" version="1.1" xmlns="http://www.w3.org/2000/svg" xmlns:xlink="http://www.w3.org/1999/xlink" xmlns:sketch="http://www.bohemiancoding.com/sketch/ns">
    <!-- Generator: Sketch 3.4.4 (17249) - http://www.bohemiancoding.com/sketch -->
    <title>rezult-logotype</title>
    <desc>Created with Sketch.</desc>
    <defs></defs>
    <g id="Page-1" stroke="none" stroke-width="1" fill="none" fill-rule="evenodd" sketch:type="MSPage">
        <path d="M62.3657688,99.964 L2,1 L124.635,1 C161.744,1 191.827,30.732 191.827,67.409 C191.726165,95.862527 173.530696,121.098031 146.566,130.182 L192.97,206.027 L127.243,206.027 L67.65,108.627 L63.423,101.697231 L63.423,206.026 L2,206.026 L2,99.964 L62.3657688,99.964 L62.3657688,99.964 Z M821.5,206.26 L760.075,206.26 L760.075,1.003 L821.5,1.003 L821.5,206.263 L821.5,206.26 L821.5,206.26 Z M1002,179.622 C1002.14558,192.075662 994.75564,203.38421 983.2914,208.25105 C971.827161,213.117889 958.558775,210.579288 949.700769,201.824255 C940.842762,193.069221 938.149195,179.831425 942.881657,168.311065 C947.614118,156.790704 958.835487,149.26904 971.29,149.269 C988.15164,149.171512 1001.90033,162.760377 1002,179.622 L1002,179.622 L1002,179.622 Z M126.523,67.845 C126.511494,75.6872349 122.637472,83.020459 116.166,87.45 L89.534,43.922 L102.318,43.922 C115.607658,43.8450073 126.443804,54.5553487 126.522,67.845 L126.523,67.845 L126.523,67.845 Z M287.161,168.027 C269.861,168.027 262.478,156.153 262.478,141.504 L370.478,141.504 C371.102544,137.526439 371.416493,133.506294 371.417,129.48 C371.417,84.995 333.693,48.933 287.159,48.933 C240.625,48.933 202.9,84.995 202.9,129.48 C202.9,173.965 240.625,210.003 287.16,210.003 C321.714,209.360333 347.925,195.752333 365.793,169.179 L315.593,148.755 C312.243,155.083 308.452667,159.876667 304.222,163.136 C299.985,166.403 293.843,168.027 287.161,168.027 L287.161,168.027 Z M265.028,108.678 C265.169143,96.555063 275.036742,86.801681 287.1605,86.801681 C299.284258,86.801681 309.151857,96.555063 309.293,108.678 L265.028,108.678 L265.028,108.678 Z M542.17,55.013 L391.931,55.013 L391.931,99.964 L460.957,99.964 L388.3,172.932 L388.3,205.917 L542.17,205.917 L542.17,160.966 L471,160.966 L542.171,89.457 L542.171,55.013 L542.17,55.013 L542.17,55.013 Z M960.97,55.013 L911.02,55.013 L911.02,1.003 L849.59,1.003 L849.59,206.263 L911.02,206.263 L911.02,99.963 L933.47,99.963 L960.97,55.013 L960.97,55.013 Z M670.556,55.013 L670.556,140.777 C670.442092,152.603798 660.822347,162.131339 648.995,162.131339 C637.167653,162.131339 627.547908,152.603798 627.434,140.777 L627.434,55.013 L566.011,55.013 L566.011,150.395 C566.011,183.315 593.011,210.003 626.322,210.003 C643.07705,210.03845 659.09556,203.119572 670.556,190.897 L670.556,206.26 L731.979,206.26 L731.979,55.013 L670.556,55.013 L670.556,55.013 Z" id="rezult-logotype" stroke="#000000" stroke-width="2" stroke-linecap="square" sketch:type="MSShapeGroup"></path>
    </g>
</svg>