<svg xmlns="http://www.w3.org/2000/svg" width="549.332" height="255.999" viewBox="0 0 412 192">
    <defs>
        <clipPath id="a">
            <circle cx="123" cy="69" r="68" fill="#eff3f7" stroke="#000" stroke-miterlimit="10" stroke-width="2"/>
        </clipPath>
    </defs>
    <title>
        step-2
    </title>
    <path d="M0 192l262-78 2-59 1 59 147 44-148-41z"/>
    <path d="M152.99 154.75l105.494-30.74 25.526 7.25-105.493 30.75z" fill="#fff" stroke="#000" stroke-linejoin="round" stroke-width="2"/>
    <circle cx="123" cy="69" r="68" fill="#eff3f7"/>
    <g clip-path="url(#a)">
        <path d="M147.625 67.82v.02l1.2.97h13.367c.624 4.34.45 7.13-.516 8.32a2.322 2.322 0 0 1-1.844.75c-.975.04-2.355-.04-3.818-.12-4.592-.25-9.794-.54-12.268 1.64-8.326 7.35-16.26 7.37-23.582.06-1.994-2-9.027-1.53-11.137-1.34l-1.113 1.21v13.21h-72.92v2.44h73.4l1.97-2.44V80.47c3.53-.22 7.352-.01 8.076.71 8.282 8.28 17.6 8.3 26.93.05 1.72-1.51 6.8-1.24 10.515-1.03 1.523.08 2.963.16 4.05.12a4.648 4.648 0 0 0 3.64-1.65c1.566-1.92 1.836-5.4.877-11.28l-1.206-1.03H149.85a49.16 49.16 0 0 1 .073-10.13c.026-.27-.312-2.15-.312-2.15L124.4 32.99H51.54v2.45h71.86l22 18.35H37.682v2.44h109.784a57.94 57.94 0 0 0-.227 8.51"/>
        <path d="M148.314 54.33l15.965 13.3-4.325-.29-12.665-10.5z"/>
    </g>
    <circle cx="123" cy="69" r="68" fill="none" stroke="#000" stroke-miterlimit="10" stroke-width="2"/>
    <path d="M147.178 100.3c18.663 6.52 29.81 14.64 38.977 21.33 2.205-2.88 3.376-3.75 5.982-7.65 5.24 14 9.75 22.06 11.37 32.47-10.558-3.38-19.118-5.77-29.89-8.38.667-1.13 2.544-5.05 4.02-6.25-8.224-9.4-18.967-14.7-36.423-21.58 2.222-3.31 2.824-5.29 6.572-9.05z" fill="red"/>
</svg>
