<svg xmlns="http://www.w3.org/2000/svg" width="145.7mm" height="206.668" viewBox="0 0 413.009 155">
    <title>
        step-7
    </title>
    <path d="M1.01 137l262-78 2-59 1 59 147 44-148-41z"/>
    <path d="M254.415 53.14c3.038-1.01 5.5 2.26 5.5 7.31-4.686 1.56-6.55 2.19-11 3.67 0-5.06 2.463-9.97 5.5-10.98z"/>
    <path d="M174.415 77.14c3.038-1.01 5.5 2.26 5.5 7.32-4.686 1.55-6.55 2.18-11 3.66 0-5.06 2.463-9.97 5.5-10.98z"/>
    <path d="M152.415 84.14c3.038-1.01 5.5 2.26 5.5 7.31-4.686 1.56-6.55 2.18-11 3.67 0-5.06 2.463-9.97 5.5-10.98z"/>
    <path d="M73.415 106.14c3.038-1.01 5.5 2.26 5.5 7.31-4.686 1.56-6.55 2.18-11 3.67 0-5.06 2.463-9.97 5.5-10.98z"/>
    <path d="M49.415 114.14c3.038-1.01 5.5 2.26 5.5 7.31-4.686 1.56-6.55 2.19-11 3.67 0-5.06 2.463-9.97 5.5-10.98z"/>
    <circle cx="286.509" cy="61.92" r="5.5"/>
    <path d="M159 89.75l105.493-30.74 25.526 7.25-105.494 30.75z" fill="#fff" stroke="#000" stroke-linejoin="round" stroke-width="2"/>
    <path d="M56 119.75l105.493-30.74 25.526 7.25-105.494 30.75z" fill="#fff" stroke="#000" stroke-linejoin="round" stroke-width="2"/>
    <path d="M1 135.75l58.493-16.74 25.526 7.25L30.01 141a13.453 13.453 0 0 0-13-2C8.49 142.24 1 135.75 1 135.75z" fill="#fff" stroke="#000" stroke-linejoin="round" stroke-width="2"/>
    <g fill="#fff" stroke="#000" stroke-linejoin="round" stroke-width="2">
        <path d="M233 80.75l53.493-15.74 25.526 7.25-53.494 15.75z"/>
        <path d="M130 110.75l105.493-30.74 25.526 7.25-105.494 30.75z"/>
        <path d="M27 140.75l105.493-30.74 25.526 7.25-105.494 30.75z"/>
    </g>
    <g>
        <circle cx="309.509" cy="68.92" r="5.5"/>
        <path d="M202 102.75l105.493-30.74 25.526 7.25-105.494 30.75z" fill="#fff" stroke="#000" stroke-linejoin="round" stroke-width="2"/>
        <path d="M99 132.75l105.493-30.74 25.526 7.25-105.494 30.75z" fill="#fff" stroke="#000" stroke-linejoin="round" stroke-width="2"/>
        <path d="M44 148.75l58.493-16.74 25.526 7.25L73.01 154a13.453 13.453 0 0 0-13-2c-8.52 3.24-16.01-3.25-16.01-3.25z" fill="#fff" stroke="#000" stroke-linejoin="round" stroke-width="2"/>
    </g>
    <g>
        <circle cx="330.509" cy="74.92" r="5.5"/>
        <path d="M276 93.75l53.493-15.74 25.526 7.25-53.494 15.75z" fill="#fff" stroke="#000" stroke-linejoin="round" stroke-width="2"/>
        <path d="M173 123.75l105.493-30.74 25.526 7.25-105.494 30.75z" fill="#fff" stroke="#000" stroke-linejoin="round" stroke-width="2"/>
        <path d="M230.61 115l22.67-7.1 3.41 1.6 3.32-4.5-11.752.76 3.41 1.61-22.66 7.11z" fill="red"/>
    </g>
</svg>
