<svg xmlns="http://www.w3.org/2000/svg" width="549.332" height="260.001" viewBox="0 0 412 195">
    <defs>
        <clipPath id="a">
            <circle cx="123" cy="72" r="68" fill="#eff3f7" stroke="#000" stroke-miterlimit="10" stroke-width="2"/>
        </clipPath>
    </defs>
    <title>
        step-3
    </title>
    <path d="M0 195l262-78 2-59 1 59 147 44-148-41z"/>
    <path d="M157.991 149.22l105.493-30.74 25.526 7.25-105.493 30.75z" fill="#fff" stroke="#000" stroke-linejoin="round" stroke-width="2"/>
    <circle cx="123" cy="72" r="68" fill="#eff3f7"/>
    <g clip-path="url(#a)">
        <path d="M240.013 47v-2.01H141.3l-2.047 1.78v9.49l.356.77 9.319 7.72-.7-.03c-5.4-.26-10.033-.33-11.917 1.34-6.808 6.05-13.295 6.06-19.281.04-1.63-1.63-7.38-1.25-9.1-1.1l-.91 1.01v12.24l-.02.01 20.459 17.37.136.35H257.8v-2.01H129.2v-9.93c2.886-.18 6.011 0 6.6.59 6.771 6.81 14.386 6.82 22.017.04 1.407-1.25 5.561-1.02 8.6-.85 1.245.07 2.423.14 3.312.1a3.8 3.8 0 0 0 2.975-1.35c1.28-1.58 1.5-4.44.718-9.29l-.986-.84h-10.943a40.633 40.633 0 0 1 .059-8.33H260V62.1h-98.982L143.173 47h96.84zM127.206 92.79l-18.19-15.39v-9.07l18.19 15.39v9.07zm44.376-18.34c.51 3.57.368 5.87-.422 6.85a1.9 1.9 0 0 1-1.508.61c-.8.03-1.925-.03-3.121-.09-3.755-.21-8.008-.45-10.03 1.35-6.807 6.04-13.294 6.06-19.281.04-1.556-1.56-6.86-1.29-8.839-1.12L110.4 66.88c2.429-.05 4.719.15 5.216.65 6.771 6.8 14.384 6.82 22.017.04 1.431-1.27 7.109-1.01 10.5-.85 1.314.06 2.45.12 3.3.1l8.24 6.82v.01l.977.8h10.932zM159.6 63.53a49.528 49.528 0 0 0-.243 7.58l-18.1-15.31v-7.39z"/>
        <path d="M117.079 49.14v.01l.728 1.04 10.554 2.97c-.477 3.58-1.239 5.76-2.267 6.48a1.893 1.893 0 0 1-1.623.18c-.779-.19-1.851-.55-2.988-.94-3.57-1.23-7.613-2.61-10.055-1.44-8.216 3.97-14.484 2.21-18.631-5.21-1.129-2.02-6.786-3.22-8.5-3.54l-1.15.71L80.2 59.86 22.62 43.6l-.546 1.94L80.026 61.9l2.1-1.5 2.7-9.56c2.835.62 5.807 1.64 6.217 2.37 4.69 8.4 12.04 10.49 21.251 6.04 1.7-.82 5.648.54 8.534 1.53 1.184.4 2.3.79 3.173.99a3.779 3.779 0 0 0 3.241-.49c1.664-1.17 2.656-3.86 3.214-8.73l-.724-1.09-10.572-2.98a40.453 40.453 0 0 1 2.322-8c.08-.21.235-1.78.235-1.78l-15.2-22.31L48.988.15l-.545 1.94 56.742 16.01 13.272 19.43-8.841-2.49-2.872-.81L33.4 13.53l-.546 1.93 75.689 21.36v.01l2.821.79 8.174 2.31a47.816 47.816 0 0 0-2.081 6.69"/>
        <path d="M120.636 38.61l9.633 14.09-3.348-1.19-7.653-11.14z"/>
    </g>
    <circle cx="123" cy="72" r="68" fill="none" stroke="#000" stroke-miterlimit="10" stroke-width="2"/>
    <circle cx="156" cy="11" r="11" fill="red"/>
    <g style="isolation:isolate" fill="#fff">
        <path d="M154.511 9.649l-1.46-.264a2.275 2.275 0 0 1 .849-1.305 3.1 3.1 0 0 1 1.787-.424 3.85 3.85 0 0 1 1.6.255 1.6 1.6 0 0 1 .742.647 3.317 3.317 0 0 1 .215 1.44l-.018 1.878a6.494 6.494 0 0 0 .078 1.183 3.442 3.442 0 0 0 .289.816H157q-.064-.16-.155-.475-.04-.144-.057-.189a2.907 2.907 0 0 1-.882.6 2.526 2.526 0 0 1-1 .2 2.073 2.073 0 0 1-1.48-.509 1.7 1.7 0 0 1-.541-1.289 1.729 1.729 0 0 1 .246-.919 1.609 1.609 0 0 1 .69-.619 5.389 5.389 0 0 1 1.28-.375 8.727 8.727 0 0 0 1.563-.4v-.154a.833.833 0 0 0-.229-.661 1.373 1.373 0 0 0-.865-.2 1.152 1.152 0 0 0-.67.169 1.174 1.174 0 0 0-.389.595zm2.153 1.306q-.31.1-.979.246a2.946 2.946 0 0 0-.876.281.671.671 0 0 0-.315.567.789.789 0 0 0 .252.584.879.879 0 0 0 .641.246 1.4 1.4 0 0 0 .831-.286 1.01 1.01 0 0 0 .384-.533 3.177 3.177 0 0 0 .063-.785v-.32z"/>
        <path d="M159.831 13.875v-1.609h1.609v1.609h-1.609z"/>
    </g>
    <path d="M179.364 168.16l29.891-9.53 4.5 2.16 4.382-6.04-15.494 1.02 4.5 2.16-29.892 9.53z" fill="red"/>
</svg>
