<svg xmlns="http://www.w3.org/2000/svg" width="638.668" height="234.667" viewBox="0 0 479 176">
    <defs>
        <clipPath id="a">
            <circle cx="168" cy="69" r="68" fill="#eef3f7" stroke="#000" stroke-miterlimit="10" stroke-width="2"/>
        </clipPath>
        <clipPath id="b">
            <circle cx="361" cy="69" r="68" fill="#eff3f7" stroke="#000" stroke-linejoin="round" stroke-width="2"/>
        </clipPath>
    </defs>
    <title>
        step-1
    </title>
    <path d="M0 176l262-78 2-59 1 59 147 44-148-41z"/>
    <circle cx="168" cy="69" r="68" fill="#eef3f7"/>
    <g clip-path="url(#a)">
        <path d="M195.625 71.82v.02l1.2.97h13.367c.623 4.34.45 7.13-.516 8.32a2.322 2.322 0 0 1-1.844.75c-.975.04-2.355-.04-3.818-.12-4.592-.25-9.794-.54-12.268 1.64-8.326 7.35-16.26 7.37-23.582.06-1.994-2-9.027-1.53-11.138-1.34l-1.112 1.21v13.21h-72.92v2.44h73.4l1.97-2.44V84.47c3.529-.22 7.352-.01 8.076.71 8.282 8.28 17.6 8.3 26.929.05 1.722-1.51 6.8-1.24 10.516-1.03 1.523.08 2.963.16 4.051.12a4.648 4.648 0 0 0 3.639-1.65c1.565-1.92 1.836-5.4.877-11.28l-1.206-1.03H197.85a49.159 49.159 0 0 1 .073-10.13c.026-.27-.312-2.15-.312-2.15L172.4 36.99H99.54v2.45h71.86l22 18.35H85.681v2.44h109.785a57.939 57.939 0 0 0-.227 8.51"/>
        <path d="M196.313 58.33l15.966 13.3-4.324-.29-12.665-10.5z"/>
    </g>
    <circle cx="168" cy="69" r="68" fill="none" stroke="#000" stroke-miterlimit="10" stroke-width="2"/>
    <g>
        <circle cx="361" cy="69" r="68" fill="#eff3f7"/>
        <g clip-path="url(#b)">
            <path d="M459.01 46v-2.01H360.3l-2.047 1.78v9.49l.356.77 9.319 7.72-.7-.03c-5.4-.26-10.033-.33-11.917 1.34-6.808 6.05-13.295 6.06-19.281.05-1.63-1.64-7.38-1.26-9.1-1.11l-.91 1.01v12.24l-.02.01 20.459 17.37.136.35H476.8v-2.01H348.2v-9.93c2.886-.18 6.011 0 6.6.59 6.771 6.81 14.386 6.82 22.017.04 1.407-1.25 5.561-1.02 8.6-.85 1.245.07 2.423.14 3.312.1a3.8 3.8 0 0 0 2.975-1.35c1.28-1.58 1.5-4.44.718-9.29l-.986-.84h-10.944a40.69 40.69 0 0 1 .06-8.33H479V61.1h-98.982L362.173 46h96.837zm-112.8 45.79L328.02 76.4v-9.07l18.19 15.39v9.07zm44.376-18.34c.51 3.57.368 5.87-.422 6.85a1.9 1.9 0 0 1-1.508.61c-.8.03-1.925-.03-3.121-.09-3.755-.21-8.008-.45-10.03 1.35-6.807 6.05-13.294 6.06-19.281.04-1.556-1.56-6.86-1.29-8.839-1.12L329.4 65.88c2.429-.05 4.719.15 5.216.65 6.771 6.8 14.384 6.82 22.017.04 1.431-1.27 7.109-1.01 10.5-.85 1.314.06 2.45.12 3.3.1l8.24 6.82a.078.078 0 0 1 0 .02l.977.79h10.936zM378.6 62.53a49.528 49.528 0 0 0-.243 7.58l-18.1-15.31v-7.39z"/>
        </g>
        <circle cx="361" cy="69" r="68" fill="none" stroke="#000" stroke-linejoin="round" stroke-width="2"/>
    </g>
</svg>
