<svg xmlns="http://www.w3.org/2000/svg" width="145.7mm" height="198.678" viewBox="0 0 413.009 149.01">
    <title>
        step-6
    </title>
    <path d="M1.01 137l262-78 2-59 1 59 147 44-148-41z"/>
    <path d="M254.415 53.14c3.038-1.01 5.5 2.26 5.5 7.32-4.686 1.55-6.55 2.18-11 3.66 0-5.06 2.463-9.97 5.5-10.98z"/>
    <path d="M174.415 77.14c3.038-1.01 5.5 2.26 5.5 7.32-4.686 1.55-6.55 2.18-11 3.66 0-5.06 2.463-9.97 5.5-10.98z"/>
    <path d="M152.415 84.14c3.038-1.01 5.5 2.26 5.5 7.31-4.686 1.56-6.55 2.19-11 3.67 0-5.06 2.463-9.97 5.5-10.98z"/>
    <path d="M73.415 106.14c3.038-1.01 5.5 2.26 5.5 7.31-4.686 1.56-6.55 2.19-11 3.67 0-5.06 2.463-9.97 5.5-10.98z"/>
    <path d="M49.415 114.14c3.038-1.01 5.5 2.26 5.5 7.32-4.686 1.55-6.55 2.18-11 3.66 0-5.06 2.463-9.97 5.5-10.98z"/>
    <circle cx="286.509" cy="61.92" r="5.5"/>
    <path d="M159 89.75l105.493-30.74 25.526 7.25-105.494 30.75z" fill="#fff" stroke="#000" stroke-linejoin="round" stroke-width="2"/>
    <path d="M56 119.75l105.493-30.74 25.526 7.25-105.494 30.75z" fill="#fff" stroke="#000" stroke-linejoin="round" stroke-width="2"/>
    <path d="M1 135.75l58.493-16.74 25.526 7.25L30.01 141a13.453 13.453 0 0 0-13-2C8.49 142.24 1 135.75 1 135.75z" fill="#fff" stroke="#000" stroke-linejoin="round" stroke-width="2"/>
    <g fill="#fff" stroke="#000" stroke-linejoin="round" stroke-width="2">
        <path d="M233 80.75l53.493-15.74 25.526 7.25-53.494 15.75z"/>
        <path d="M130 110.75l105.493-30.74 25.526 7.25-105.494 30.75z"/>
        <path d="M27 140.75l105.493-30.74 25.526 7.25-105.494 30.75z"/>
    </g>
    <g>
        <circle cx="309.509" cy="68.92" r="5.5"/>
        <path d="M202 102.75l105.493-30.74 25.526 7.25-105.494 30.75z" fill="#fff" stroke="#000" stroke-linejoin="round" stroke-width="2"/>
    </g>
    <path d="M94.077 104.04c21.6 15.89 51.378 19.99 78.79 17.37-.01 3.6.39 4.98.076 9.62 12.61-7.86 19.832-13.32 28.626-18.69-10.364-3.7-19.5-6.91-29.56-11.34a30.826 30.826 0 0 0 .324 7.28c-30.277 2.89-56.67-.61-77.024-16.65-.4 2.89-1.233 12.41-1.233 12.41z" fill="red"/>
</svg>
