<svg width="35" height="55" viewBox="0 0 35 55" xmlns="http://www.w3.org/2000/svg">
    <title>
        mouse
    </title>
    <g fill="#4A4A4A" fill-rule="evenodd">
        <path d="M17.5 52C9.492 52 3 45.508 3 37.5v-20C3 9.492 9.492 3 17.5 3S32 9.492 32 17.5v20C32 45.508 25.508 52 17.5 52zm0 3C27.165 55 35 47.165 35 37.5v-20C35 7.835 27.165 0 17.5 0S0 7.835 0 17.5v20C0 47.165 7.835 55 17.5 55zm0-43a1.5 1.5 0 0 1 1.5 1.5v4a1.5 1.5 0 0 1-3 0v-4a1.5 1.5 0 0 1 1.5-1.5zm0-1a2.5 2.5 0 0 0-2.5 2.5v4a2.5 2.5 0 1 0 5 0v-4a2.5 2.5 0 0 0-2.5-2.5z"/>
        <path d="M17.5 28.382l5.552-2.776.447-.224.224.447.448.894.224.447-.447.224-6 3-.447.224-.001-.002v.002l-.448-.224-6-3-.447-.224.224-.447.448-.894.224-.447.447.224 5.552 2.776z"/>
        <path d="M17.5 34.382l5.552-2.776.447-.224.224.447.448.894.224.447-.447.224-6 3-.447.224-.001-.002v.002l-.448-.224-6-3-.447-.224.224-.447.448-.894.224-.447.447.224 5.552 2.776z"/>
        <path d="M17.5 40.382l5.552-2.776.447-.224.224.447.448.894.224.447-.447.224-6 3-.447.224-.001-.002v.002l-.448-.224-6-3-.447-.224.224-.447.448-.894.224-.447.447.224 5.552 2.776z"/>
    </g>
</svg>
