<svg width="261" height="200" viewBox="0 0 261 200" xmlns="http://www.w3.org/2000/svg">
    <title>
        r-logo
    </title>
    <path d="M57.577 94.413H0V195.62h58.587V96.07l4.03 6.61 56.843 92.94h62.683l-44.253-72.377c29.55-9.9 47.488-39.846 42.272-70.57C174.947 21.948 148.132-.4 116.97.005H0l57.577 94.408zM260.89 170.41a29.294 29.294 0 1 1-29.294-28.958 29.1 29.1 0 0 1 29.294 28.96zM57.58 94.414l1.007 1.654-1.01-1.654h.003zm61.195-30.64a22.71 22.71 0 0 1-9.883 18.682L83.49 40.96h12.194c12.675-.074 23.01 10.137 23.09 22.812z" fill="#4A4A4A" fill-rule="evenodd"/>
</svg>
