<?xml version="1.0" encoding="UTF-8"?><!DOCTYPE svg PUBLIC "-//W3C//DTD SVG 1.1//EN" "http://www.w3.org/Graphics/SVG/1.1/DTD/svg11.dtd"><svg xmlns="http://www.w3.org/2000/svg"><symbol id="icon-arrow-right" viewBox="0 0 25 25">
    <title>
        arrow-right
    </title>
    <path d="M25 12.552l-12.38 12.38L9 21.312l6.377-6.377H0v-5h15.4L9 3.535 12.536 0l12.09 12.09-.043.044.418.418z" fill-rule="evenodd"/>
</symbol><symbol id="icon-border" viewBox="0 0 294 252">
    <title>
        border
    </title>
    <path d="M1 1h232l59 122-59 128H1V1z" stroke-width="2" fill-rule="evenodd"/>
</symbol><symbol id="icon-bubles" viewBox="0 0 90 65">
    <title>
        bubles
    </title>
    <path d="M51 7.483c11.7 9.964 11.7 26.144 0 36.022-9.9 8.43-24.9 9.708-36.3 4.002l-.1-.085c-4.5 2.896-9.4 3.407-12.7 2.98-1.1-.17-1.4-1.447-.3-1.873 3.1-1.278 5-3.833 6.2-5.962l-.3-.255c-10.4-10.05-10-25.377 1.3-34.915C20.3-2.48 39.3-2.48 51 7.483zM46.8 26c0-2-1.6-3.6-3.6-3.6S39.6 24 39.6 26s1.6 3.6 3.6 3.6 3.6-1.6 3.6-3.6zm-13.4 0c0-2-1.6-3.6-3.6-3.6S26.2 24 26.2 26s1.6 3.6 3.6 3.6 3.6-1.6 3.6-3.6zm-13.5 0c0-2-1.6-3.6-3.6-3.6S12.7 24 12.7 26s1.6 3.6 3.6 3.6 3.6-1.6 3.6-3.6zm15.905 28.75c.622.64 2.062 2.157 2.77 2.755 9.9 8.43 24.9 9.708 36.3 4.002 4.6 2.81 9.5 3.322 12.8 2.896 1.1-.17 1.4-1.448.3-1.874-3.1-1.278-5-3.833-6.2-5.962l.3-.255c10.4-10.05 10-25.377-1.3-34.915-4.58-3.934-12.06-6.777-18.085-7.572 4.525 12.217.63 23.62-4.934 29.575-5.563 5.958-10.957 9.77-21.95 11.35z" fill-rule="evenodd"/>
</symbol><symbol id="icon-call" viewBox="0 0 89 89">
    <title>
        call
    </title>
    <path d="M85.494 64.863c-.995-.79-9.346-7.275-14.714-11.44l-.044-.042c-.764-.762-2.124-1.235-3.552-1.235-1.105 0-3.204.282-4.81 2.19a1.15 1.15 0 0 0-.094.122c-.403.565-2.96 4.337-3.912 5.745l-.182.267-.316-.066c-6.39-1.315-14.677-9.247-17.066-11.646-6.315-6.348-11.115-13.15-12.84-18.203l-.118-.35.307-.207c2.322-1.56 5.005-3.376 5.643-3.832.1-.072.19-.153.276-.243 2.553-2.7 2.58-6.94.07-9.67l-.077-.088c-3.853-4.847-10.333-13.002-10.65-13.397l-.022-.03C22.287 1.416 20.303 0 18.05 0c-1.683 0-3.312.773-4.845 2.296l-.074.07c-3.817 3.323-9.78 8.517-10.624 9.262-.066.058-.13.122-.187.19-3.426 3.98-3.055 11.357 1.103 21.924C7.66 44.515 14.95 55.406 23.953 64.41c7.47 7.47 15.988 13.693 24.635 17.995 8.016 3.992 15.397 6.19 20.782 6.19 3.025 0 6.744-2.215 11.057-6.583 3.07-3.11 5.31-6.34 5.55-6.69a1.86 1.86 0 0 0 .167-.29c2.413-3.296 2.242-7.198-.46-9.998a2.578 2.578 0 0 0-.19-.17zm1.438-63.13A5.094 5.094 0 0 0 82.962.32l-21.36 2.272a5.097 5.097 0 0 0 .858 10.157l8.373-.96-15.93 16.495a5.095 5.095 0 1 0 7.206 7.206l15.158-15.693-.7 8.232a5.098 5.098 0 0 0 5.095 5.345c2.7 0 4.952-2.12 5.086-4.846l1.616-21.336a5.12 5.12 0 0 0 .1-1.312l.017-.233a5.103 5.103 0 0 0-1.55-3.918z" fill-rule="evenodd"/>
</symbol><symbol id="icon-close" viewBox="0 0 96 96">
    <title>
        close
    </title>
    <path d="M17.875 95.016l29.5-29.494 29.78 29.784 18.157-18.162-29.78-29.785 29.5-29.49L77.343.096 47.874 29.59 18.188 0 0 18.166l29.688 29.59L.218 77.25l17.657 17.766z" fill-rule="evenodd"/>
</symbol><symbol id="icon-do" viewBox="0 0 237 46">
    <title>
        do
    </title>
    <path d="M68.106 14.742l33.976 8.407-1.2 4.852s6.563 1.646 6.554 2.652c-.01 1.006.794 4.975-3.143 4.373-3.936-.6-7.035-.71-7.035-.71s-4.93 1.01-7.276.26c-2.344-.75-3.932-4.702-6.074-4.593-2.142.108-3.383 5.344-3.383 5.344l-16.502-4.084L0 15.404A124.697 124.697 0 0 1 8.527 0l59.58 14.742zM236.29 45.018H109.41s-3.283-2.95 0-4c3.283-1.05.27 1.696 5 2 6.395.41 10-3 10-3s9.167 1.84 10-2c.863-3.976-6.71-4.356-10-4-2.394-.647-1-6-1-6h108.462a124.05 124.05 0 0 1 4.418 17z" fill-rule="evenodd"/>
</symbol><symbol id="icon-dust" viewBox="0 0 106 100">
    <title>
        dust
    </title>
    <path d="M104.5 62a1 1 0 1 1 0-2 1 1 0 0 1 0 2zM98 93a4.5 4.5 0 1 1 0-9 4.5 4.5 0 0 1 0 9zm1.5-53a2 2 0 1 1 0-4 2 2 0 0 1 0 4zm-6-16a2 2 0 1 1 0-4 2 2 0 0 1 0 4zM86 70a1.5 1.5 0 1 1 0-3 1.5 1.5 0 0 1 0 3zm-4-37a.5.5 0 1 1 0-1 .5.5 0 0 1 0 1zm-3.5 22a3 3 0 1 1 0-6 3 3 0 0 1 0 6zm-2 39a2 2 0 1 1-4 0 2 2 0 0 1 4 0zM72 80a2.5 2.5 0 1 1 0-5 2.5 2.5 0 0 1 0 5zM69 8a.5.5 0 1 1 0-1 .5.5 0 0 1 0 1zm-3.5 44a1 1 0 1 1 0-2 1 1 0 0 1 0 2zm-4-18a4 4 0 1 1 0-8 4 4 0 0 1 0 8zM56 82a1.5 1.5 0 1 1 0-3 1.5 1.5 0 0 1 0 3zm-3-65a1.5 1.5 0 1 1 0-3 1.5 1.5 0 0 1 0 3zm-.5 36.5a2.5 2.5 0 1 1-5 0 2.5 2.5 0 0 1 5 0zm-4 41.5a1 1 0 1 1-2 0 1 1 0 0 1 2 0zm-3-60a1 1 0 1 1 0-2 1 1 0 0 1 0 2zm-2-33a1 1 0 1 1 0-2 1 1 0 0 1 0 2zM40 68a2.5 2.5 0 1 1 0-5 2.5 2.5 0 0 1 0 5zm.5-46a1 1 0 1 1 0-2 1 1 0 0 1 0 2zm-3 34a1 1 0 1 1 0-2 1 1 0 0 1 0 2zm1 25a2 2 0 1 1-4 0 2 2 0 0 1 4 0zm-7-41a1 1 0 1 1 0-2 1 1 0 0 1 0 2zM30 25a.5.5 0 1 1 0-1 .5.5 0 0 1 0 1zm.5 26.5a1.5 1.5 0 1 1-3 0 1.5 1.5 0 0 1 3 0zm-1 41.5a3 3 0 1 1-6 0 3 3 0 0 1 6 0zm-6-30a3 3 0 1 1 0-6 3 3 0 0 1 0 6zM26 37a.5.5 0 1 1 0-1 .5.5 0 0 1 0 1zm-4-20a1.5 1.5 0 1 1 0-3 1.5 1.5 0 0 1 0 3zm-.5 81.5a1.5 1.5 0 1 1-3 0 1.5 1.5 0 0 1 3 0zM15 49a1.5 1.5 0 1 1 0-3 1.5 1.5 0 0 1 0 3zM5.5 87a1 1 0 1 1 0-2 1 1 0 0 1 0 2zM2 67a1.5 1.5 0 1 1 0-3 1.5 1.5 0 0 1 0 3zm13 7a.5.5 0 1 1 0 1 .5.5 0 0 1 0-1zm8.5 0a1 1 0 1 1 0 2 1 1 0 0 1 0-2zm20-32a1 1 0 1 1 0 2 1 1 0 0 1 0-2zM50 69a.5.5 0 1 1 0 1 .5.5 0 0 1 0-1zm11-5a2.5 2.5 0 1 1 0 5 2.5 2.5 0 0 1 0-5z" fill-rule="evenodd"/>
</symbol><symbol id="icon-hint-error" viewBox="0 0 16 16">
    <title>
        hint-error
    </title>
    <path d="M8 0a8 8 0 1 1 0 16A8 8 0 0 1 8 0zM5.986 11.35l2-2 2 2 1.25-1.24-2-2.01 2-2-1.25-1.24-2 2.01-2-2.01-1.25 1.24 2 2-2 2.01 1.25 1.24z" fill-rule="evenodd"/>
</symbol><symbol id="icon-hint-info" viewBox="0 0 16 16">
    <title>
        hint-info
    </title>
    <path d="M8 0a8 8 0 1 1 0 16A8 8 0 0 1 8 0zm1 4.07a1 1 0 0 0-2 0 1.006 1.006 0 1 0 2 0zM7.146 13h1.707V6.29H7.146V13z" fill-rule="evenodd"/>
</symbol><symbol id="icon-kg" viewBox="0 0 110 152">
    <title>
        kg
    </title>
    <path d="M110 97.158c0 7.4-1.456 14.583-4.326 21.348a54.646 54.646 0 0 1-11.784 17.43 54.834 54.834 0 0 1-17.48 11.752C69.624 150.548 62.42 152 55 152c-7.423 0-14.627-1.45-21.41-4.312a54.816 54.816 0 0 1-17.48-11.75 54.633 54.633 0 0 1-11.786-17.43C1.454 111.74 0 104.557 0 97.157c0-17.093 9.857-27.275 13.384-33.993-1.083-5.977-1.232-12.316-1.232-17.3V30.958C12.152 13.887 26.037 0 43.105 0H66.9c17.067 0 30.953 13.887 30.953 30.957V45.87c0 4.98-.15 11.317-1.232 17.293C100.15 69.878 110 78.09 110 97.158zm-16.873-66.2C93.127 16.49 81.36 4.725 66.9 4.725H43.105c-14.462 0-26.228 11.766-26.228 26.23v14.91c0 5.842.24 12.36 1.476 18.067C14.78 70.143 5.53 81.843 5.53 97.158c-.002 27.245 22.148 49.328 49.47 49.328 27.32 0 49.47-22.086 49.47-49.328 0-15.54-9.245-27.026-12.82-33.225 1.237-5.7 1.477-12.222 1.477-18.062V30.958zm-20.3 22.31a4.34 4.34 0 0 1-1.457-.262 42.108 42.108 0 0 0-16.367-3.29 42.1 42.1 0 0 0-16.37 3.29c-.5.178-.984.26-1.45.26-3.17 0-5.515-10.825-6.213-15.085l-1.195-7.218c.005-7.353 5.982-13.33 13.335-13.33H66.9c7.342 0 13.333 5.977 13.333 13.33l-1.197 7.22c-.698 4.26-3.038 15.085-6.21 15.085zM66.9 22.357H43.11c-4.627 0-8.416 3.673-8.602 8.26l1.125 6.798c.37 2.257 1.21 10.57 1.665 11.028a46.683 46.683 0 0 1 17.705-3.454c6.13 0 12.084 1.163 17.707 3.456.452-.456 1.293-8.77 1.662-11.03v-.004l.002-.005 1.126-6.793c-.183-4.584-3.97-8.257-8.6-8.257zM46.687 97.172l5.412-6.187h3.602l-4.996 5.426 5.268 8.505h-3.467L48.86 98.38l-2.172 2.328v4.21h-2.68V90.985h2.68v6.187zm15.89 7.744c-1.29 0-2.313-.573-3.068-1.72-.59-.906-.887-2.033-.887-3.383 0-1.69.388-2.984 1.163-3.877.776-.893 1.74-1.34 2.892-1.34 1.188 0 2.17.548 2.94 1.644v-1.415H68v9.056c0 1.192-.092 2.083-.28 2.672-.186.59-.45 1.05-.786 1.387-.338.335-.79.598-1.353.788-.566.19-1.28.285-2.142.285-1.63 0-2.784-.293-3.466-.88-.682-.585-1.023-1.328-1.023-2.227 0-.09.002-.197.008-.324l2.905.37c.05.356.16.6.335.733.242.19.622.285 1.14.285.664 0 1.162-.105 1.494-.314.223-.14.392-.364.507-.674.077-.222.116-.63.116-1.226v-1.473c-.76 1.09-1.72 1.634-2.878 1.634zm2.924-5.188c0-1.047-.206-1.822-.616-2.33-.41-.506-.93-.76-1.556-.76-.61 0-1.112.25-1.507.746-.396.498-.593 1.256-.593 2.276 0 1.07.197 1.855.593 2.352.395.498.882.746 1.46.746.623 0 1.148-.255 1.576-.765.427-.51.642-1.265.642-2.266z" fill-rule="evenodd"/>
</symbol><symbol id="icon-letter-dot" viewBox="0 0 62 210">
    <title>
        letter-dot
    </title>
    <path d="M61.423 179.354A30.712 30.712 0 1 1 30.713 149c16.86-.097 30.61 13.492 30.71 30.354z" fill-rule="evenodd"/>
</symbol><symbol id="icon-letter-e" viewBox="0 0 169 210">
    <title>
        letter-e
    </title>
    <path d="M84.26 168.094c-17.3 0-24.682-11.874-24.682-26.523h108a77.58 77.58 0 0 0 .94-12.023c0-44.485-37.725-80.547-84.26-80.547C37.726 49 0 85.062 0 129.547s37.725 80.523 84.26 80.523c34.554-.643 60.765-14.25 78.633-40.824l-50.2-20.424c-3.35 6.328-7.14 11.122-11.37 14.38-4.238 3.268-10.38 4.892-17.062 4.892zm-22.132-59.35c.14-12.122 10.01-21.875 22.132-21.875 12.124 0 21.992 9.752 22.133 21.875H62.128z" fill-rule="evenodd"/>
</symbol><symbol id="icon-letter-l" viewBox="0 0 62 210">
    <title>
        letter-l
    </title>
    <path d="M61.425 205.257H0V0h61.425v205.26-.003z" fill-rule="evenodd"/>
</symbol><symbol id="icon-letter-r" viewBox="0 0 191 210">
    <title>
        letter-r
    </title>
    <path d="M60.337 98.94H0V205h61.397V100.676l4.224 6.926L125.19 205h65.688L144.5 129.152c30.968-10.374 49.766-41.756 44.3-73.954C183.336 23 155.235-.42 122.58.006H0L60.337 98.94zm.004 0l1.057 1.733-1.06-1.734h.004zm64.13-32.11a23.797 23.797 0 0 1-10.357 19.578l-26.62-43.483h12.78c13.28-.08 24.114 10.622 24.197 23.904z" fill-rule="evenodd"/>
</symbol><symbol id="icon-letter-t" viewBox="0 0 112 210">
    <title>
        letter-t
    </title>
    <path d="M61.43 54.01V0H0v205.26h61.43V98.96h22.45l27.5-44.95H61.43z" fill-rule="evenodd"/>
</symbol><symbol id="icon-letter-u" viewBox="0 0 166 210">
    <title>
        letter-u
    </title>
    <path d="M104.545 55v85.764c-.114 11.827-9.734 21.354-21.56 21.354-11.828 0-21.448-9.527-21.562-21.354V55H0v95.382c0 32.92 27 59.608 60.31 59.608a60.462 60.462 0 0 0 44.235-19.106v15.363h61.423V55h-61.423z" fill-rule="evenodd"/>
</symbol><symbol id="icon-letter-z" viewBox="0 0 154 210">
    <title>
        letter-z
    </title>
    <path d="M153.87 55H3.63v44.95h69.027L0 172.92v32.984h153.87v-44.95H82.7l71.17-71.51V55z" fill-rule="evenodd"/>
</symbol><symbol id="icon-loader" viewBox="0 0 157 122">
    <title>
        loader
    </title>
    <path d="M156.97 60.6v5.727c0 1.298-.69 2.435-1.722 3.065v4.48a3.59 3.59 0 0 1-3.59 3.588H105.95a3.59 3.59 0 0 1-3.59-3.59v-4.087a3.587 3.587 0 0 1-2.63-3.458V60.6c0-1.65 1.114-3.04 2.63-3.46V50.09a3.588 3.588 0 0 1-2.63-3.458v-5.728a3.586 3.586 0 0 1 2.63-3.456V33.52a3.588 3.588 0 0 1 3.59-3.587h45.708a3.588 3.588 0 0 1 3.59 3.587v4.32a3.592 3.592 0 0 1 1.72 3.064v5.728a3.59 3.59 0 0 1-1.72 3.064v7.84a3.59 3.59 0 0 1 1.72 3.064zm-51.02 13.273h45.708V66.55H105.95v7.323zM151.66 33.52H105.95v6.854h45.708V33.52zm1.72 28.026h-23.716a.514.514 0 0 1-.514-.513c0-.282.23-.513.514-.513h21.994V47.206H131.33a.513.513 0 0 1 0-1.026h22.05V41.4h-50.06v4.78h20.05c.284 0 .515.23.515.513 0 .283-.23.513-.514.513h-17.42V60.52h8.545a.514.514 0 0 1 0 1.026H103.32v3.978h50.06v-3.978zm-36.64-1.026h1.07a.514.514 0 0 1 0 1.026h-1.07a.513.513 0 0 1 0-1.026zm9.084-14.34h.895c.28 0 .513.23.513.513a.515.515 0 0 1-.513.513h-.895a.513.513 0 0 1 0-1.026zm15.16 35.998c0 .99-.805 1.793-1.794 1.793H97.153V94.348c0 .252-.054.492-.15.71-.017.042-.052.074-.075.112-.09.172-.197.336-.337.47-.008.007-.01.018-.016.026-.053.05-.122.067-.177.105-.127.095-.25.188-.403.245-.106.04-.216.044-.328.065-.105.02-.2.063-.307.063-.03 0-.05-.016-.08-.016-.024-.003-.045.01-.07.007-.37-.028-.74-.056-1.123-.056-7.113 0-12.958 5.332-13.595 12.41a1.792 1.792 0 0 1-1.787 1.634H28.728c-.93 0-1.705-.71-1.787-1.635-.638-7.075-6.482-12.41-13.596-12.41a13.608 13.608 0 0 0-9.122 3.517 1.79 1.79 0 0 1-1.775.365 1.79 1.79 0 0 1-1.19-1.364c-1.13-5.955-4.046-25.817 5.86-31.42 2.65-1.498 5.716-2.196 9.648-2.196 1.187 0 7.184.06 8.643.192l1.768-50.425a1.795 1.795 0 0 1 1.78-1.563H69.64c.79 0 1.482.512 1.714 1.266l14.734 47.763h7.48V1.793a1.793 1.793 0 0 1 3.585 0v78.59h42.035c.99 0 1.794.806 1.794 1.795zM93.565 65.802h-6.372l6.363 20.63h.01v-20.63zm.002 24.47l-11.49-2.36a.516.516 0 0 1-.46-.563c.03-.28.298-.446.565-.458l8.312 1.706c-.023-.054-.055-.103-.073-.16L83.44 65.802l-1.104-3.59-14.017-45.44h-37.78l-1.79 50.59a1.798 1.798 0 0 1-1.983 1.554c-2.1-.24-8.498-.35-9.997-.35-3.286 0-5.793.55-7.882 1.734C3.208 73.51 2.81 85.064 4.3 95.066a17.165 17.165 0 0 1 9.046-2.577c8.423 0 15.443 5.93 16.944 14.043h46.855c1.47-7.944 8.23-13.796 16.422-14.037V90.27zM79.75 81.648L36.14 62.752a2.56 2.56 0 0 1-1.544-2.35V24.01a2.563 2.563 0 0 1 2.564-2.562h25.24a2.57 2.57 0 0 1 2.432 1.754L83.2 78.488c.32.96.045 2.017-.702 2.697a2.548 2.548 0 0 1-1.728.673c-.346 0-.69-.07-1.02-.21zM62.398 24.01h-25.24V60.4L80.77 79.297 62.397 24.01zM55.73 39.782a.513.513 0 1 1 .917.463l-9.29 18.447a.512.512 0 0 1-.69.227.51.51 0 0 1-.226-.69l9.29-18.448zM46.9 54.988a.51.51 0 0 1-.46-.738l9.93-20.262a.513.513 0 0 1 .922.45L47.36 54.7a.513.513 0 0 1-.462.288zM59.67 84.57l14.36 1.476a.514.514 0 0 1-.052 1.022h-.05l-14.512-1.493a.485.485 0 0 1-.272-.112c-13.712-11.05-20.962-15.12-28.596-16.59a.514.514 0 0 1-.405-.6c.056-.28.32-.468.6-.404 7.725 1.484 15.1 5.59 28.928 16.7zm16.883 1.668c.3-.032.532.138.57.417l.006.06a.51.51 0 0 1-.51.575.513.513 0 0 1-.507-.45c-.036-.28.16-.566.44-.602zm1.943.277l1.822.215a.514.514 0 0 1-.06 1.022c-.022 0-.04-.003-.062-.005l-1.82-.216a.51.51 0 0 1-.45-.566.526.526 0 0 1 .57-.45zM12.872 99.793c6.134 0 11.107 4.972 11.107 11.103C23.98 117.03 19.005 122 12.87 122c-6.135 0-11.11-4.97-11.11-11.104 0-6.13 4.975-11.103 11.11-11.103zm0 14.944c2.118 0 3.84-1.72 3.84-3.84a3.844 3.844 0 0 0-3.84-3.84 3.845 3.845 0 0 0-3.844 3.84c0 2.12 1.723 3.84 3.844 3.84zm0-6.19a2.35 2.35 0 1 1 0 4.7 2.35 2.35 0 0 1 0-4.7zm81.333-8.754c6.135 0 11.11 4.972 11.11 11.103 0 6.133-4.973 11.104-11.11 11.104-6.133 0-11.107-4.97-11.107-11.104 0-6.13 4.972-11.103 11.107-11.103zm0 14.944c2.12 0 3.844-1.72 3.844-3.84a3.845 3.845 0 0 0-3.845-3.84 3.844 3.844 0 0 0-3.84 3.84c0 2.12 1.72 3.84 3.84 3.84zm0-6.19a2.35 2.35 0 1 1 .002 4.7 2.35 2.35 0 0 1-.002-4.7z" fill-rule="evenodd"/>
</symbol><symbol id="icon-mouse" viewBox="0 0 35 55">
    <title>
        mouse
    </title>
    <g>
        <path d="M17.5 52A14.5 14.5 0 0 1 3 37.5v-20a14.5 14.5 0 0 1 29 0v20A14.5 14.5 0 0 1 17.5 52zm0 3A17.5 17.5 0 0 0 35 37.5v-20a17.5 17.5 0 0 0-35 0v20A17.5 17.5 0 0 0 17.5 55zm0-43a1.5 1.5 0 0 1 1.5 1.5v4a1.5 1.5 0 1 1-3 0v-4a1.5 1.5 0 0 1 1.5-1.5zm0-1a2.5 2.5 0 0 0-2.5 2.5v4a2.5 2.5 0 1 0 5 0v-4a2.5 2.5 0 0 0-2.5-2.5z"/>
        <path class="icon-mouse__arrow" d="M17.5 28.382l5.552-2.776.447-.223.223.447.448.894.23.446-.448.224-6 3-.447.223-.447-.223-6-3-.458-.224.224-.447.448-.894.224-.448.447.223z"/>
        <path class="icon-mouse__arrow" d="M17.5 34.382l5.552-2.776.447-.223.223.447.448.894.23.446-.448.224-6 3-.447.223-.447-.223-6-3-.458-.224.224-.447.448-.894.224-.448.447.223z"/>
        <path class="icon-mouse__arrow" d="M17.5 40.382l5.552-2.776.447-.223.223.447.448.894.23.446-.448.224-6 3-.447.223-.447-.223-6-3-.458-.224.224-.447.448-.894.224-.448.447.223z"/>
    </g>
</symbol><symbol id="icon-play" viewBox="0 0 28 36">
    <title>
        play
    </title>
    <path d="M27.685 18L0 36V0l27.685 18z" fill-rule="evenodd"/>
</symbol><symbol id="icon-r-dot-o" viewBox="0 0 271 210">
    <title>
        r-dot-o
    </title>
    <path d="M239.162 209.306c-17.556 0-31.84-14.09-31.84-31.407 0-17.318 14.284-31.407 31.84-31.407 17.555 0 31.838 14.09 31.838 31.406 0 17.317-14.283 31.406-31.838 31.406zm0-59.855c-15.92 0-28.874 12.763-28.874 28.45 0 15.686 12.953 28.448 28.874 28.448 15.92 0 28.873-12.762 28.873-28.45 0-15.685-12.952-28.447-28.873-28.447zm-45.115 55.962h-68.443l-60.77-99.08v99.08H1.158V97.88h58.51L0 .306h123.856c37.44 0 67.9 30.036 67.9 66.956 0 27.932-17.61 52.89-44.005 62.673l46.297 75.477zm-66.78-2.958h61.49l-45.454-74.105 1.752-.597c26.16-8.905 43.734-33.215 43.734-60.49 0-35.29-29.13-64-64.934-64H5.28l56.59 92.54V95.8l6.927 11.33 58.47 95.324zm-123.144 0H61.87V100.838H4.123v101.616zM115.04 89.127L86.514 42.625h15.282c14.01 0 25.408 11.245 25.408 25.066 0 8.17-4.065 15.85-10.876 20.548l-1.29.89zM91.805 45.583l24.098 39.286c5.246-4.188 8.336-10.5 8.336-17.18 0-12.19-10.068-22.107-22.443-22.107h-9.99z" fill-rule="evenodd"/>
</symbol><symbol id="icon-r-logo" viewBox="0 0 280 220">
    <title>
        r-logo
    </title>
    <path d="M66.337 104.94H6V211h61.397V106.676l4.224 6.926L131.19 211h65.688L150.5 135.152c30.968-10.374 49.766-41.756 44.3-73.954C189.336 29 161.235 5.58 128.58 6.006H6l60.337 98.933zm64.133-32.11a23.797 23.797 0 0 1-10.357 19.578l-26.62-43.483h12.78c13.28-.08 24.114 10.622 24.197 23.904zm144.953 112.524A30.712 30.712 0 1 1 244.713 155c16.86-.097 30.61 13.492 30.71 30.354z" fill-rule="evenodd"/>
</symbol><symbol id="icon-radio" viewBox="0 0 42 82">
    <title>
        radio
    </title>
    <g>
        <path d="M17.4 20.447a1.292 1.292 0 0 1 2.584 0v13.49a1.9 1.9 0 0 1 .645 1.42v11.66a9.223 9.223 0 0 1 4.21 1.89 1.894 1.894 0 0 1 .567 1.355v19.17a14.97 14.97 0 0 1-1.552 6.18C22.378 78.716 18.848 82 12.885 82h-.177c-6.072.064-9.654-3.25-11.157-6.385A15 15 0 0 1 0 69.432v-19.17a1.914 1.914 0 0 1 .567-1.357c.48-.474 3.226-2.694 12.14-2.688 1.528 0 2.864.068 4.05.177V35.356a1.9 1.9 0 0 1 .647-1.42v-13.49zm-4.7 29.6c-5.192 0-7.758.8-8.83 1.283v18.1s0 .08.017.318.052.6.127 1.03a10.982 10.982 0 0 0 1 3.114c1.194 2.192 2.992 4.2 7.692 4.266 4.13-.047 5.97-1.617 7.222-3.45a11.13 11.13 0 0 0 1.592-4.958 2.433 2.433 0 0 0 .014-.318v-18.1a8.246 8.246 0 0 0-.83-.32 26.122 26.122 0 0 0-8-.963zm-4.5 10.08h9.13v2.733H8.208v-2.73zm0-5.467h9.13v2.74H8.208v-2.735z"/>
        <path class="icon-radio__signal" d="M28.77 17.563a10.963 10.963 0 0 1-4.354 11.982 1.307 1.307 0 0 1-1.8-.313 1.27 1.27 0 0 1 .316-1.78 8.474 8.474 0 0 0 3.66-6.936 8.364 8.364 0 0 0-.313-2.27 8.55 8.55 0 0 0-7.674-6.19 1.28 1.28 0 1 1 .173-2.552 11.137 11.137 0 0 1 9.987 8.057z"/>
        <path class="icon-radio__signal" d="M35.1 15.824a17.322 17.322 0 0 1-3.037 15.384 1.3 1.3 0 0 1-1.812.237 1.266 1.266 0 0 1-.237-1.793A14.894 14.894 0 0 0 23.53 6.568a1.277 1.277 0 0 1-.73-1.656 1.3 1.3 0 0 1 1.674-.726A17.564 17.564 0 0 1 35.1 15.824z"/>
        <path class="icon-radio__signal" d="M39.172 31.657a1.3 1.3 0 0 1-1.747.527 1.27 1.27 0 0 1-.536-1.73 21.008 21.008 0 0 0-7.878-28.08 1.267 1.267 0 0 1-.445-1.75A1.3 1.3 0 0 1 30.34.18a23.66 23.66 0 0 1 10.774 14 23.428 23.428 0 0 1-1.942 17.48z"/>
    </g>
</symbol><symbol id="icon-rezult-logotype" viewBox="0 0 1003 212">
    <title>
        rezult-logotype
    </title>
    <path d="M62.366 99.964L2 1h122.635c37.11 0 67.192 29.732 67.192 66.41-.1 28.453-18.296 53.688-45.26 62.772l46.403 75.845h-65.727l-59.593-97.4-4.227-6.93v104.33H2V99.963h60.366zM821.5 206.26h-61.425V1.003H821.5v205.26-.003zm180.5-26.638a30.712 30.712 0 1 1-30.71-30.353c16.862-.098 30.61 13.49 30.71 30.352zM126.523 67.845a23.8 23.8 0 0 1-10.357 19.605L89.534 43.922h12.784c13.29-.077 24.126 10.633 24.204 23.923zM287.16 168.027c-17.3 0-24.682-11.874-24.682-26.523h108a77.58 77.58 0 0 0 .94-12.024c0-44.485-37.725-80.547-84.26-80.547-46.533 0-84.258 36.062-84.258 80.547s37.725 80.523 84.26 80.523c34.554-.643 60.765-14.25 78.633-40.824l-50.2-20.425c-3.35 6.328-7.14 11.122-11.37 14.38-4.238 3.268-10.38 4.892-17.062 4.892zm-22.132-59.35c.14-12.122 10.01-21.875 22.132-21.875 12.124 0 21.992 9.753 22.133 21.876h-44.265zM542.17 55.014H391.93v44.95h69.027l-72.657 72.97v32.984h153.87v-44.95H471l71.17-71.51V55.013zm368.85 0V1.003h-61.43v205.26h61.43v-106.3h22.45l27.5-44.95h-49.95zm-240.464 0v85.764c-.114 11.827-9.734 21.354-21.56 21.354-11.828 0-21.448-9.526-21.562-21.353V55.013H566.01v95.382c0 32.92 27 59.608 60.312 59.608a60.462 60.462 0 0 0 44.234-19.106v15.363h61.423V55.013h-61.424z" stroke-width="2" stroke-linecap="square" fill-rule="evenodd"/>
</symbol><symbol id="icon-sound-0" viewBox="0 0 122 100">
    <title>
        sound-0
    </title>
    <path d="M94.952 50.04L80 35.082l5.958-5.966 14.958 14.96 14.71-14.702 5.874 5.892-14.702 14.694 14.952 14.957-5.958 5.966-14.958-14.96-14.71 14.702-5.874-5.892L94.952 50.04zM17.542 75H.875V25h16.667L59.208 0v100L17.542 75zm-8.334-8.333h8.334V33.333H9.208v33.334zm16.667 0L50.833 84.32V16.06l-24.958 13.11v37.5z" fill-rule="evenodd"/>
</symbol><symbol id="icon-sound-100" viewBox="0 0 105 100">
    <title>
        sound-100
    </title>
    <path d="M16.667 75l41.666 25V0L16.667 25H0v50h16.667zM75 33.333h8.333v33.334H75V33.333zM25 66.667L49.958 84.32V16.06L25 29.168v37.5zm-16.667 0h8.334V33.333H8.333v33.334zm87.5-45.834h8.334v58.334h-8.334V20.833z" fill-rule="evenodd"/>
</symbol><symbol id="icon-sound-50" viewBox="0 0 85 100">
    <title>
        sound-50
    </title>
    <path d="M17.52 75H.855V25H17.52L59.19 0v100L17.52 75zm8.334-8.333L50.813 84.32V16.06l-24.96 13.11v37.5zm-16.666 0h8.333V33.333H9.19v33.334zm66.666-33.334h8.334v33.334h-8.334V33.333z" fill-rule="evenodd"/>
</symbol><symbol id="icon-sound" viewBox="0 0 59 100">
    <title>
        sound
    </title>
    <path d="M16.667 75H0V25h16.667L58.333 0v100L16.667 75zm-8.334-8.333h8.334V33.333H8.333v33.334zm16.667 0L49.958 84.32V16.06L25 29.168v37.5z" fill-rule="evenodd"/>
</symbol><symbol id="icon-squares" viewBox="0 0 56 56">
    <title>
        squares
    </title>
    <path d="M30 56V30h26v26H30zm0-56h26v26H30V0zm2 24h22V2H32v22zM0 30h26v26H0V30zM0 0h26v26H0V0z" fill-rule="evenodd"/>
</symbol><symbol id="icon-tag-o" viewBox="0 0 16 23">
    <title>
        tag-o
    </title>
    <path d="M8 22.72c-.933 0-4.356-5.658-4.356-5.75C2.31 14.72 0 10.53 0 8a8 8 0 0 1 16 0c0 2.576-2.267 6.716-3.644 8.97 0 .092-3.423 5.75-4.356 5.75zM8 .64A7.26 7.26 0 0 0 .89 8c0 3.864 5.82 12.42 7.11 13.708C9.29 20.42 15.11 11.864 15.11 8A7.26 7.26 0 0 0 8 .64zm0 11.5A4.142 4.142 0 1 1 12 8a4.055 4.055 0 0 1-4 4.14zm0-7.36A3.222 3.222 0 1 0 11.11 8 3.148 3.148 0 0 0 8 4.78z" fill-rule="evenodd"/>
</symbol><symbol id="icon-tag" viewBox="0 0 16 23">
    <title>
        tag
    </title>
    <path d="M8 22.72c-.933 0-4.356-5.658-4.356-5.75C2.31 14.72 0 10.53 0 8a8 8 0 0 1 16 0c0 2.576-2.267 6.716-3.644 8.97 0 .092-3.423 5.75-4.356 5.75zM8 4.78A3.222 3.222 0 1 0 11.11 8 3.148 3.148 0 0 0 8 4.78z" fill-rule="evenodd"/>
</symbol><symbol id="icon-wood-log" viewBox="0 0 171 83">
    <title>
        wood-log
    </title>
    <path d="M171 60.16c0 12.593-10.142 22.838-22.6 22.84H22.6C10.136 83 0 72.755 0 60.16s10.136-22.84 22.598-22.84h4.184a22.89 22.89 0 0 1-5.137-14.484C21.645 10.246 31.78 0 44.245 0h84.57c12.463 0 22.602 10.245 22.602 22.836 0 5.343-1.807 10.41-5.125 14.484h2.108c12.458 0 22.6 10.247 22.6 22.84zm-8.544-15.298c-4.26-.563-9.958 1.822-14.562 3.77-1.203.51-2.344.987-3.388 1.39-4.13 1.594-18.487 5.526-24.755 5.526-6.757 0-16.772-1.94-23.29-4.512-4.694-1.854-10.643-2.983-13.812-3.498a22.866 22.866 0 0 1 3.78 12.622c0 .98-.08 1.937-.198 2.884 3.184.453 14.39 1.94 26.073 2.158 14.075.255 43.108-4.26 56.626-7.544a20.89 20.89 0 0 0-6.474-12.796zM148.4 81.07c7.13 0 13.433-3.667 17.153-9.23-2.166 1.065-5.254 2.03-10.77 2.53-4.73.426-10.582.305-17.99.15-5.873-.12-12.537-.26-20.09-.146-11.692.172-19.32 4.31-22.765 6.695H148.4zm-57.626 0c1.623-1.45 10.192-8.392 25.903-8.626 7.604-.11 14.263.027 20.157.15 7.35.152 13.162.273 17.78-.146 7.906-.712 10.477-2.408 12.732-3.91a20.992 20.992 0 0 0 1.748-8.378c0-.186-.022-.365-.028-.55-13.365 3.21-41.06 7.53-55.59 7.53-.415 0-.816-.003-1.205-.01-11.825-.217-23.166-1.728-26.346-2.183-1.536 7.238-6.474 13.207-13.034 16.122h17.884zm-6.256-20.91c0-11.53-9.282-20.908-20.69-20.908-1.52 0-2.996.176-4.423.49l-.004.005-.18.044c-.03.01-.062.018-.092.026a20.2 20.2 0 0 0-2.426.74c-.067.024-.132.047-.196.072a20.565 20.565 0 0 0-4.61 2.48c-.026.018-.047.035-.07.053-.674.49-1.32 1.022-1.936 1.592a20.957 20.957 0 0 0-5.78 9.082c-.064.205-.112.416-.17.622-.11.393-.217.79-.305 1.192-.053.244-.097.49-.142.736-.072.403-.135.81-.185 1.223-.028.215-.057.432-.076.65-.055.626-.095 1.26-.095 1.903s.038 1.277.095 1.905c.02.217.05.434.076.65.05.412.11.82.185 1.222.045.245.09.49.142.735.09.4.194.795.304 1.187.058.208.108.42.172.628 2.662 8.444 10.492 14.58 19.715 14.583 11.41 0 20.69-9.38 20.69-20.91zm8.103-22.84c-1.44-.215-2.88-.43-4.283-.643-4.616-.7-8.976-1.357-11.292-1.57-5.138-.484-12.04-.13-13.787-.024a22.687 22.687 0 0 1-1.69 2.354c.744-.077 1.5-.117 2.262-.117h28.79zm-46.137 8.225c-.752.08-1.5.135-2.238.135a22.42 22.42 0 0 1-4.598-.478 22.808 22.808 0 0 1 3.566 5.646 23.005 23.005 0 0 1 3.27-5.303zM54.77 81.07c-5.13-2.28-9.258-6.43-11.553-11.594-2.318 5.262-6.452 9.348-11.52 11.593h23.074zM22.6 39.25c-11.41 0-20.693 9.377-20.693 20.908 0 11.53 9.284 20.91 20.69 20.91 8.935 0 16.78-5.72 19.613-14.255a23.12 23.12 0 0 1-.467-1.843c-.046-.22-.082-.442-.122-.663a23.17 23.17 0 0 1-.215-1.435 22.98 22.98 0 0 1-.177-2.717c0-.69.042-1.378.104-2.064.02-.22.046-.44.073-.658.057-.475.13-.945.214-1.415.04-.226.077-.454.125-.68.133-.613.283-1.228.465-1.833a20.88 20.88 0 0 0-6.55-9.55 22.433 22.433 0 0 1-2.646-1.324c-.167-.096-.327-.2-.49-.302-.7-.43-1.377-.897-2.025-1.402-.094-.073-.2-.127-.292-.202a20.327 20.327 0 0 0-7.608-1.474zm21.645-37.32c-11.41 0-20.69 9.378-20.693 20.904 0 6.647 3.093 12.564 7.89 16.398a20.228 20.228 0 0 0 2.087 1.46c.144.088.284.18.428.264.802.465 1.63.884 2.49 1.24a20.383 20.383 0 0 0 7.795 1.552c1.446 0 2.936-.17 4.43-.5.052-.047.11-.084.16-.13.64-.576 1.308-1.12 2.01-1.62l.04-.03a22.418 22.418 0 0 1 4.823-2.597c.082-.032.167-.06.25-.092.77-.29 1.56-.538 2.37-.744.05-.01.097-.034.146-.046 4.17-3.997 6.464-9.365 6.464-15.152 0-11.526-9.28-20.907-20.69-20.907zm14.085 0c2.153 1.015 4.775 2.39 7.096 4.008 4.216 2.938 7.722 2.905 11.112 2.884l.93-.006c3.57 0 10.187-1.042 14.66-2.728 1.607-.607 3.518-1.542 5.536-2.533a145.276 145.276 0 0 1 3.395-1.626H58.33zm70.48.003H107.17c-1.81 0-5.46 1.786-8.672 3.36-1.97.968-4.007 1.964-5.704 2.603C88.12 9.66 81.2 10.752 77.465 10.752l-.914.003c-.316.002-.64.004-.962.004-3.276 0-6.96-.245-11.245-3.232-4.315-3.01-9.923-5.23-10.877-5.597v.003H53.3c7.477 3.32 12.83 10.612 13.458 19.22 3.06-.14 12.955-.383 18.94 1.98 6.735 2.654 19.77 5.36 25.832 5.36 5.77 0 17.537-4.8 21.107-7.253 3.24-2.217 9.903-5.608 15.66-5.364-2.848-8.108-10.496-13.94-19.486-13.94zm20.693 20.903c0-1.71-.226-3.366-.61-4.958-5.397-.568-12.22 2.926-15.182 4.954-3.682 2.53-15.86 7.586-22.18 7.586-6.356 0-19.492-2.72-26.522-5.495-5.588-2.202-15.26-1.968-18.176-1.84-.038 3.5-.904 6.918-2.45 10.01 2.75-.135 8.357-.323 12.838.093 2.37.22 6.555.853 11.4 1.584 7.543 1.14 16.097 2.433 20.25 2.535.338.01.69.013 1.045.015h.652c6.623-.03 15.51-1.177 19.872-3.154 3.987-1.807 12.712-5.19 18.275-5.63.513-1.833.792-3.746.788-5.7zm-1.46 7.716c-4.66.576-11.743 3.074-16.823 5.372-1.157.524-2.596.99-4.2 1.394h16.704a20.864 20.864 0 0 0 4.32-6.766zm-75.152 8.698a22.7 22.7 0 0 1 8.103 6.088c1.733.234 9.884 1.42 16.162 3.9 6.328 2.495 16.047 4.377 22.596 4.377 6.058 0 20.04-3.838 24.078-5.395 1.024-.396 2.15-.87 3.33-1.373 3.96-1.67 8.688-3.643 12.896-3.952a20.42 20.42 0 0 0-11.654-3.646H72.89zm34.28-17.823c-5.338 0-13.774-3.58-14.135-3.728l-1.93-.826 1.88-.93c.34-.168 8.33-4.077 14.43-4.077l.385.003c6.124.175 13.576 3.915 13.89 4.074l1.882.954-1.947.802c-.375.153-9.128 3.727-14.454 3.727zm.58-7.63l-.334-.005c-3.885 0-8.802 1.81-11.525 2.958 2.823 1.058 7.865 2.748 11.283 2.748 3.443 0 8.69-1.714 11.6-2.772-2.594-1.11-7.178-2.818-11.022-2.928z" fill-rule="evenodd"/>
</symbol><symbol id="icon-wood-samples" viewBox="0 0 120 153">
    <title>
        wood-samples
    </title>
    <path d="M113.81 67.99c0-3.113 3.456-6.032 6.177-8.227V81.34c-.253-.39-.508-.788-.78-1.2-2.403-3.678-5.396-8.253-5.396-12.15zm6.178 13.352v-.002.002zm0 12.1c-1.37-2.545-3.076-5.032-4.754-7.462-4.878-7.066-9.487-13.737-6.416-21.62 1.424-3.89 3.54-6.815 5.782-9.913l.76-1.055c.608-.82 1.28-1.6 1.995-2.425.91-1.054 1.823-2.144 2.633-3.335V57.79l-.567.46c-3.01 2.422-7.13 5.737-7.13 9.742 0 4.36 3.13 9.152 5.646 13 .673 1.03 1.307 1.997 1.828 2.876l.224-.137v9.712zm-3.78-43.49c-.698.81-1.424 1.65-2.072 2.524l-.764 1.06c-2.307 3.188-4.484 6.198-5.975 10.275-3.367 8.64 1.693 15.97 6.588 23.056 2.28 3.304 4.623 6.714 6.003 10.15v12.73c-.796-3.212-1.99-6.533-3.774-9.6-1.51-2.508-3.29-4.957-5.01-7.328-2.917-4.02-5.934-8.178-7.74-12.75-3.36-8.572-1.634-17.79 5.274-28.184 1.035-1.553 2.166-3.09 3.258-4.576 3.343-4.547 6.766-9.255 7.994-15.092v12.322c-.896 2.06-2.36 3.767-3.78 5.415zM110.81.993h1.41c1.127 3.13 3.293 5.776 5.4 8.33.803.975 1.624 1.98 2.368 2.985v11.56c-1.016-5.45-3.643-10.936-6.048-15.96-1.165-2.43-2.26-4.74-3.13-6.916zm3.044 0h5.033c.607 0 1.1.498 1.1 1.113v7.697c-.398-.497-.8-.99-1.197-1.468-1.898-2.303-3.845-4.68-4.936-7.343zm4.848 29.972c-.96 5.942-4.346 10.547-7.93 15.423-1.103 1.5-2.246 3.052-3.3 4.635-7.207 10.85-8.983 20.537-5.424 29.617 1.878 4.76 4.955 8.996 7.93 13.096 1.7 2.34 3.46 4.765 4.93 7.207 3.23 5.545 5.082 13.485 5.082 21.777v2.212h-.002a1.11 1.11 0 0 1-1.1 1.115h-1.26c-.088-7.84-4.325-16.67-8.413-22.495-1.567-2.254-3.435-4.493-5.24-6.657C98.6 90.443 93.04 83.77 93.626 75.007c.514-5.402 2.65-11.92 4.325-15.88.914-2.315 2.237-4.314 3.516-6.246 1.396-2.108 2.838-4.29 3.787-6.913 2.06-5.735 1.15-10.18-.988-15.514-.898-2.1-1.66-4.266-2.397-6.36-.975-2.772-1.983-5.635-3.297-8.293-.362-.737-.872-1.653-1.447-2.682C95.113 9.515 92.137 4.178 92.6.99h3.47c-.26 4.516 2.616 10.64 4.562 14.783.283.603.548 1.167.792 1.704 1.885 3.816 3.897 6.812 7.59 9.022l.152.083c.905.494 1.554.85 2.112.85.227 0 .44-.06.65-.193.676-.434.755-1.38.668-3.078-.115-2.902-1.063-5.804-1.978-8.61-.424-1.295-.822-2.52-1.13-3.726-.604-2.085-1.51-4.075-2.387-6-.756-1.656-1.463-3.23-1.988-4.834h4.06c.92 2.394 2.117 4.92 3.394 7.59 3.4 7.096 7.253 15.14 6.136 22.382zm-10.684-18.726c.316 1.23.724 2.48 1.153 3.798.884 2.706 1.795 5.503 1.903 8.2.045.9.026 1.357-.008 1.587-.29-.115-.775-.38-1.277-.653-3.368-2.017-5.236-4.81-6.99-8.362-.237-.518-.502-1.09-.79-1.695C100.11 11.07 97.328 5.088 97.633.99h5.87c.566 1.863 1.403 3.703 2.213 5.482.855 1.874 1.737 3.81 2.302 5.766zm-12.222 1.64c.56 1.002 1.06 1.896 1.413 2.612 1.27 2.573 2.218 5.27 3.22 8.12.747 2.12 1.518 4.31 2.43 6.44 1.997 4.976 2.853 9.118.962 14.387-.886 2.448-2.215 4.457-3.622 6.583-1.322 2-2.69 4.066-3.657 6.515-1.712 4.044-3.9 10.744-4.437 16.343-.63 9.413 5.132 16.326 10.704 23.01 1.866 2.24 3.63 4.353 5.16 6.557 3.953 5.63 8.047 14.132 8.134 21.602h-1.777c-1.39-3.956-8.86-21.16-14.47-22.537-1.14-.28-2.176.048-3.014.952-4.065 4.478-3.078 10.5-2.21 15.815.336 2.037.637 3.97.692 5.77H80.878c.174-.34.38-.72.578-1.08.388-.706.79-1.44 1.095-2.133.65-1.678 1.223-3.398 1.774-5.057.963-2.89 1.957-5.884 3.387-8.676 4.127-8.475 2.308-16.187.38-24.35-.853-3.61-1.734-7.34-2.085-11.195-.522-6.258 3.173-10.932 7.085-15.88 3.062-3.873 6.227-7.877 7.33-12.783 2.145-9.532-2.37-18.08-7.56-25.878-2.54-4.02-5.17-8.18-7.444-12.454-1.15-2-2.17-3.548-3.685-5.082-.163-.166-.278-.33-.395-.49h9.74c-.384 3.722 2.533 8.965 4.72 12.89zM84.084 7.314c2.29 4.306 4.934 8.49 7.498 12.548 5.01 7.527 9.367 15.726 7.348 24.686-1.023 4.562-4.08 8.428-7.032 12.163-3.928 4.967-7.988 10.103-7.414 16.98.36 3.97 1.256 7.757 2.12 11.42 1.863 7.885 3.623 15.332-.256 23.294-1.476 2.886-2.49 5.934-3.47 8.882-.547 1.644-1.112 3.342-1.736 4.954-.27.614-.655 1.315-1.02 1.98-.428.78-.735 1.357-.93 1.828H63.57c2.42-2.386 4.723-5.784 6.964-9.107 1.276-1.892 2.48-3.678 3.634-5.157 5.326-6.87 9.223-12.876 6.95-22.34-1.017-4.12-1.198-8.74-1.37-13.21-.328-8.4-.667-17.09-6.344-23.824-5.764-6.42-7.167-13.44-8.792-21.57-.384-1.922-.778-3.894-1.245-5.927l-.186-.768c-1.75-7.337-4.32-18.04-11.107-23.156h6.117c1.402 3.835 7.256 10.393 11.842 10.393.252 0 .5-.02.743-.06 1.59-.268 2.627-.948 3.08-2.02 1-2.375-1.28-5.772-2.948-8.25-.015-.024-.025-.04-.042-.062h8.46l-.042.11c.308.124.455.314.734.7.178.246.37.507.63.77 1.404 1.423 2.328 2.828 3.432 4.744zm-5.63 10.194l-.36-.004c-3.61 0-5.905 1.42-6.993 4.282-1.984 4.017-.415 10.056.622 14.05l.147.566c1.8 6.08 4.777 14.43 9.83 16.743.984.434 1.98.654 2.955.654 2.714 0 5.19-1.73 6.627-4.64 2.654-5.555 1.258-11.303-.448-16.174-1.46-4.576-4.883-15.292-12.38-15.478zm11.46 30.97c-1.59 3.217-4.644 4.555-7.6 3.256-4.992-2.285-7.895-12.087-8.98-15.75l-.14-.542c-.98-3.77-2.457-9.468-.7-13.035.885-2.324 2.61-3.36 5.598-3.36l.322.004c6.42.162 9.606 10.147 10.976 14.43 1.608 4.59 2.928 9.965.523 14.998zM84.135 33.39c-.823-1.31-2.932-4.352-4.76-4.352-.38 0-1.3.147-1.66 1.465-.79 2.257 1.044 8.9 3.384 12.255.98 1.41 1.985 2.124 2.977 2.124h.002c1.04 0 1.91-.748 2.586-2.22 1.03-2.237-.72-6.392-2.53-9.272zm-.057 9.95c-.213 0-.81-.145-1.735-1.47-2.158-3.094-3.77-9.2-3.177-10.902.077-.28.166-.37.21-.386.458 0 1.805.99 3.473 3.64 1.98 3.15 3.028 6.497 2.434 7.79-.228.496-.687 1.327-1.205 1.327zM72.454 8.696c-.234.557-.883.93-1.928 1.105-3.552.604-9.07-5.253-10.684-8.813h9.192c.187.285.383.586.616.932 1.303 1.935 3.48 5.176 2.805 6.775zm-10.752 15.81l.18.763c.463 2.01.854 3.97 1.235 5.877 1.67 8.35 3.11 15.562 9.143 22.282 5.32 6.31 5.647 14.724 5.964 22.862.176 4.547.36 9.25 1.414 13.517 2.114 8.803-1.43 14.266-6.668 21.02-1.183 1.516-2.403 3.324-3.692 5.237-2.595 3.848-5.278 7.8-8.01 9.978h-8.084c.714-1.763 1.126-3.56 1.51-5.308.322-1.48.628-2.877 1.107-4.237.462-1.245 1.24-2.39 2.063-3.602 1.674-2.467 3.408-5.02 2.33-8.474-1.427-4.606-5.373-6.066-9.19-7.48-3.417-1.267-6.63-2.495-7.798-5.93V82.26c4.797 4.333 12.724 9.976 21.51 9.976.7 0 1.413-.035 2.125-.113 3.13-.326 5.45-1.748 6.892-4.23 5.19-8.902-2.898-28.83-3.838-31.074-2.282-5.446-5.033-10.746-7.696-15.87-1.35-2.598-2.7-5.196-4.005-7.84-1.418-2.688-3.613-5.632-5.937-8.748C48.11 18.8 43.823 13.05 43.204 7.882V2.105A1.11 1.11 0 0 1 44.306.99h4.91c7.82 3.966 10.628 15.72 12.487 23.516zm7.08 74.945c-2.02-.2-4.05 1.555-4.773 3.25-.456 1.07-.365 2.064.29 2.764.228.215.64.47 1.298.47 1.92 0 5.17-2.384 5.332-4.363.044-.522-.075-1.773-2.147-2.12zm-3.185 4.94c-.125 0-.224-.023-.227-.023-.254-.274-.058-.83.04-1.058.47-1.1 1.84-2.334 3.053-2.334l.12.002c.32.055.852.186.83.464-.088 1.046-2.545 2.947-3.815 2.947zM50.902 52.298c3.86 3.816 7.85 7.766 10.052 12.75.845 2.022.72 2.846.513 3.013-.534.435-2.897-.37-5.468-2.23-3.88-2.618-9.24-6.92-12.793-11.222V43.718c2.216 3.144 4.99 5.904 7.695 8.582zm-7.697-8.585h.002v.002s0-.002-.002-.002zm0-14.91c3.01 5.938 8.052 12.242 12.606 17.91 1.91 2.375 3.714 4.62 5.242 6.682 4.747 6.253 7.4 12.525 8.6 20.317.048.37.118.826.198 1.333.3 1.924.803 5.144.102 6.394-1.053 2.502-3.26 1.995-6.77.968l-.563-.163c-6.433-2.097-11.152-6.727-16.187-12.076-.39-.475-.78-.924-1.163-1.364-.75-.865-1.454-1.69-2.065-2.587V56.95c3.59 3.956 8.38 7.758 11.928 10.152.705.51 3.728 2.6 5.89 2.6.534 0 1.016-.127 1.397-.437 1.458-1.182.314-3.92-.068-4.833-2.327-5.268-6.423-9.322-10.384-13.24-3.18-3.146-6.465-6.4-8.72-10.207l-.043.026V28.805zm2.09 42.392c5.215 5.542 10.082 10.31 16.88 12.526l.58.17c1.51.442 3.11.91 4.556.91 1.68 0 3.142-.63 4.003-2.673.925-1.64.412-4.925.04-7.322-.076-.49-.145-.928-.193-1.31-1.246-8.08-3.992-14.57-8.895-21.032-1.54-2.078-3.355-4.334-5.272-6.724-5.3-6.594-11.294-14.062-13.79-20.64V13.174c1.798 4.013 4.85 8.112 7.838 12.114 2.287 3.066 4.447 5.96 5.8 8.526 1.3 2.635 2.653 5.242 4.008 7.85 2.65 5.097 5.386 10.367 7.645 15.754.908 2.17 8.738 21.436 3.927 29.688-1.2 2.06-3.078 3.2-5.738 3.478-9.702 1.045-18.698-5.873-23.478-10.418V68.742c.3.36.604.72.92 1.085.375.43.758.868 1.17 1.37zm2.235 38.99c-.317 1.82-1.647 3.893-2.933 5.896a63.65 63.65 0 0 0-1.392 2.247v-11.528c.73.268 1.42.446 2.01.592 1.92.472 2.566.63 2.315 2.793zM43.205 94.15c1.806 2.183 4.56 3.24 7.274 4.246 3.627 1.342 7.055 2.612 8.26 6.49.852 2.737-.532 4.776-2.133 7.137-.838 1.236-1.704 2.514-2.235 3.946-.516 1.46-.847 2.972-1.165 4.432-.412 1.88-.854 3.82-1.68 5.643h-7.22a1.106 1.106 0 0 1-1.102-1.113v-2.14c-.088-1.564 1.31-3.752 2.67-5.867 1.37-2.134 2.784-4.342 3.16-6.514.415-3.562-1.554-4.048-3.46-4.516-.726-.18-1.536-.39-2.37-.756V94.15zm-20.644 55.9h74.542v-16.232h2.83v19.098H19.73V24.748h15.018v2.866H22.56V150.05zM9.99 27.023h6.692v2.867H12.82v120.243h3.862V153H9.99V27.024zM0 30.904h6.693v2.866H2.83v116.363h3.863V153H0V30.903zm99.903 95.143h-3.056c-.053-1.916-.366-3.917-.712-6.023-.85-5.207-1.733-10.592 1.822-14.51.46-.5.935-.648 1.54-.503 4.367 1.072 11.428 16.08 13.222 21.037h-6.505c-.227-.588-.45-1.18-.677-1.785-1.004-2.703-2.04-5.496-3.6-7.735l-.734-1.053-.57 1.153c-1.264 2.557-1.54 6.53-.73 9.42zm4.208-1.243c.157.424.316.828.473 1.243h-3.095c-.695-2.046-.675-5.077-.008-7.372 1.043 1.853 1.847 4.02 2.63 6.13z" fill-rule="evenodd"/>
</symbol><symbol id="icon-wood" viewBox="0 0 115 147">
    <title>
        wood
    </title>
    <path d="M115 111.89v35.013H22.705V0H115v111.89zm-23.574 31.727h3.358c-.894-2.397-1.814-4.855-3.003-6.96-.618 2.12-.743 4.778-.354 6.96zm-5.796-5.413c.31 1.874.59 3.674.732 5.413h3.288c-.495-3.093-.09-6.795 1.157-9.307l.656-1.32.844 1.206c1.795 2.566 2.99 5.767 4.144 8.865l.213.557h7.476c-2.71-6.72-9.997-21.486-14.64-22.62-.697-.167-1.242.003-1.773.575-4.09 4.49-3.076 10.663-2.097 16.632zm-59.668-3.953c.12-.187.237-.373.36-.563 1.48-2.296 3.01-4.672 3.374-6.758.29-2.48-.455-2.662-2.663-3.202a36.006 36.006 0 0 1-1.07-.28v10.803zm0-12.656c.516.163 1.018.3 1.486.414 2.192.537 4.458 1.093 3.98 5.178-.432 2.49-2.06 5.02-3.637 7.466-.644 1-1.29 2.013-1.828 2.986v5.98h8.93c.587-1.64.974-3.33 1.337-4.98.365-1.674.746-3.407 1.34-5.082.61-1.64 1.608-3.106 2.573-4.523 1.842-2.707 3.434-5.043 2.453-8.18-1.386-4.445-5.33-5.9-9.506-7.44-2.556-.943-5.133-1.938-7.128-3.635v11.816zm0-56.955c4.027 4.442 9.444 8.737 13.48 11.45 2.96 2.133 5.68 3.056 6.293 2.558.24-.192.383-1.136-.59-3.453-2.536-5.714-7.127-10.24-11.568-14.617-2.635-2.597-5.303-5.28-7.615-8.224V64.64zm0-15.186c2.492 3.59 5.708 6.77 8.84 9.857 4.56 4.494 9.273 9.14 11.95 15.178.44 1.047 1.758 4.184.08 5.54-.44.354-.994.5-1.607.5-2.49 0-5.968-2.396-6.78-2.98-3.687-2.48-8.532-6.278-12.483-10.33v10.947c.365.443.742.884 1.134 1.334.44.503.89 1.017 1.34 1.56 5.793 6.132 11.223 11.44 18.625 13.842l.648.187c4.04 1.176 6.58 1.757 7.79-1.11.808-1.432.23-5.123-.116-7.328a51.117 51.117 0 0 1-.226-1.528c-1.383-8.93-4.436-16.12-9.898-23.286-1.76-2.364-3.835-4.937-6.032-7.66-4.66-5.776-9.755-12.128-13.264-18.25v13.526zm0-17.203c3.325 6.8 9.28 14.19 14.624 20.814 2.207 2.738 4.294 5.324 6.067 7.706 5.643 7.406 8.803 14.844 10.237 24.108.055.436.134.94.22 1.5.43 2.748 1.02 6.51-.044 8.393-.99 2.342-2.675 3.065-4.606 3.065-1.663 0-3.505-.537-5.242-1.045l-.668-.194c-7.824-2.538-13.424-8.004-19.427-14.357-.407-.495-.788-.932-1.16-1.36v12.785c5.73 5.144 15.398 11.91 25.773 10.798 3.062-.32 5.222-1.625 6.604-3.987 5.536-9.458-3.475-31.542-4.52-34.028-2.6-6.174-5.75-12.214-8.798-18.056-1.558-2.99-3.116-5.977-4.613-8.997-1.556-2.94-4.042-6.26-6.673-9.774-2.828-3.77-5.692-7.617-7.775-11.423V32.25zm0-28.964V14.19c1.908 4.66 5.586 9.574 9.174 14.364 2.674 3.572 5.2 6.945 6.83 10.027 1.503 3.03 3.056 6.01 4.61 8.987 3.065 5.873 6.23 11.947 8.857 18.19 1.08 2.57 10.39 25.412 4.417 35.617-1.662 2.843-4.33 4.473-7.932 4.848-.82.09-1.64.13-2.447.13-9.386 0-17.916-5.576-23.508-10.35v11.222c1.778 2.28 4.676 3.398 7.73 4.527 4.394 1.62 8.935 3.295 10.577 8.573 1.24 3.958-.756 6.885-2.682 9.714-.95 1.388-1.842 2.7-2.373 4.128-.552 1.56-.903 3.16-1.274 4.856-.333 1.514-.687 3.06-1.193 4.597h10.386c2.583-2.593 5.122-6.302 7.59-9.948 1.484-2.195 2.888-4.266 4.25-6.006 6.026-7.74 10.105-14 7.673-24.092-1.213-4.89-1.425-10.28-1.628-15.493-.364-9.328-.74-18.973-6.862-26.206-6.94-7.702-8.6-15.97-10.52-25.54-.44-2.186-.89-4.43-1.422-6.736l-.208-.875c-1.94-8.102-4.793-19.91-12.013-25.437h-8.03zm18.73 0c2.484 4.027 7.857 9.196 11.47 8.583 1.202-.202 1.95-.63 2.218-1.267.728-1.714-1.42-5.075-2.925-7.317H44.69zm23.12.296c-.097-.1-.177-.198-.26-.296h-9.985c1.703 2.62 3.396 5.728 2.428 8.012-.52 1.23-1.713 2.008-3.544 2.316a5.37 5.37 0 0 1-.854.068c-4.71 0-10.573-5.983-12.928-10.396H36.68c6.512 6.274 9.177 17.278 11.03 25.024l.214.88c.537 2.33.99 4.59 1.433 6.794 1.87 9.318 3.484 17.363 10.117 24.72 6.533 7.72 6.923 17.678 7.3 27.308.2 5.123.407 10.418 1.578 15.14 2.615 10.848-1.87 17.733-8 25.606-1.325 1.695-2.712 3.742-4.18 5.912-2.143 3.165-4.338 6.378-6.615 8.947h17.32c.108-.2.2-.376.325-.605.42-.76.865-1.565 1.175-2.268.717-1.848 1.368-3.795 1.998-5.68 1.128-3.377 2.294-6.87 3.993-10.18 4.463-9.125 2.44-17.66.295-26.7-.995-4.196-2.025-8.536-2.44-13.088-.66-7.882 4.01-13.768 8.53-19.46 3.4-4.28 6.916-8.712 8.094-13.94 2.323-10.27-2.692-19.668-8.456-28.296-2.95-4.652-5.992-9.446-8.627-14.382-1.272-2.196-2.335-3.806-3.95-5.436zm2.115-.296c1.28 1.46 2.282 2.988 3.368 4.868 2.618 4.9 5.643 9.666 8.566 14.275 5.975 8.937 11.17 18.733 8.702 29.66-1.27 5.623-4.912 10.212-8.435 14.65-4.502 5.672-8.755 11.03-8.155 18.202.405 4.418 1.418 8.694 2.4 12.83 2.22 9.358 4.313 18.197-.436 27.912-1.646 3.2-2.79 6.63-3.898 9.944-.634 1.902-1.293 3.873-2.04 5.796-.316.714-.72 1.462-1.123 2.193h15.732c-.14-1.63-.41-3.34-.704-5.123-1-6.09-2.136-12.994 2.542-18.127.965-1.036 2.158-1.412 3.468-1.09 5.902 1.443 13.588 18.037 16.088 24.34h2.545c-.58-8.182-5.008-17.187-9.295-23.27-1.762-2.526-3.79-4.948-5.938-7.514-6.412-7.663-13.044-15.586-12.318-26.375.616-6.417 3.136-14.097 5.106-18.73 1.113-2.808 2.687-5.177 4.208-7.47 1.62-2.436 3.15-4.74 4.17-7.544 2.175-6.04 1.19-10.787-1.108-16.49-1.05-2.442-1.937-4.953-2.796-7.38-1.154-3.27-2.245-6.36-3.708-9.31-.407-.82-.982-1.844-1.626-2.993-2.232-3.986-5.118-9.16-5.438-13.254h-9.875zm17.435 0c.297 4.57 3.067 10.513 5.027 14.67.33.696.635 1.35.907 1.944 2.02 4.07 4.17 7.272 8.045 9.585.577.312 1.137.616 1.47.748.038-.263.06-.787.01-1.82-.125-3.09-1.174-6.297-2.19-9.398-.493-1.512-.963-2.942-1.327-4.353-.65-2.24-1.665-4.46-2.65-6.61-.71-1.553-1.437-3.15-2.03-4.766H87.36zm24.38 0h-4.997c1.295 2.45 3.14 4.707 4.956 6.9l.043.05v-6.95zm0 9.732c-.458-.572-.925-1.14-1.386-1.697-2.077-2.506-4.196-5.09-5.578-8.034h-1.625c.88 2.045 1.894 4.182 2.967 6.41 2.012 4.188 4.15 8.656 5.623 13.184v-9.862zm0 57.21c-2.82 2.354-5.77 5.262-5.77 8.337 0 4.232 3.092 9.162 5.77 13.254V70.226zm0 24.808c-.327-.508-.668-1.03-1.023-1.57-2.897-4.41-6.5-9.904-6.5-14.9 0-4.294 4.152-7.896 7.523-10.617V57.02a62.186 62.186 0 0 1-1.694 2.032c-.822.946-1.596 1.84-2.294 2.78l-.876 1.208c-2.58 3.55-5.015 6.905-6.654 11.364-3.535 9.034 1.77 16.68 7.383 24.78 1.415 2.042 2.846 4.12 4.133 6.236V95.036zm0 13.936c-1.557-2.967-3.584-5.905-5.57-8.773-5.633-8.124-11.457-16.524-7.582-26.426 1.716-4.674 4.222-8.123 6.877-11.777l.88-1.215c.744-1.003 1.58-1.964 2.385-2.892 1.05-1.215 2.105-2.47 3.01-3.83V41.93c-1.874 4.758-4.887 8.902-7.86 12.93-1.256 1.702-2.558 3.463-3.748 5.243-7.95 11.913-9.935 22.48-6.07 32.303 2.08 5.242 5.55 10.008 8.91 14.615 1.976 2.718 4.025 5.525 5.762 8.4 1.244 2.127 2.213 4.362 3.007 6.61v-13.058zm0 19.604c-.996-4.625-2.515-8.835-4.507-12.243-1.694-2.798-3.72-5.576-5.675-8.26-3.423-4.7-6.964-9.555-9.126-15.01-4.095-10.41-2.05-21.512 6.243-33.948 1.213-1.814 2.528-3.593 3.797-5.313 4.125-5.588 8.022-10.866 9.126-17.677.065-.422.106-.85.143-1.276V31.2c-.564-6.916-4.05-14.176-7.204-20.73-1.204-2.505-2.336-4.894-3.29-7.186h-4.743c.513 1.325 1.11 2.65 1.743 4.027 1.008 2.207 2.05 4.486 2.745 6.877.357 1.38.815 2.786 1.302 4.27 1.053 3.217 2.144 6.543 2.276 9.87.1 1.944.01 3.03-.77 3.527-.24.153-.485.22-.746.22-.642 0-1.39-.407-2.43-.973l-.175-.096c-4.25-2.534-6.566-5.967-8.735-10.342-.28-.615-.586-1.26-.912-1.952-2.027-4.3-4.924-10.46-5.233-15.428h-4.028c.346 3.672 3.205 8.783 5.224 12.385.66 1.18 1.248 2.23 1.666 3.075 1.51 3.046 2.67 6.328 3.794 9.504.847 2.4 1.724 4.883 2.758 7.29 2.462 6.112 3.507 11.208 1.138 17.78-1.093 3.008-2.752 5.51-4.36 7.926-1.47 2.214-2.993 4.505-4.045 7.16-1.93 4.538-4.387 12.01-4.98 18.2-.67 10.046 5.726 17.692 11.914 25.088 2.076 2.48 4.225 5.046 6.028 7.63 4.447 6.31 9.04 15.697 9.617 24.293h1.443v-15.04zM79.53 38.443c1.963 5.583 3.57 12.172.516 18.538-1.655 3.335-4.504 5.318-7.627 5.318-1.124 0-2.27-.252-3.4-.75-5.817-2.65-9.243-12.22-11.314-19.19l-.17-.65c-1.193-4.577-2.998-11.498-.714-16.103 1.252-3.28 3.892-4.908 8.046-4.908l.416.005c8.627.213 12.565 12.496 14.246 17.74zM65.238 22.47l-.37-.004c-3.44 0-5.425 1.188-6.444 3.852-2.02 4.088-.32 10.618.806 14.94l.162.622c1.248 4.198 4.59 15.432 10.335 18.05 3.4 1.49 6.915-.043 8.743-3.73 2.768-5.77 1.248-11.928-.602-17.19-1.576-4.91-5.244-16.355-12.63-16.54zm6.518 29.608c-1.144 0-2.3-.82-3.428-2.435-2.692-3.845-4.802-11.46-3.895-14.046.414-1.51 1.476-1.68 1.913-1.68 2.102 0 4.53 3.49 5.476 4.99 2.084 3.3 4.096 8.063 2.912 10.627-.778 1.686-1.78 2.544-2.978 2.544zm-1.413-12.22c-1.92-3.036-3.47-4.17-3.997-4.17-.05.016-.152.122-.24.442-.683 1.95 1.172 8.95 3.655 12.495 1.067 1.52 1.752 1.684 1.996 1.684.597 0 1.124-.953 1.387-1.523.684-1.48-.52-5.318-2.8-8.93zm-19.854 82.2c-.76 0-1.232-.294-1.496-.54-.752-.802-.857-1.94-.333-3.168.834-1.943 3.168-3.956 5.494-3.725 2.384.4 2.52 1.832 2.47 2.43-.186 2.27-3.925 5.002-6.135 5.002zm3.433-5.682l-.137-.002c-1.397 0-2.973 1.413-3.515 2.675-.11.26-.336.898-.042 1.21.003 0 .117.026.26.026 1.462 0 4.29-2.18 4.39-3.378.026-.32-.587-.47-.955-.532zM11.496 2.61h7.702v3.285h-4.445v137.82h4.445V147h-7.702V2.61zM0 7.055h7.702v3.286H3.257v133.374h4.445V147H0V7.055z" fill-rule="evenodd"/>
</symbol></svg>