<?xml version="1.0" encoding="UTF-8"?><!DOCTYPE svg PUBLIC "-//W3C//DTD SVG 1.1//EN" "http://www.w3.org/Graphics/SVG/1.1/DTD/svg11.dtd"><svg xmlns="http://www.w3.org/2000/svg"><symbol id="icon-arrow-right" viewBox="0 0 25 25">
    <title>
        arrow-right
    </title>
    <path d="M25.001 12.552L12.62 24.932 9 21.312l6.377-6.377H0v-5h15.399L9 3.536 12.536 0l12.09 12.091-.043.043.418.418z" fill-rule="evenodd"/>
</symbol><symbol id="icon-border" viewBox="0 0 294 252">
    <title>
        border
    </title>
    <path d="M1 1h232l59 122-59 128H1V1z" stroke-width="2" fill-rule="evenodd"/>
</symbol><symbol id="icon-bubles" viewBox="0 0 90 65">
    <title>
        bubles
    </title>
    <path d="M51 7.483c11.7 9.964 11.7 26.144 0 36.022-9.9 8.43-24.9 9.708-36.3 4.002l-.1-.085c-4.5 2.896-9.4 3.407-12.7 2.98-1.1-.17-1.4-1.447-.3-1.873 3.1-1.277 5-3.832 6.2-5.96l-.3-.256C-2.9 32.264-2.5 16.936 8.8 7.398 20.3-2.48 39.3-2.48 51 7.483zM46.8 26c0-2-1.6-3.6-3.6-3.6S39.6 24 39.6 26s1.6 3.6 3.6 3.6 3.6-1.6 3.6-3.6zm-13.4 0c0-2-1.6-3.6-3.6-3.6S26.2 24 26.2 26s1.6 3.6 3.6 3.6 3.6-1.6 3.6-3.6zm-13.5 0c0-2-1.6-3.6-3.6-3.6S12.7 24 12.7 26s1.6 3.6 3.6 3.6 3.6-1.6 3.6-3.6zm15.905 28.75c.622.64 2.062 2.157 2.77 2.755 9.9 8.43 24.9 9.708 36.3 4.002 4.6 2.81 9.5 3.322 12.8 2.896 1.1-.17 1.4-1.448.3-1.874-3.1-1.277-5-3.832-6.2-5.96l.3-.256c10.4-10.049 10-25.377-1.3-34.915-4.58-3.934-12.06-6.777-18.085-7.572 4.525 12.217.63 23.619-4.934 29.575-5.563 5.957-10.957 9.77-21.951 11.348z" fill-rule="evenodd"/>
</symbol><symbol id="icon-call" viewBox="0 0 89 89">
    <title>
        call
    </title>
    <path d="M85.494 64.863c-.995-.789-9.346-7.275-14.714-11.441l-.044-.041c-.764-.763-2.124-1.236-3.552-1.236-1.105 0-3.204.282-4.81 2.189a1.15 1.15 0 0 0-.094.123c-.403.565-2.96 4.337-3.912 5.745l-.182.267-.316-.065c-6.39-1.315-14.677-9.247-17.066-11.646-6.315-6.348-11.115-13.15-12.84-18.203l-.118-.351.307-.206c2.322-1.559 5.005-3.376 5.643-3.832.099-.072.19-.153.276-.243 2.553-2.7 2.579-6.939.069-9.67l-.076-.088c-3.853-4.847-10.333-13.002-10.65-13.397l-.022-.029C22.287 1.415 20.303 0 18.05 0c-1.683 0-3.312.773-4.845 2.296l-.074.069c-3.818 3.324-9.78 8.518-10.625 9.263a1.963 1.963 0 0 0-.187.189c-3.425 3.98-3.054 11.358 1.104 21.925C7.66 44.515 14.95 55.406 23.953 64.41c7.47 7.469 15.988 13.693 24.635 17.995 8.016 3.992 15.397 6.19 20.782 6.19 3.025 0 6.744-2.215 11.057-6.583a53.883 53.883 0 0 0 5.55-6.689 1.86 1.86 0 0 0 .167-.291c2.413-3.296 2.242-7.198-.461-9.998a2.578 2.578 0 0 0-.19-.171zm1.438-63.131A5.094 5.094 0 0 0 82.962.32L61.6 2.592a5.097 5.097 0 0 0 .859 10.157l8.373-.958-15.931 16.494a5.095 5.095 0 1 0 7.207 7.206l15.159-15.694-.7 8.232a5.098 5.098 0 0 0 5.095 5.346c2.7 0 4.952-2.121 5.086-4.846l1.617-21.335c.092-.433.12-.872.099-1.312l.018-.233a5.103 5.103 0 0 0-1.551-3.917z" fill-rule="evenodd"/>
</symbol><symbol id="icon-close" viewBox="0 0 96 96">
    <title>
        close
    </title>
    <path d="M17.875 95.016l29.5-29.494 29.781 29.784 18.156-18.162-29.78-29.785 29.5-29.49L77.343.097 47.875 29.59 18.187 0 0 18.166l29.688 29.59L.218 77.25l17.657 17.766z" fill-rule="evenodd"/>
</symbol><symbol id="icon-do" viewBox="0 0 237 46">
    <title>
        do
    </title>
    <path d="M68.106 14.742l33.976 8.407-1.201 4.853s6.564 1.646 6.555 2.652c-.009 1.006.794 4.975-3.143 4.373-3.936-.601-7.035-.71-7.035-.71s-4.931 1.011-7.276.26c-2.344-.751-3.932-4.702-6.074-4.593-2.142.108-3.383 5.344-3.383 5.344l-16.502-4.084L0 15.403A124.697 124.697 0 0 1 8.527 0l59.579 14.742zM236.29 45.018H109.41s-3.283-2.95 0-4c3.283-1.05.269 1.696 5 2 6.395.411 10-3 10-3s9.167 1.84 10-2c.863-3.976-6.709-4.356-10-4-2.394-.647-1-6-1-6h108.462a124.051 124.051 0 0 1 4.418 17z" fill-rule="evenodd"/>
</symbol><symbol id="icon-dust" viewBox="0 0 106 100">
    <title>
        dust
    </title>
    <path d="M104.5 62a1 1 0 1 1 0-2 1 1 0 0 1 0 2zM98 93a4.5 4.5 0 1 1 0-9 4.5 4.5 0 0 1 0 9zm1.5-53a2 2 0 1 1-.001-3.999A2 2 0 0 1 99.5 40zm-6-16a2 2 0 1 1-.001-3.999A2 2 0 0 1 93.5 24zM86 70a1.5 1.5 0 1 1 .001-3.001A1.5 1.5 0 0 1 86 70zm-4-37a.5.5 0 1 1 0-1 .5.5 0 0 1 0 1zm-3.5 22a3 3 0 1 1 0-6 3 3 0 0 1 0 6zm-2 39a2 2 0 1 1-3.999.001A2 2 0 0 1 76.5 94zM72 80a2.5 2.5 0 1 1 0-5 2.5 2.5 0 0 1 0 5zM69 8a.5.5 0 1 1 0-1 .5.5 0 0 1 0 1zm-3.5 44a1 1 0 1 1 0-2 1 1 0 0 1 0 2zm-4-18a4 4 0 1 1 0-8 4 4 0 0 1 0 8zM56 82a1.5 1.5 0 1 1 .001-3.001A1.5 1.5 0 0 1 56 82zm-3-65a1.5 1.5 0 1 1 .001-3.001A1.5 1.5 0 0 1 53 17zm-.5 36.5a2.5 2.5 0 1 1-5 0 2.5 2.5 0 0 1 5 0zm-4 41.5a1 1 0 1 1-2 0 1 1 0 0 1 2 0zm-3-60a1 1 0 1 1 0-2 1 1 0 0 1 0 2zm-2-33a1 1 0 1 1 0-2 1 1 0 0 1 0 2zM40 68a2.5 2.5 0 1 1 0-5 2.5 2.5 0 0 1 0 5zm.5-46a1 1 0 1 1 0-2 1 1 0 0 1 0 2zm-3 34a1 1 0 1 1 0-2 1 1 0 0 1 0 2zm1 25a2 2 0 1 1-3.999.001A2 2 0 0 1 38.5 81zm-7-41a1 1 0 1 1 0-2 1 1 0 0 1 0 2zM30 25a.5.5 0 1 1 0-1 .5.5 0 0 1 0 1zm.5 26.5a1.5 1.5 0 1 1-3.001-.001 1.5 1.5 0 0 1 3.001.001zm-1 41.5a3 3 0 1 1-6 0 3 3 0 0 1 6 0zm-6-30a3 3 0 1 1 0-6 3 3 0 0 1 0 6zM26 37a.5.5 0 1 1 0-1 .5.5 0 0 1 0 1zm-4-20a1.5 1.5 0 1 1 .001-3.001A1.5 1.5 0 0 1 22 17zm-.5 81.5a1.5 1.5 0 1 1-3.001-.001 1.5 1.5 0 0 1 3.001.001zM15 49a1.5 1.5 0 1 1 .001-3.001A1.5 1.5 0 0 1 15 49zM5.5 87a1 1 0 1 1 0-2 1 1 0 0 1 0 2zM2 67a1.5 1.5 0 1 1 .001-3.001A1.5 1.5 0 0 1 2 67zm13 7a.5.5 0 1 1 0 1 .5.5 0 0 1 0-1zm8.5 0a1 1 0 1 1 0 2 1 1 0 0 1 0-2zm20-32a1 1 0 1 1 0 2 1 1 0 0 1 0-2zM50 69a.5.5 0 1 1 0 1 .5.5 0 0 1 0-1zm11-5a2.5 2.5 0 1 1 0 5 2.5 2.5 0 0 1 0-5z" fill-rule="evenodd"/>
</symbol><symbol id="icon-hint-error" viewBox="0 0 16 16">
    <title>
        hint-error
    </title>
    <path d="M8 0a8 8 0 1 1 0 16A8 8 0 0 1 8 0zM5.986 11.35l2-2 2 2 1.249-1.24-2-2.01 2-2-1.249-1.24-2 2.01-2-2.01L4.737 6.1l2 2-2 2.01 1.249 1.24z" fill-rule="evenodd"/>
</symbol><symbol id="icon-hint-info" viewBox="0 0 16 16">
    <title>
        hint-info
    </title>
    <path d="M8 0a8 8 0 1 1 0 16A8 8 0 0 1 8 0zm1 4.07a1 1 0 1 0-2 0 1.006 1.006 0 1 0 2 0zM7.146 13h1.707V6.29H7.146V13z" fill-rule="evenodd"/>
</symbol><symbol id="icon-kg" viewBox="0 0 110 152">
    <title>
        kg
    </title>
    <path d="M109.999 97.158c0 7.401-1.455 14.583-4.325 21.348a54.646 54.646 0 0 1-11.784 17.431 54.834 54.834 0 0 1-17.481 11.751C69.625 150.549 62.421 152 54.999 152c-7.422 0-14.626-1.451-21.41-4.312a54.816 54.816 0 0 1-17.48-11.75 54.633 54.633 0 0 1-11.785-17.431C1.455 111.742 0 104.559 0 97.158c0-17.093 9.857-27.275 13.384-33.993-1.083-5.977-1.232-12.316-1.232-17.299V30.957C12.152 13.887 26.037 0 43.105 0H66.9c17.067 0 30.953 13.887 30.953 30.957v14.914c0 4.98-.149 11.316-1.232 17.292 3.53 6.715 13.378 14.928 13.378 33.995zM93.127 30.957c0-14.465-11.768-26.231-26.227-26.231H43.105c-14.462 0-26.228 11.766-26.228 26.231v14.909c0 5.842.239 12.361 1.476 18.067C14.779 70.142 5.53 81.844 5.53 97.158c-.002 27.245 22.148 49.328 49.469 49.328 27.322 0 49.47-22.086 49.47-49.328 0-15.54-9.244-27.026-12.818-33.225 1.236-5.7 1.476-12.222 1.476-18.062V30.957zm-20.3 22.31c-.469 0-.955-.083-1.457-.261a42.108 42.108 0 0 0-16.367-3.289 42.1 42.1 0 0 0-16.369 3.289c-.5.178-.985.261-1.452.261-3.168 0-5.514-10.826-6.212-15.086l-1.195-7.219c.005-7.353 5.982-13.331 13.335-13.331h23.789c7.343 0 13.334 5.978 13.334 13.331l-1.197 7.219c-.698 4.261-3.038 15.086-6.209 15.086zm-5.928-30.91H43.11c-4.627 0-8.416 3.674-8.602 8.26l1.125 6.799c.37 2.257 1.211 10.571 1.665 11.028a46.683 46.683 0 0 1 17.705-3.454 46.657 46.657 0 0 1 17.707 3.456c.452-.456 1.293-8.77 1.662-11.029l.001-.005.001-.005 1.126-6.793c-.183-4.584-3.971-8.257-8.601-8.257zM46.688 97.173l5.412-6.187h3.602l-4.996 5.426 5.268 8.505h-3.467l-3.647-6.538-2.172 2.329v4.209h-2.679V90.986h2.679v6.187zm15.89 7.744c-1.291 0-2.313-.573-3.068-1.72-.591-.906-.887-2.033-.887-3.383 0-1.691.388-2.984 1.163-3.877.776-.893 1.739-1.34 2.892-1.34 1.188 0 2.169.548 2.941 1.644v-1.416h2.38v9.056c0 1.191-.093 2.082-.28 2.671-.187.589-.45 1.051-.787 1.387-.338.336-.789.599-1.353.789-.565.19-1.278.285-2.141.285-1.629 0-2.784-.293-3.466-.879-.682-.586-1.023-1.329-1.023-2.228 0-.089.003-.197.009-.324l2.905.371c.049.355.16.599.335.732.242.19.622.285 1.141.285.663 0 1.161-.105 1.493-.314.223-.139.392-.364.507-.674.078-.222.117-.631.117-1.226v-1.473c-.76 1.089-1.719 1.634-2.878 1.634zm2.924-5.188c0-1.046-.206-1.821-.616-2.328-.41-.507-.929-.761-1.556-.761-.61 0-1.112.249-1.507.746-.396.498-.593 1.256-.593 2.276 0 1.071.197 1.855.593 2.352.395.498.882.746 1.461.746.622 0 1.147-.255 1.575-.765.428-.51.643-1.265.643-2.266z" fill-rule="evenodd"/>
</symbol><symbol id="icon-letter-dot" viewBox="0 0 62 210">
    <title>
        letter-dot
    </title>
    <path d="M61.423 179.354A30.712 30.712 0 1 1 30.713 149c16.861-.098 30.61 13.49 30.71 30.353z" fill-rule="evenodd"/>
</symbol><symbol id="icon-letter-e" viewBox="0 0 169 210">
    <title>
        letter-e
    </title>
    <path d="M84.261 168.094c-17.3 0-24.683-11.874-24.683-26.523h108c.625-3.978.938-7.998.939-12.024C168.517 85.062 130.793 49 84.259 49S0 85.062 0 129.547s37.725 80.523 84.26 80.523c34.554-.643 60.765-14.25 78.633-40.824l-50.2-20.424c-3.35 6.328-7.14 11.122-11.371 14.381-4.237 3.267-10.379 4.891-17.061 4.891zm-22.133-59.349c.141-12.123 10.009-21.876 22.132-21.876 12.124 0 21.992 9.753 22.133 21.876H62.128z" fill-rule="evenodd"/>
</symbol><symbol id="icon-letter-l" viewBox="0 0 62 210">
    <title>
        letter-l
    </title>
    <path d="M61.425 205.257H0V0h61.425v205.26-.003z" fill-rule="evenodd"/>
</symbol><symbol id="icon-letter-r" viewBox="0 0 191 210">
    <title>
        letter-r
    </title>
    <path d="M60.337 98.94H0V205h61.397V100.676l4.224 6.926L125.188 205h65.688l-46.375-75.848c30.967-10.374 49.765-41.756 44.3-73.954C183.335 23.001 155.234-.42 122.579.006H0l60.337 98.933zm.004 0l1.056 1.733-1.06-1.734h.004zm64.13-32.11a23.797 23.797 0 0 1-10.358 19.578l-26.62-43.483h12.78c13.281-.079 24.114 10.622 24.197 23.904z" fill-rule="evenodd"/>
</symbol><symbol id="icon-letter-t" viewBox="0 0 112 210">
    <title>
        letter-t
    </title>
    <path d="M61.43 54.01V0H0v205.26h61.43V98.96h22.45l27.5-44.95H61.43z" fill-rule="evenodd"/>
</symbol><symbol id="icon-letter-u" viewBox="0 0 166 210">
    <title>
        letter-u
    </title>
    <path d="M104.545 55v85.764c-.114 11.827-9.734 21.354-21.561 21.354s-21.447-9.527-21.561-21.354V55H0v95.382c0 32.92 27 59.608 60.311 59.608a60.462 60.462 0 0 0 44.234-19.106v15.363h61.423V55h-61.423z" fill-rule="evenodd"/>
</symbol><symbol id="icon-letter-z" viewBox="0 0 154 210">
    <title>
        letter-z
    </title>
    <path d="M153.87 55H3.631v44.951h69.026L0 172.919v32.985h153.87v-44.951H82.7l71.171-71.509V55h-.001z" fill-rule="evenodd"/>
</symbol><symbol id="icon-loader" viewBox="0 0 157 122">
    <title>
        loader
    </title>
    <path d="M156.969 60.6v5.727c0 1.298-.69 2.435-1.721 3.065v4.479a3.59 3.59 0 0 1-3.59 3.589h-45.707a3.59 3.59 0 0 1-3.59-3.589v-4.088a3.587 3.587 0 0 1-2.63-3.458v-5.726a3.588 3.588 0 0 1 2.63-3.458v-7.053a3.588 3.588 0 0 1-2.63-3.458v-5.728a3.586 3.586 0 0 1 2.63-3.456V33.52a3.588 3.588 0 0 1 3.59-3.587h45.707a3.588 3.588 0 0 1 3.59 3.587v4.319a3.592 3.592 0 0 1 1.721 3.065v5.728a3.589 3.589 0 0 1-1.721 3.064v7.839a3.59 3.59 0 0 1 1.721 3.065zm-51.018 13.273h45.707V66.55h-45.707v7.323zm45.707-40.353h-45.707v6.854h45.707V33.52zm1.721 28.026h-23.717a.514.514 0 0 1-.514-.513c0-.282.231-.513.514-.513h21.994V47.206H131.33a.513.513 0 0 1 0-1.026h22.049V41.4h-50.058v4.78h20.05c.283 0 .514.23.514.513a.514.514 0 0 1-.514.513H105.95V60.52h8.545a.514.514 0 0 1 0 1.026h-11.174v3.978h50.058v-3.978zm-36.64-1.026h1.068a.514.514 0 0 1 0 1.026h-1.068a.513.513 0 0 1 0-1.026zm9.083-14.34h.895c.281 0 .513.23.513.513a.515.515 0 0 1-.513.513h-.895a.513.513 0 0 1 0-1.026zm15.16 35.998c0 .991-.805 1.793-1.794 1.793H97.153V94.347c0 .252-.054.492-.15.71-.017.042-.052.074-.075.112a1.754 1.754 0 0 1-.337.471c-.009.007-.01.018-.017.026-.053.049-.122.067-.177.105-.127.094-.251.187-.403.244-.106.039-.216.044-.328.065-.105.021-.199.063-.307.063-.028 0-.049-.016-.08-.016-.023-.003-.044.01-.07.007-.37-.028-.74-.056-1.122-.056-7.113 0-12.958 5.332-13.595 12.409a1.792 1.792 0 0 1-1.787 1.635H28.728a1.794 1.794 0 0 1-1.787-1.635c-.639-7.075-6.483-12.409-13.597-12.409a13.608 13.608 0 0 0-9.122 3.516 1.79 1.79 0 0 1-1.775.365 1.791 1.791 0 0 1-1.189-1.363c-1.131-5.955-4.047-25.817 5.859-31.42 2.65-1.498 5.716-2.196 9.648-2.196 1.187 0 7.184.059 8.643.192l1.768-50.425a1.795 1.795 0 0 1 1.78-1.563H69.64a1.79 1.79 0 0 1 1.714 1.266l14.734 47.763h7.479V1.794a1.793 1.793 0 1 1 3.586 0v78.59h42.035c.991 0 1.794.805 1.794 1.794zM93.565 65.802h-6.372l6.363 20.629.009.002V65.802zm.002 24.469l-11.49-2.358a.516.516 0 0 1-.459-.564c.03-.279.297-.445.564-.457l8.312 1.706c-.023-.054-.055-.103-.073-.16l-6.983-22.636-1.104-3.589-14.017-45.442H30.536l-1.789 50.592a1.798 1.798 0 0 1-1.983 1.553c-2.099-.239-8.498-.351-9.997-.351-3.286 0-5.793.55-7.882 1.735C3.208 73.51 2.811 85.064 4.3 95.066a17.165 17.165 0 0 1 9.046-2.577c8.423 0 15.443 5.932 16.944 14.044h46.855c1.469-7.944 8.229-13.796 16.422-14.037v-2.225zm-13.816-8.622L36.138 62.753a2.56 2.56 0 0 1-1.544-2.351V24.011a2.563 2.563 0 0 1 2.564-2.563h25.239c1.103 0 2.084.709 2.433 1.754l18.371 55.286a2.558 2.558 0 0 1-.703 2.697 2.548 2.548 0 0 1-1.728.673c-.346 0-.691-.069-1.019-.209zM62.397 24.01H37.158V60.4L80.77 79.297 62.397 24.01zm-6.666 15.772a.513.513 0 1 1 .917.463l-9.291 18.447a.512.512 0 0 1-.689.227.511.511 0 0 1-.227-.688l9.29-18.449zm-8.833 15.206a.51.51 0 0 1-.46-.738l9.93-20.262a.513.513 0 1 1 .922.45l-9.931 20.263a.513.513 0 0 1-.461.287zM59.671 84.57l14.358 1.476a.51.51 0 0 1 .458.558.514.514 0 0 1-.51.464l-.049-.001-14.512-1.492a.485.485 0 0 1-.272-.112c-13.712-11.049-20.962-15.12-28.596-16.589a.514.514 0 0 1-.405-.6.503.503 0 0 1 .601-.405c7.724 1.485 15.1 5.592 28.927 16.701zm16.882 1.668c.3-.032.532.138.569.417l.007.061a.51.51 0 0 1-.508.574.513.513 0 0 1-.508-.45c-.036-.281.159-.566.44-.602zm1.943.277l1.822.215a.51.51 0 0 1 .447.569.514.514 0 0 1-.508.453c-.021 0-.04-.003-.061-.005l-1.821-.216a.51.51 0 0 1-.448-.567.526.526 0 0 1 .569-.449zM12.872 99.793c6.134 0 11.107 4.972 11.107 11.103 0 6.133-4.973 11.104-11.107 11.104-6.135 0-11.109-4.969-11.109-11.104 0-6.131 4.974-11.103 11.109-11.103zm0 14.944a3.844 3.844 0 0 0 3.841-3.841 3.844 3.844 0 0 0-3.841-3.84 3.845 3.845 0 0 0-3.844 3.84 3.845 3.845 0 0 0 3.844 3.841zm0-6.191a2.35 2.35 0 1 1 0 4.7 2.35 2.35 0 0 1 0-4.7zm81.333-8.753c6.135 0 11.109 4.972 11.109 11.103 0 6.133-4.972 11.104-11.109 11.104-6.133 0-11.107-4.969-11.107-11.104 0-6.131 4.972-11.103 11.107-11.103zm0 14.944a3.845 3.845 0 0 0 3.844-3.841 3.845 3.845 0 0 0-3.844-3.84 3.844 3.844 0 0 0-3.841 3.84 3.843 3.843 0 0 0 3.841 3.841zm0-6.191a2.35 2.35 0 1 1 .002 4.7 2.35 2.35 0 0 1-.002-4.7z" fill-rule="evenodd"/>
</symbol><symbol id="icon-mouse" viewBox="0 0 35 55">
    <title>
        mouse
    </title>
    <path d="M17.5 52A14.5 14.5 0 0 1 3 37.5v-20a14.5 14.5 0 0 1 29 0v20A14.5 14.5 0 0 1 17.5 52zm0 3A17.5 17.5 0 0 0 35 37.5v-20a17.5 17.5 0 0 0-35 0v20A17.5 17.5 0 0 0 17.5 55zm0-43a1.5 1.5 0 0 1 1.5 1.5v4a1.5 1.5 0 1 1-3 0v-4a1.5 1.5 0 0 1 1.5-1.5zm0-1a2.5 2.5 0 0 0-2.5 2.5v4a2.5 2.5 0 1 0 5 0v-4a2.5 2.5 0 0 0-2.5-2.5z"/>
    <path class="icon-mouse__arrow" d="M17.5 28.382l5.552-2.776.447-.223.224.447.448.894.229.446-.448.224-6 3-.447.223-.447-.223-6-3-.458-.224.224-.447.448-.894.224-.447.447.223z"/>
    <path class="icon-mouse__arrow" d="M17.5 34.382l5.552-2.776.447-.223.224.447.448.894.229.446-.448.224-6 3-.447.223-.447-.223-6-3-.458-.224.224-.447.448-.894.224-.447.447.223z"/>
    <path class="icon-mouse__arrow" d="M17.5 40.382l5.552-2.776.447-.223.224.447.448.894.229.446-.448.224-6 3-.447.223-.447-.223-6-3-.458-.224.224-.447.448-.894.224-.447.447.223z"/>
</symbol><symbol id="icon-play" viewBox="0 0 28 36">
    <title>
        play
    </title>
    <path d="M27.685 18L0 36V0l27.685 18z" fill-rule="evenodd"/>
</symbol><symbol id="icon-r-dot-o" viewBox="0 0 271 210">
    <title>
        r-dot-o
    </title>
    <path d="M239.162 209.306c-17.556 0-31.84-14.089-31.84-31.407 0-17.317 14.284-31.406 31.84-31.406 17.555 0 31.838 14.09 31.838 31.406 0 17.318-14.283 31.407-31.838 31.407zm0-59.855c-15.921 0-28.874 12.762-28.874 28.448 0 15.687 12.953 28.45 28.874 28.45s28.873-12.763 28.873-28.45c0-15.686-12.952-28.448-28.873-28.448zm-45.115 55.961h-68.443l-60.769-99.08v99.08H1.157V97.88h58.51L-.001.306h123.857c37.44 0 67.899 30.036 67.899 66.956 0 27.932-17.608 52.89-44.004 62.673l46.296 75.477zm-66.781-2.958h61.49l-45.453-74.105 1.752-.596c26.159-8.905 43.734-33.215 43.734-60.49 0-35.29-29.129-63.999-64.933-63.999H5.281l56.589 92.54V95.8l6.927 11.33 58.469 95.323zm-123.143 0H61.87V100.838H4.123v101.616zM115.039 89.127L86.515 42.625h15.282c14.01 0 25.408 11.245 25.408 25.066 0 8.17-4.065 15.85-10.876 20.547l-1.29.89zM91.806 45.583l24.098 39.286c5.246-4.187 8.336-10.499 8.336-17.178 0-12.19-10.068-22.108-22.443-22.108h-9.991z" fill-rule="evenodd"/>
</symbol><symbol id="icon-r-logo" viewBox="0 0 280 220">
    <title>
        r-logo
    </title>
    <path d="M66.337 104.94H6V211h61.397V106.676l4.224 6.926L131.188 211h65.688l-46.375-75.848c30.967-10.374 49.765-41.756 44.3-73.954-5.466-32.197-33.567-55.618-66.222-55.192H6l60.337 98.933zm64.133-32.11a23.797 23.797 0 0 1-10.357 19.578l-26.62-43.483h12.78c13.281-.079 24.114 10.622 24.197 23.904zm144.953 112.524A30.712 30.712 0 1 1 244.713 155c16.861-.098 30.61 13.49 30.71 30.353z" fill-rule="evenodd"/>
</symbol><symbol id="icon-radio" viewBox="0 0 42 82">
    <title>
        radio
    </title>
    <path d="M17.4 20.447a1.292 1.292 0 0 1 2.584 0v13.491a1.9 1.9 0 0 1 .645 1.418v11.66a9.223 9.223 0 0 1 4.212 1.89 1.894 1.894 0 0 1 .566 1.356v19.17a14.969 14.969 0 0 1-1.552 6.181C22.378 78.715 18.848 82 12.886 82h-.178c-6.072.064-9.654-3.251-11.157-6.385A15 15 0 0 1 0 69.432V50.261a1.914 1.914 0 0 1 .567-1.356c.48-.474 3.226-2.694 12.139-2.688 1.529 0 2.865.068 4.051.177V35.356a1.9 1.9 0 0 1 .647-1.421V20.447zm-4.7 29.6c-5.192 0-7.758.8-8.829 1.283v18.1s0 .079.016.318.052.6.127 1.029a10.982 10.982 0 0 0 1 3.115c1.194 2.192 2.992 4.2 7.692 4.266 4.13-.047 5.969-1.617 7.222-3.45a11.13 11.13 0 0 0 1.592-4.958 2.433 2.433 0 0 0 .014-.318v-18.1a8.246 8.246 0 0 0-.829-.319 26.122 26.122 0 0 0-8-.964zM8.2 60.126h9.131v2.734H8.207v-2.729zm0-5.466h9.131v2.74H8.207v-2.735z"/>
    <path class="icon-radio__signal" d="M28.769 17.563a10.963 10.963 0 0 1-4.353 11.982 1.307 1.307 0 0 1-1.8-.313 1.27 1.27 0 0 1 .316-1.78 8.474 8.474 0 0 0 3.659-6.936 8.364 8.364 0 0 0-.312-2.269 8.549 8.549 0 0 0-7.673-6.19 1.28 1.28 0 1 1 .173-2.553 11.137 11.137 0 0 1 9.988 8.057z"/>
    <path class="icon-radio__signal" d="M35.1 15.824a17.322 17.322 0 0 1-3.037 15.384 1.3 1.3 0 0 1-1.812.237 1.266 1.266 0 0 1-.238-1.793A14.894 14.894 0 0 0 23.53 6.568a1.277 1.277 0 0 1-.73-1.656 1.3 1.3 0 0 1 1.674-.726A17.564 17.564 0 0 1 35.1 15.824z"/>
    <path class="icon-radio__signal" d="M39.172 31.657a1.3 1.3 0 0 1-1.747.527 1.271 1.271 0 0 1-.536-1.73 21.008 21.008 0 0 0-7.877-28.079 1.267 1.267 0 0 1-.445-1.751A1.3 1.3 0 0 1 30.34.18a23.661 23.661 0 0 1 10.774 14 23.428 23.428 0 0 1-1.942 17.481z"/>
</symbol><symbol id="icon-rezult-logotype" viewBox="0 0 1003 212">
    <title>
        rezult-logotype
    </title>
    <path d="M62.366 99.964L2 1h122.635c37.109 0 67.192 29.732 67.192 66.409-.1 28.454-18.296 53.689-45.261 62.773l46.404 75.845h-65.727l-59.593-97.4-4.227-6.93v104.329H2V99.964h60.366zM821.5 206.26h-61.425V1.003H821.5v205.26-.003zm180.5-26.638a30.712 30.712 0 1 1-30.71-30.353c16.862-.097 30.61 13.491 30.71 30.353zM126.523 67.845a23.8 23.8 0 0 1-10.357 19.605L89.534 43.922h12.784c13.29-.077 24.126 10.633 24.204 23.923h.001zm160.638 100.182c-17.3 0-24.683-11.874-24.683-26.523h108c.625-3.978.938-7.998.939-12.024 0-44.485-37.724-80.547-84.258-80.547S202.9 84.995 202.9 129.48s37.725 80.523 84.26 80.523c34.554-.643 60.765-14.25 78.633-40.824l-50.2-20.424c-3.35 6.328-7.14 11.122-11.371 14.381-4.237 3.267-10.379 4.891-17.061 4.891zm-22.133-59.349c.141-12.123 10.009-21.876 22.132-21.876 12.124 0 21.992 9.753 22.133 21.876h-44.265zM542.17 55.013H391.931v44.951h69.026L388.3 172.932v32.985h153.87v-44.951H471l71.171-71.509V55.013h-.001zm368.85 0V1.003h-61.43v205.26h61.43v-106.3h22.45l27.5-44.95h-49.95zm-240.464 0v85.764c-.114 11.827-9.734 21.354-21.561 21.354s-21.447-9.527-21.561-21.354V55.013h-61.423v95.382c0 32.92 27 59.608 60.311 59.608a60.462 60.462 0 0 0 44.234-19.106v15.363h61.423V55.013h-61.423z" stroke-width="2" stroke-linecap="square" fill-rule="evenodd"/>
</symbol><symbol id="icon-sound-0" viewBox="0 0 122 100">
    <title>
        sound-0
    </title>
    <path d="M94.952 50.039L80 35.083l5.958-5.966 14.958 14.96 14.709-14.702 5.875 5.892-14.702 14.694 14.952 14.956-5.958 5.966-14.958-14.96-14.709 14.702-5.875-5.892L94.952 50.04zM17.542 75H.875V25h16.667L59.208 0v100L17.542 75zm-8.334-8.333h8.334V33.333H9.208v33.334zm16.667 0L50.833 84.32V16.058L25.875 29.167v37.5z" fill-rule="evenodd"/>
</symbol><symbol id="icon-sound-100" viewBox="0 0 105 100">
    <title>
        sound-100
    </title>
    <path d="M16.667 75l41.666 25V0L16.667 25H0v50h16.667zM75 33.333h8.333v33.334H75V33.333zM25 66.667L49.958 84.32V16.058L25 29.167v37.5zm-16.667 0h8.334V33.333H8.333v33.334zm87.5-45.834h8.334v58.334h-8.334V20.833z" fill-rule="evenodd"/>
</symbol><symbol id="icon-sound-50" viewBox="0 0 85 100">
    <title>
        sound-50
    </title>
    <path d="M17.52 75H.855V25h16.667L59.187 0v100L17.522 75zm8.334-8.333L50.813 84.32V16.058L25.854 29.167v37.5zm-16.666 0h8.333V33.333H9.187v33.334zm66.666-33.334h8.334v33.334h-8.334V33.333z" fill-rule="evenodd"/>
</symbol><symbol id="icon-sound" viewBox="0 0 59 100">
    <title>
        sound
    </title>
    <path d="M16.667 75H0V25h16.667L58.333 0v100L16.667 75zm-8.334-8.333h8.334V33.333H8.333v33.334zm16.667 0L49.958 84.32V16.058L25 29.167v37.5z" fill-rule="evenodd"/>
</symbol><symbol id="icon-squares" viewBox="0 0 56 56">
    <title>
        squares
    </title>
    <path d="M30 56V30h26v26H30zm0-56h26v26H30V0zm2 24h22V2H32v22zM0 30h26v26H0V30zM0 0h26v26H0V0z" fill-rule="evenodd"/>
</symbol><symbol id="icon-tag-o" viewBox="0 0 16 23">
    <title>
        tag-o
    </title>
    <path d="M8 22.72c-.933 0-4.356-5.658-4.356-5.75C2.311 14.72 0 10.53 0 8a8 8 0 1 1 16 0c0 2.576-2.267 6.716-3.644 8.97 0 .092-3.423 5.75-4.356 5.75zM8 .64A7.26 7.26 0 0 0 .889 8c0 3.864 5.822 12.42 7.111 13.708C9.289 20.42 15.111 11.864 15.111 8A7.26 7.26 0 0 0 8 .64zm0 11.5A4.142 4.142 0 1 1 12 8a4.055 4.055 0 0 1-4 4.14zm0-7.36A3.222 3.222 0 1 0 11.111 8 3.148 3.148 0 0 0 8 4.78z" fill-rule="evenodd"/>
</symbol><symbol id="icon-tag" viewBox="0 0 16 23">
    <title>
        tag
    </title>
    <path d="M8 22.72c-.933 0-4.356-5.658-4.356-5.75C2.311 14.72 0 10.53 0 8a8 8 0 1 1 16 0c0 2.576-2.267 6.716-3.644 8.97 0 .092-3.423 5.75-4.356 5.75zM8 4.78A3.222 3.222 0 1 0 11.111 8 3.148 3.148 0 0 0 8 4.78z" fill-rule="evenodd"/>
</symbol><symbol id="icon-wood-log" viewBox="0 0 171 83">
    <title>
        wood-log
    </title>
    <path d="M171 60.16c0 12.593-10.142 22.838-22.599 22.84H22.6C10.136 83 0 72.755 0 60.16s10.136-22.84 22.598-22.84h4.184a22.891 22.891 0 0 1-5.137-14.484C21.645 10.245 31.781 0 44.245 0h84.569c12.464 0 22.603 10.245 22.603 22.836 0 5.343-1.807 10.41-5.125 14.484h2.108c12.458 0 22.6 10.247 22.6 22.84zm-8.544-15.298c-4.26-.563-9.958 1.822-14.562 3.771-1.203.51-2.344.986-3.388 1.39-4.13 1.593-18.487 5.525-24.755 5.525-6.758 0-16.773-1.941-23.29-4.512-4.695-1.854-10.644-2.983-13.813-3.498a22.866 22.866 0 0 1 3.781 12.622c0 .979-.082 1.937-.199 2.884 3.184.453 14.39 1.941 26.073 2.158 14.075.255 43.108-4.26 56.626-7.544a20.89 20.89 0 0 0-6.473-12.796zM148.4 81.069c7.13 0 13.433-3.666 17.153-9.228-2.166 1.064-5.254 2.03-10.771 2.529-4.728.426-10.581.305-17.988.15-5.874-.119-12.538-.26-20.09-.146-11.693.172-19.321 4.31-22.766 6.695H148.4zm-57.626 0c1.623-1.448 10.192-8.391 25.903-8.625 7.604-.111 14.263.027 20.157.15 7.351.152 13.162.273 17.779-.146 7.907-.712 10.478-2.408 12.733-3.911a20.992 20.992 0 0 0 1.748-8.377c0-.186-.022-.365-.028-.551-13.365 3.21-41.061 7.532-55.589 7.532-.416 0-.817-.004-1.206-.011-11.826-.217-23.167-1.728-26.347-2.183-1.536 7.238-6.474 13.207-13.034 16.122h17.884zM84.518 60.16c0-11.531-9.282-20.908-20.691-20.908-1.519 0-2.995.176-4.422.491l-.004.004-.182.044-.091.025a20.2 20.2 0 0 0-2.426.739c-.067.025-.132.048-.196.073a20.565 20.565 0 0 0-4.611 2.481c-.025.017-.046.034-.069.052a21.075 21.075 0 0 0-1.936 1.591 20.957 20.957 0 0 0-5.78 9.082c-.064.205-.112.416-.171.622-.11.393-.216.789-.304 1.192-.053.244-.097.49-.142.736-.072.403-.135.81-.185 1.223-.028.215-.057.432-.076.649a21.747 21.747 0 0 0-.095 1.904c0 .643.038 1.277.095 1.905.021.217.05.434.076.651.05.411.111.818.185 1.221.045.245.089.491.142.735.09.401.194.795.304 1.187.059.209.109.422.173.629 2.662 8.444 10.492 14.581 19.715 14.583 11.411 0 20.691-9.381 20.691-20.911zm8.103-22.84c-1.44-.215-2.88-.43-4.284-.643-4.616-.699-8.976-1.357-11.292-1.571-5.138-.483-12.04-.128-13.787-.023a22.687 22.687 0 0 1-1.691 2.354c.745-.077 1.5-.117 2.263-.117h28.791zm-46.138 8.225c-.752.079-1.501.135-2.238.135a22.42 22.42 0 0 1-4.598-.478 22.808 22.808 0 0 1 3.566 5.646 23.005 23.005 0 0 1 3.27-5.303zm8.288 35.524c-5.13-2.279-9.259-6.43-11.554-11.593-2.318 5.262-6.452 9.348-11.519 11.593h23.073zM22.6 39.252c-11.409 0-20.693 9.377-20.693 20.908 0 11.53 9.284 20.909 20.689 20.909 8.936 0 16.781-5.72 19.614-14.254a23.12 23.12 0 0 1-.467-1.843c-.046-.221-.082-.442-.122-.663a23.17 23.17 0 0 1-.216-1.434 22.98 22.98 0 0 1-.177-2.717c0-.689.042-1.378.104-2.064.019-.221.046-.439.073-.658.057-.475.129-.945.214-1.415.042-.227.078-.455.126-.68.133-.614.283-1.229.465-1.834a20.879 20.879 0 0 0-6.551-9.55 22.433 22.433 0 0 1-2.645-1.324c-.167-.096-.327-.2-.49-.302a22.448 22.448 0 0 1-2.025-1.403c-.093-.073-.2-.127-.291-.202a20.327 20.327 0 0 0-7.608-1.474zM44.245 1.931c-11.409 0-20.691 9.379-20.693 20.905 0 6.647 3.093 12.564 7.889 16.398a20.228 20.228 0 0 0 2.088 1.46c.145.088.285.18.429.264a20.383 20.383 0 0 0 10.285 2.792 20.49 20.49 0 0 0 4.431-.501c.051-.046.108-.083.16-.129a22.703 22.703 0 0 1 2.01-1.62l.04-.031a22.418 22.418 0 0 1 4.822-2.596c.082-.032.167-.061.249-.092a22.053 22.053 0 0 1 2.371-.745c.049-.011.097-.034.146-.046 4.171-3.997 6.464-9.365 6.464-15.152 0-11.526-9.281-20.907-20.691-20.907zm14.085 0c2.153 1.016 4.775 2.391 7.096 4.009 4.216 2.938 7.722 2.905 11.112 2.884l.929-.006c3.57 0 10.188-1.042 14.66-2.728 1.608-.607 3.519-1.542 5.537-2.533a145.276 145.276 0 0 1 3.395-1.626H58.33zm70.481.004h-21.643c-1.811 0-5.459 1.786-8.672 3.36-1.97.968-4.007 1.964-5.704 2.603-4.672 1.763-11.592 2.854-15.327 2.854l-.914.003c-.317.002-.64.004-.963.004-3.276 0-6.96-.244-11.245-3.231-4.315-3.009-9.923-5.23-10.877-5.597v.002h-.165c7.476 3.32 12.83 10.612 13.457 19.219 3.059-.14 12.955-.382 18.941 1.98 6.734 2.655 19.768 5.36 25.831 5.36 5.77 0 17.537-4.8 21.107-7.252 3.24-2.217 9.903-5.608 15.66-5.364-2.848-8.108-10.496-13.941-19.486-13.941zm20.692 20.903c0-1.711-.226-3.366-.611-4.958-5.396-.568-12.219 2.926-15.181 4.954-3.683 2.529-15.862 7.586-22.181 7.586-6.356 0-19.492-2.721-26.522-5.495-5.588-2.202-15.261-1.968-18.176-1.841-.038 3.502-.904 6.919-2.451 10.01 2.75-.134 8.358-.322 12.839.094 2.369.221 6.555.853 11.4 1.584 7.543 1.141 16.097 2.433 20.25 2.535.338.009.69.013 1.045.015h.652c6.623-.031 15.509-1.177 19.872-3.154 3.988-1.807 12.713-5.19 18.276-5.63.513-1.833.792-3.746.788-5.7zm-1.459 7.716c-4.66.576-11.744 3.074-16.824 5.372-1.157.524-2.596.989-4.199 1.394h16.703a20.864 20.864 0 0 0 4.32-6.766zm-75.153 8.698a22.7 22.7 0 0 1 8.102 6.088c1.733.234 9.884 1.421 16.162 3.901 6.328 2.494 16.047 4.376 22.596 4.376 6.057 0 20.04-3.838 24.077-5.395 1.024-.396 2.149-.87 3.329-1.373 3.96-1.67 8.689-3.642 12.897-3.951a20.419 20.419 0 0 0-11.654-3.646H72.891zm34.28-17.823c-5.339 0-13.775-3.579-14.136-3.727l-1.93-.826 1.881-.931c.338-.167 8.328-4.076 14.429-4.076l.385.004c6.124.175 13.576 3.915 13.891 4.074l1.881.954-1.947.801c-.375.153-9.128 3.727-14.454 3.727zm.58-7.629l-.335-.005c-3.885 0-8.802 1.81-11.525 2.958 2.822 1.058 7.864 2.748 11.282 2.748 3.443 0 8.691-1.715 11.6-2.773-2.594-1.109-7.178-2.818-11.022-2.928z" fill-rule="evenodd"/>
</symbol><symbol id="icon-wood-samples" viewBox="0 0 120 153">
    <title>
        wood-samples
    </title>
    <path d="M113.811 67.991c0-3.114 3.455-6.033 6.176-8.228V81.34c-.253-.391-.508-.788-.779-1.2-2.404-3.678-5.397-8.253-5.397-12.149zm6.177 13.351h-.001v-.002l.001.002zm0 12.1c-1.37-2.545-3.076-5.032-4.754-7.462-4.878-7.066-9.487-13.737-6.416-21.619 1.424-3.89 3.539-6.816 5.782-9.914l.761-1.055c.607-.819 1.28-1.6 1.994-2.425.909-1.054 1.823-2.144 2.633-3.335V57.79l-.567.459c-3.01 2.423-7.132 5.738-7.132 9.743 0 4.359 3.131 9.152 5.647 12.999.673 1.031 1.307 1.998 1.828 2.877l.224-.137v9.711zm-3.779-43.489c-.699.809-1.425 1.648-2.073 2.523l-.764 1.061c-2.307 3.187-4.484 6.197-5.975 10.274-3.367 8.639 1.693 15.968 6.588 23.055 2.279 3.304 4.623 6.714 6.003 10.15v12.729c-.796-3.211-1.989-6.532-3.774-9.599-1.51-2.508-3.29-4.957-5.009-7.328-2.918-4.019-5.935-8.178-7.742-12.751-3.358-8.571-1.633-17.789 5.275-28.183 1.035-1.553 2.166-3.089 3.258-4.576 3.343-4.547 6.766-9.255 7.994-15.092v12.322c-.896 2.06-2.359 3.767-3.781 5.415zM110.81.991h1.41c1.127 3.132 3.293 5.777 5.401 8.332.802.974 1.623 1.979 2.367 2.984v11.561c-1.016-5.45-3.643-10.937-6.048-15.962-1.165-2.429-2.261-4.74-3.13-6.915zm3.044 0h5.033c.607 0 1.101.499 1.101 1.114v7.697c-.399-.497-.8-.989-1.198-1.468-1.898-2.303-3.845-4.68-4.936-7.343zm4.848 29.973c-.959 5.942-4.346 10.547-7.93 15.423-1.103 1.5-2.246 3.052-3.3 4.635-7.207 10.85-8.983 20.537-5.424 29.617 1.878 4.761 4.955 8.997 7.929 13.097 1.701 2.341 3.46 4.765 4.932 7.207 3.229 5.545 5.081 13.485 5.081 21.777v2.212h-.002a1.11 1.11 0 0 1-1.101 1.115h-1.259c-.088-7.839-4.325-16.669-8.413-22.495-1.567-2.254-3.435-4.493-5.239-6.657-5.377-6.452-10.936-13.124-10.352-21.888.515-5.402 2.65-11.92 4.326-15.88.914-2.315 2.237-4.314 3.516-6.246 1.396-2.109 2.838-4.291 3.787-6.914 2.06-5.735 1.151-10.181-.988-15.514-.898-2.1-1.661-4.266-2.397-6.36-.975-2.772-1.983-5.635-3.297-8.293-.363-.737-.873-1.653-1.448-2.682-2.011-3.603-4.986-8.94-4.522-12.127h3.468c-.259 4.515 2.617 10.639 4.563 14.782.283.603.548 1.167.792 1.704 1.885 3.816 3.897 6.812 7.59 9.022l.152.084c.905.494 1.554.85 2.112.85.227 0 .44-.059.649-.193.677-.434.756-1.381.669-3.078-.115-2.902-1.063-5.804-1.978-8.61-.424-1.295-.822-2.52-1.131-3.726-.603-2.085-1.51-4.075-2.386-6-.757-1.656-1.464-3.23-1.989-4.834h4.059c.92 2.394 2.118 4.921 3.395 7.59 3.401 7.096 7.253 15.14 6.136 22.382zm-10.684-18.726c.316 1.231.724 2.479 1.153 3.798.883 2.706 1.794 5.503 1.902 8.199.045.901.026 1.358-.008 1.588-.289-.115-.775-.38-1.277-.653-3.368-2.017-5.236-4.81-6.991-8.362-.236-.518-.501-1.089-.789-1.695-1.898-4.044-4.68-10.025-4.375-14.122h5.871c.565 1.862 1.402 3.702 2.212 5.481.855 1.874 1.737 3.811 2.302 5.766zm-12.222 1.64c.559 1.002 1.06 1.896 1.413 2.612 1.271 2.573 2.219 5.269 3.222 8.121.746 2.118 1.517 4.309 2.43 6.438 1.996 4.977 2.852 9.119.961 14.388-.886 2.448-2.215 4.457-3.622 6.583-1.322 1.999-2.69 4.066-3.657 6.515-1.712 4.044-3.901 10.744-4.437 16.343-.63 9.413 5.132 16.326 10.704 23.011 1.866 2.239 3.629 4.352 5.16 6.556 3.953 5.631 8.047 14.132 8.134 21.602h-1.777c-1.391-3.956-8.861-21.159-14.47-22.537-1.139-.28-2.176.048-3.014.952-4.065 4.478-3.078 10.501-2.209 15.815.335 2.037.636 3.969.691 5.77H80.878c.174-.34.38-.719.578-1.079.388-.707.789-1.44 1.095-2.134.649-1.678 1.222-3.398 1.773-5.057.963-2.891 1.957-5.884 3.387-8.676 4.126-8.476 2.307-16.188.378-24.352-.852-3.609-1.733-7.34-2.084-11.194-.522-6.258 3.173-10.932 7.085-15.88 3.062-3.873 6.227-7.877 7.33-12.783 2.145-9.532-2.369-18.079-7.561-25.878-2.54-4.02-5.168-8.179-7.443-12.454-1.151-2-2.17-3.548-3.685-5.082-.164-.166-.279-.33-.396-.489h9.74c-.384 3.721 2.533 8.964 4.721 12.889zM84.084 7.314c2.291 4.306 4.934 8.489 7.498 12.548 5.009 7.527 9.367 15.726 7.348 24.686-1.023 4.562-4.079 8.428-7.032 12.163-3.928 4.966-7.988 10.102-7.414 16.979.361 3.971 1.256 7.757 2.121 11.419 1.862 7.886 3.622 15.333-.257 23.295-1.476 2.886-2.489 5.934-3.469 8.882-.548 1.644-1.113 3.342-1.737 4.954-.269.614-.655 1.315-1.02 1.98-.428.779-.735 1.357-.931 1.828h-15.62c2.42-2.386 4.724-5.784 6.965-9.107 1.276-1.893 2.481-3.679 3.634-5.158 5.326-6.869 9.223-12.876 6.951-22.341-1.018-4.119-1.199-8.739-1.372-13.208-.327-8.402-.666-17.09-6.343-23.825-5.764-6.42-7.167-13.439-8.792-21.568-.384-1.923-.778-3.895-1.245-5.928l-.185-.768C61.435 16.808 58.865 6.106 52.077.989h6.117c1.402 3.836 7.256 10.394 11.842 10.394.252 0 .5-.02.743-.059 1.591-.269 2.628-.949 3.08-2.021 1.002-2.375-1.279-5.772-2.947-8.251-.015-.023-.025-.04-.042-.061h8.461l-.043.108c.308.125.455.315.734.7.178.247.371.508.629.772 1.405 1.422 2.329 2.827 3.433 4.743zm-5.629 10.194l-.362-.004c-3.609 0-5.904 1.421-6.992 4.282-1.985 4.017-.416 10.056.621 14.049l.147.567c1.8 6.08 4.778 14.43 9.831 16.743.984.434 1.979.654 2.955.654 2.714 0 5.189-1.73 6.627-4.64 2.654-5.554 1.258-11.302-.448-16.173-1.461-4.576-4.883-15.292-12.379-15.478zm11.458 30.97c-1.589 3.217-4.643 4.555-7.598 3.256-4.993-2.285-7.896-12.087-8.981-15.75l-.14-.542c-.98-3.771-2.457-9.468-.701-13.035.886-2.324 2.612-3.36 5.599-3.36l.322.004c6.419.161 9.606 10.146 10.976 14.43 1.608 4.59 2.928 9.964.523 14.997zM84.136 33.39c-.823-1.309-2.932-4.352-4.759-4.352-.38 0-1.302.147-1.662 1.465-.788 2.257 1.045 8.9 3.385 12.255.981 1.41 1.985 2.124 2.977 2.124h.002c1.041 0 1.912-.748 2.587-2.219 1.029-2.238-.719-6.393-2.53-9.273zm-.057 9.949c-.212 0-.808-.144-1.734-1.47-2.158-3.093-3.77-9.2-3.177-10.901.077-.279.166-.371.209-.386.459 0 1.806.99 3.474 3.639 1.98 3.15 3.027 6.498 2.433 7.79-.228.497-.687 1.328-1.205 1.328zM72.455 8.697c-.234.557-.883.929-1.928 1.105-3.552.604-9.07-5.253-10.684-8.813h9.192c.187.286.383.587.616.933 1.302 1.935 3.48 5.176 2.804 6.775zM61.703 24.506l.18.764c.463 2.011.854 3.969 1.235 5.877 1.67 8.35 3.111 15.562 9.143 22.282 5.319 6.31 5.646 14.725 5.963 22.863.176 4.547.36 9.25 1.414 13.517 2.114 8.804-1.431 14.267-6.668 21.02-1.183 1.517-2.403 3.325-3.692 5.238-2.595 3.848-5.278 7.8-8.011 9.978h-8.083c.714-1.763 1.126-3.56 1.51-5.308.322-1.479.628-2.877 1.107-4.237.461-1.245 1.238-2.39 2.062-3.602 1.674-2.467 3.408-5.021 2.33-8.474-1.427-4.606-5.373-6.066-9.19-7.479-3.417-1.268-6.63-2.496-7.798-5.93v-8.757c4.797 4.333 12.724 9.976 21.509 9.976.702 0 1.414-.035 2.126-.113 3.129-.327 5.449-1.749 6.892-4.23 5.191-8.903-2.898-28.832-3.838-31.075-2.282-5.446-5.033-10.746-7.696-15.87-1.35-2.598-2.7-5.196-4.005-7.839-1.418-2.689-3.613-5.633-5.937-8.749-4.146-5.558-8.433-11.307-9.052-16.476V2.105c0-.615.495-1.116 1.102-1.116h4.91c7.819 3.967 10.628 15.721 12.487 23.517zm7.08 74.946c-2.021-.201-4.05 1.555-4.773 3.25-.456 1.07-.365 2.064.289 2.764.229.215.64.47 1.299.47 1.92 0 5.17-2.384 5.332-4.363.044-.522-.075-1.773-2.147-2.121zm-3.185 4.939c-.125 0-.224-.022-.227-.022-.255-.273-.059-.828.038-1.057.471-1.101 1.84-2.334 3.054-2.334l.119.002c.32.055.853.186.83.464-.087 1.046-2.544 2.947-3.814 2.947zM50.902 52.299c3.859 3.817 7.849 7.767 10.052 12.752.845 2.021.721 2.845.513 3.012-.534.435-2.897-.37-5.468-2.23-3.879-2.618-9.239-6.921-12.792-11.222V43.717c2.216 3.144 4.99 5.904 7.695 8.582zm-7.697-8.584h.002v.002l-.002-.002zm0-14.91c3.01 5.938 8.052 12.242 12.606 17.91 1.909 2.375 3.713 4.62 5.241 6.682 4.747 6.253 7.4 12.525 8.601 20.317.047.369.117.826.197 1.333.3 1.924.803 5.144.102 6.394-1.053 2.501-3.261 1.994-6.771.967l-.562-.163c-6.432-2.097-11.151-6.727-16.186-12.076-.389-.474-.78-.923-1.163-1.363-.75-.865-1.454-1.69-2.065-2.587v-9.267c3.591 3.956 8.381 7.758 11.928 10.152.705.509 3.728 2.601 5.891 2.601.533 0 1.015-.128 1.396-.438 1.458-1.182.314-3.92-.068-4.833-2.327-5.268-6.423-9.322-10.384-13.241-3.18-3.145-6.465-6.398-8.721-10.206l-.042.026V28.805zm2.089 42.392c5.216 5.542 10.083 10.311 16.881 12.526l.58.169c1.51.443 3.111.911 4.556.911 1.678 0 3.141-.63 4.002-2.673.925-1.641.412-4.925.039-7.322-.075-.489-.144-.928-.192-1.309-1.246-8.082-3.992-14.572-8.895-21.033-1.541-2.078-3.355-4.334-5.272-6.724-5.3-6.594-11.294-14.062-13.789-20.641V13.175c1.797 4.013 4.848 8.112 7.837 12.114 2.286 3.067 4.446 5.962 5.798 8.527 1.3 2.635 2.654 5.242 4.009 7.85 2.649 5.097 5.386 10.367 7.645 15.754.908 2.169 8.738 21.436 3.927 29.688-1.201 2.061-3.078 3.2-5.738 3.478-9.702 1.045-18.698-5.873-23.478-10.418V68.742c.301.361.604.72.921 1.085.374.43.757.868 1.169 1.37zm2.236 38.99c-.317 1.82-1.647 3.893-2.933 5.896a63.65 63.65 0 0 0-1.392 2.247v-11.528c.731.268 1.42.446 2.01.592 1.919.472 2.566.631 2.315 2.793zm-4.325-16.036c1.806 2.182 4.56 3.238 7.274 4.245 3.628 1.342 7.056 2.612 8.26 6.491.853 2.736-.531 4.775-2.132 7.136-.838 1.236-1.704 2.514-2.235 3.946-.516 1.461-.847 2.973-1.165 4.433-.412 1.881-.854 3.819-1.681 5.643h-7.219a1.106 1.106 0 0 1-1.102-1.113v-2.141c-.088-1.563 1.311-3.751 2.669-5.866 1.37-2.134 2.785-4.342 3.161-6.514.415-3.563-1.554-4.049-3.459-4.517-.727-.179-1.537-.39-2.371-.756V94.151zm-20.644 55.898h74.541v-16.231h2.83v19.098H19.73V24.748h15.018v2.866H22.561v122.435zM9.99 27.024h6.692v2.867H12.82v120.242h3.862V153H9.99V27.024zM0 30.903h6.693v2.867H2.83v116.363h3.863V153H0V30.903zm99.903 95.144h-3.056c-.053-1.916-.366-3.917-.712-6.023-.851-5.207-1.733-10.592 1.822-14.511.461-.498.935-.647 1.541-.502 4.366 1.071 11.427 16.079 13.221 21.036h-6.504c-.227-.588-.451-1.179-.677-1.785-1.004-2.703-2.041-5.496-3.601-7.735l-.733-1.053-.571 1.153c-1.263 2.557-1.54 6.531-.73 9.42zm4.208-1.243c.156.424.315.828.472 1.243h-3.095c-.695-2.046-.675-5.077-.008-7.372 1.043 1.853 1.847 4.02 2.631 6.129z" fill-rule="evenodd"/>
</symbol><symbol id="icon-wood" viewBox="0 0 115 147">
    <title>
        wood
    </title>
    <path d="M115 111.889v35.014H22.705V0H115v111.889zm-23.574 31.728h3.358c-.894-2.397-1.814-4.855-3.003-6.959-.619 2.119-.744 4.777-.355 6.959zm-5.796-5.413c.31 1.874.591 3.674.732 5.413h3.288c-.495-3.093-.089-6.795 1.157-9.307l.656-1.321.844 1.207c1.795 2.566 2.989 5.767 4.144 8.865l.212.556h7.476c-2.71-6.72-9.996-21.486-14.639-22.621-.697-.166-1.242.004-1.773.576-4.09 4.491-3.076 10.663-2.097 16.632zm-59.668-3.953c.121-.188.237-.374.36-.564 1.479-2.296 3.01-4.672 3.374-6.758.289-2.479-.455-2.661-2.663-3.201a36.006 36.006 0 0 1-1.071-.28v10.803zm0-12.657c.516.163 1.018.299 1.486.414 2.192.537 4.458 1.093 3.981 5.178-.433 2.489-2.062 5.02-3.638 7.466-.645 1-1.291 2.013-1.829 2.986v5.979h8.929c.588-1.64.975-3.329 1.338-4.98.366-1.673.747-3.406 1.341-5.081.611-1.641 1.608-3.106 2.573-4.523 1.842-2.707 3.434-5.043 2.453-8.179-1.386-4.446-5.331-5.902-9.506-7.44-2.556-.944-5.133-1.939-7.128-3.636v11.816zm0-56.955c4.027 4.443 9.444 8.738 13.481 11.452 2.958 2.132 5.678 3.055 6.292 2.557.239-.192.383-1.136-.59-3.453-2.536-5.714-7.127-10.241-11.568-14.617-2.635-2.597-5.303-5.281-7.615-8.224v12.285zm0-15.185c2.492 3.59 5.708 6.77 8.841 9.857 4.559 4.493 9.272 9.139 11.95 15.177.44 1.047 1.757 4.184.079 5.539-.439.355-.994.502-1.607.502-2.489 0-5.968-2.397-6.779-2.981-3.688-2.479-8.533-6.278-12.484-10.331v10.948c.365.443.742.884 1.134 1.334.44.504.89 1.018 1.339 1.562 5.794 6.131 11.224 11.438 18.626 13.841l.647.187c4.039 1.177 6.58 1.758 7.791-1.108.807-1.433.228-5.124-.117-7.329a51.117 51.117 0 0 1-.226-1.528c-1.383-8.93-4.436-16.12-9.898-23.286-1.759-2.364-3.835-4.937-6.032-7.66-4.66-5.776-9.755-12.128-13.264-18.251v13.527zm0-17.203c3.325 6.8 9.281 14.19 14.624 20.813 2.207 2.738 4.294 5.324 6.067 7.706 5.643 7.406 8.803 14.844 10.237 24.108.055.436.134.939.221 1.501.429 2.747 1.019 6.51-.045 8.392-.991 2.341-2.675 3.064-4.606 3.064-1.663 0-3.505-.537-5.242-1.045l-.668-.194c-7.824-2.538-13.424-8.004-19.427-14.357a60.078 60.078 0 0 0-1.161-1.358v12.784c5.731 5.144 15.399 11.91 25.774 10.798 3.062-.319 5.222-1.625 6.604-3.987 5.536-9.458-3.475-31.542-4.52-34.028-2.599-6.174-5.749-12.214-8.798-18.056-1.558-2.989-3.116-5.977-4.613-8.997-1.555-2.941-4.041-6.259-6.672-9.774-2.828-3.772-5.692-7.618-7.775-11.424v14.054zm0-28.965v10.903c1.908 4.661 5.586 9.575 9.174 14.365 2.674 3.572 5.2 6.945 6.831 10.027 1.502 3.03 3.055 6.008 4.609 8.986 3.065 5.873 6.231 11.947 8.857 18.189 1.081 2.571 10.39 25.413 4.417 35.618-1.662 2.843-4.331 4.473-7.932 4.848-.819.089-1.639.13-2.447.13-9.387 0-17.917-5.576-23.509-10.349v11.221c1.778 2.281 4.676 3.398 7.731 4.527 4.393 1.619 8.934 3.294 10.576 8.572 1.24 3.958-.755 6.885-2.681 9.714-.949 1.388-1.842 2.701-2.373 4.128-.552 1.559-.903 3.16-1.274 4.856-.334 1.513-.688 3.059-1.194 4.596h10.386c2.583-2.593 5.122-6.302 7.59-9.948 1.484-2.194 2.888-4.265 4.249-6.005 6.027-7.739 10.106-14.001 7.674-24.092-1.213-4.891-1.425-10.281-1.628-15.493-.364-9.327-.74-18.972-6.862-26.205-6.941-7.702-8.599-15.969-10.521-25.539-.438-2.187-.888-4.431-1.421-6.737l-.208-.875c-1.939-8.102-4.793-19.911-12.013-25.437h-8.031zm18.729 0c2.485 4.027 7.858 9.196 11.47 8.583 1.203-.201 1.95-.628 2.219-1.266.728-1.714-1.419-5.075-2.925-7.317H44.691zm23.121.296c-.097-.1-.177-.198-.261-.296h-9.984c1.703 2.62 3.396 5.728 2.428 8.012-.519 1.229-1.713 2.008-3.544 2.316a5.37 5.37 0 0 1-.855.068c-4.711 0-10.573-5.983-12.928-10.396h-5.987c6.511 6.274 9.176 17.278 11.03 25.024l.213.88c.537 2.33.991 4.591 1.433 6.794 1.869 9.318 3.484 17.363 10.117 24.721 6.533 7.72 6.923 17.677 7.299 27.307.2 5.123.408 10.418 1.579 15.139 2.615 10.849-1.869 17.734-7.999 25.607-1.326 1.695-2.713 3.742-4.181 5.912-2.143 3.165-4.338 6.378-6.615 8.947h17.32c.108-.2.199-.376.325-.605.421-.761.865-1.565 1.175-2.268.717-1.848 1.368-3.795 1.998-5.679 1.128-3.378 2.294-6.872 3.993-10.18 4.463-9.126 2.439-17.661.295-26.7-.995-4.197-2.025-8.537-2.441-13.089-.659-7.882 4.012-13.768 8.532-19.46 3.399-4.281 6.915-8.712 8.093-13.941 2.323-10.27-2.692-19.667-8.456-28.295-2.95-4.652-5.993-9.446-8.628-14.382-1.272-2.196-2.335-3.806-3.951-5.436zm2.115-.296c1.28 1.46 2.282 2.988 3.368 4.868 2.618 4.9 5.643 9.666 8.566 14.275 5.974 8.938 11.169 18.734 8.701 29.66-1.27 5.624-4.912 10.213-8.435 14.652-4.502 5.671-8.755 11.028-8.155 18.201.405 4.418 1.418 8.694 2.399 12.831 2.22 9.357 4.314 18.196-.435 27.911-1.646 3.201-2.789 6.631-3.898 9.944-.634 1.902-1.293 3.873-2.04 5.796-.316.714-.721 1.462-1.123 2.193h15.732c-.14-1.629-.41-3.34-.704-5.123-1-6.091-2.136-12.994 2.542-18.127.965-1.036 2.158-1.412 3.468-1.091 5.902 1.444 13.588 18.038 16.088 24.341h2.544c-.58-8.182-5.008-17.187-9.295-23.269-1.762-2.527-3.791-4.949-5.938-7.515-6.412-7.663-13.044-15.586-12.318-26.375.616-6.417 3.136-14.097 5.106-18.731 1.113-2.807 2.687-5.176 4.208-7.468 1.62-2.437 3.149-4.74 4.169-7.545 2.176-6.039 1.19-10.787-1.107-16.491-1.05-2.441-1.937-4.952-2.796-7.38-1.154-3.269-2.245-6.359-3.708-9.308-.407-.82-.982-1.845-1.626-2.994-2.232-3.987-5.118-9.16-5.438-13.255h-9.875zm17.435 0c.297 4.571 3.067 10.513 5.027 14.671.331.695.636 1.349.908 1.943 2.02 4.071 4.169 7.272 8.045 9.585.577.312 1.137.616 1.47.748.038-.263.061-.787.009-1.821-.124-3.09-1.173-6.296-2.189-9.397-.493-1.512-.963-2.942-1.327-4.353-.65-2.241-1.665-4.461-2.649-6.609-.711-1.554-1.438-3.15-2.032-4.767h-7.262zm24.381 0h-4.998c1.295 2.451 3.141 4.707 4.956 6.901l.042.05V3.286zm0 9.732c-.459-.572-.926-1.139-1.387-1.697-2.077-2.507-4.196-5.092-5.578-8.035h-1.625c.879 2.045 1.894 4.182 2.967 6.411 2.012 4.187 4.151 8.655 5.623 13.183v-9.862zm0 57.209c-2.82 2.355-5.771 5.263-5.771 8.338 0 4.232 3.092 9.162 5.771 13.254V70.227zm0 24.809c-.328-.508-.669-1.029-1.024-1.571-2.896-4.409-6.499-9.903-6.499-14.899 0-4.294 4.152-7.896 7.523-10.617V57.02a62.186 62.186 0 0 1-1.694 2.032c-.821.946-1.595 1.84-2.293 2.779l-.876 1.209c-2.581 3.551-5.015 6.905-6.654 11.364-3.535 9.034 1.769 16.681 7.383 24.78 1.416 2.042 2.847 4.121 4.134 6.236V95.036zm0 13.936c-1.558-2.967-3.585-5.905-5.571-8.773-5.633-8.123-11.457-16.523-7.582-26.425 1.716-4.674 4.222-8.123 6.877-11.777l.879-1.215c.745-1.003 1.581-1.964 2.386-2.892 1.051-1.215 2.105-2.47 3.011-3.831V41.93c-1.875 4.758-4.888 8.902-7.86 12.929-1.257 1.703-2.559 3.464-3.749 5.244-7.95 11.913-9.935 22.479-6.07 32.303 2.079 5.242 5.55 10.008 8.909 14.615 1.977 2.717 4.026 5.524 5.763 8.4 1.244 2.126 2.213 4.361 3.007 6.609v-13.058zm0 19.604c-.997-4.625-2.516-8.835-4.508-12.243-1.694-2.798-3.719-5.576-5.675-8.26-3.423-4.699-6.964-9.555-9.126-15.011-4.095-10.408-2.051-21.511 6.243-33.947 1.213-1.814 2.528-3.593 3.797-5.313 4.125-5.588 8.022-10.866 9.126-17.677.065-.422.106-.849.143-1.276v-3.647c-.564-6.916-4.05-14.176-7.204-20.73-1.203-2.505-2.335-4.894-3.29-7.186h-4.742c.513 1.325 1.111 2.651 1.743 4.027 1.008 2.207 2.051 4.486 2.745 6.877.357 1.381.815 2.786 1.302 4.27 1.053 3.217 2.144 6.543 2.276 9.869.1 1.945.01 3.03-.769 3.528a1.355 1.355 0 0 1-.747.221c-.642 0-1.389-.408-2.431-.974l-.174-.096c-4.251-2.534-6.566-5.967-8.735-10.342-.281-.615-.586-1.261-.912-1.952-2.027-4.3-4.924-10.459-5.233-15.428h-4.028c.346 3.672 3.205 8.783 5.224 12.385.661 1.18 1.248 2.229 1.666 3.074 1.511 3.046 2.671 6.328 3.794 9.504.847 2.401 1.724 4.884 2.758 7.291 2.462 6.112 3.507 11.208 1.138 17.781-1.093 3.007-2.752 5.508-4.359 7.925-1.471 2.214-2.994 4.505-4.046 7.16-1.929 4.538-4.386 12.009-4.978 18.201-.672 10.045 5.725 17.691 11.913 25.087 2.076 2.48 4.225 5.046 6.028 7.63 4.447 6.311 9.04 15.697 9.617 24.293h1.444v-15.041zM79.53 38.443c1.963 5.583 3.569 12.172.516 18.538-1.655 3.334-4.504 5.317-7.627 5.317-1.123 0-2.268-.252-3.4-.75-5.816-2.651-9.242-12.221-11.313-19.19l-.169-.649c-1.194-4.578-2.999-11.499-.715-16.104 1.252-3.279 3.892-4.908 8.046-4.908l.416.005c8.627.213 12.565 12.496 14.246 17.741zM65.238 22.471l-.371-.005c-3.438 0-5.424 1.188-6.443 3.852-2.021 4.088-.321 10.618.806 14.94l.162.622c1.248 4.198 4.589 15.432 10.335 18.051 3.4 1.489 6.915-.044 8.743-3.732 2.768-5.768 1.248-11.927-.602-17.188-1.576-4.911-5.244-16.356-12.63-16.54zm6.518 29.607h-.001c-1.143 0-2.298-.819-3.427-2.435-2.692-3.845-4.802-11.459-3.895-14.046.414-1.51 1.476-1.68 1.913-1.68 2.102 0 4.529 3.489 5.476 4.989 2.084 3.301 4.096 8.064 2.912 10.628-.778 1.686-1.779 2.544-2.978 2.544zm-1.413-12.22c-1.92-3.036-3.47-4.17-3.997-4.17-.05.016-.152.122-.241.442-.682 1.95 1.173 8.949 3.656 12.495 1.066 1.519 1.751 1.684 1.995 1.684.597 0 1.124-.952 1.387-1.522.684-1.481-.521-5.318-2.8-8.929zm-19.854 82.199c-.758 0-1.231-.293-1.495-.539-.752-.802-.857-1.941-.333-3.168.833-1.943 3.167-3.956 5.493-3.725 2.384.399 2.521 1.832 2.471 2.431-.187 2.268-3.926 5.001-6.136 5.001zm3.434-5.681l-.137-.002c-1.397 0-2.973 1.413-3.515 2.675-.111.262-.337.899-.043 1.211.003 0 .117.026.261.026 1.461 0 4.289-2.179 4.389-3.378.026-.319-.587-.469-.955-.532zM11.496 2.61h7.702v3.285h-4.445v137.819h4.445V147h-7.702V2.61zM0 7.055h7.702v3.286H3.257v133.373h4.445V147H0V7.055z" fill-rule="evenodd"/>
</symbol></svg>