<svg xmlns="http://www.w3.org/2000/svg" width="145.344mm" height="48.331mm" viewBox="0 0 412 137">
  <title>step-4</title>
  <path d="M0,137L262,59l2-59,1,59,147,44L264,62Z" transform="translate(0 0)"/>
  <g>
    <path d="M253.406,53.14c3.038-1.01,5.5,2.26,5.5,7.32-4.686,1.55-6.551,2.18-11,3.66C247.906,59.06,250.369,54.15,253.406,53.14Z" transform="translate(0 0)"/>
    <path d="M173.406,77.14c3.038-1.01,5.5,2.26,5.5,7.32-4.686,1.55-6.551,2.18-11,3.66C167.906,83.06,170.369,78.15,173.406,77.14Z" transform="translate(0 0)"/>
    <path d="M151.406,84.14c3.038-1.01,5.5,2.26,5.5,7.31-4.686,1.56-6.55,2.19-11,3.67C145.906,90.06,148.369,85.15,151.406,84.14Z" transform="translate(0 0)"/>
    <path d="M72.406,106.14c3.038-1.01,5.5,2.26,5.5,7.31-4.686,1.56-6.551,2.19-11,3.67C66.906,112.06,69.369,107.15,72.406,106.14Z" transform="translate(0 0)"/>
    <path d="M48.406,114.14c3.038-1.01,5.5,2.26,5.5,7.31-4.686,1.56-6.55,2.19-11,3.67C42.906,120.06,45.369,115.15,48.406,114.14Z" transform="translate(0 0)"/>
    <circle cx="285.5" cy="61.92" r="5.5"/>
    <path d="M157.991,89.75L263.484,59.01l25.526,7.25L183.517,97.01Z" transform="translate(0 0)" fill="#fff" stroke="#000" stroke-linejoin="round" stroke-width="2"/>
    <path d="M54.991,119.75L160.484,89.01l25.526,7.25L80.517,127.01Z" transform="translate(0 0)" fill="#fff" stroke="#000" stroke-linejoin="round" stroke-width="2"/>
  </g>
</svg>
