<svg xmlns="http://www.w3.org/2000/svg" xmlns:xlink="http://www.w3.org/1999/xlink" width="145.344mm" height="68.792mm" viewBox="0 0 412 195">
  <defs>
    <clipPath id="a" transform="translate(0 0)">
      <circle cx="123" cy="72" r="68" fill="#eff3f7" stroke="#000" stroke-miterlimit="10" stroke-width="2"/>
    </clipPath>
  </defs>
  <title>step-3</title>
  <path d="M0,195l262-78,2-59,1,59,147,44L264,120Z" transform="translate(0 0)"/>
  <path d="M157.991,149.22l105.493-30.74,25.526,7.25L183.517,156.48Z" transform="translate(0 0)" fill="#fff" stroke="#000" stroke-linejoin="round" stroke-width="2"/>
  <g>
    <g>
      <circle cx="123" cy="72" r="68" fill="#eff3f7"/>
      <g clip-path="url(#a)">
        <path d="M240.013,47V44.99H141.3l-2.047,1.78v9.49l0.356,0.77,9.319,7.72-0.7-.03c-5.4-.26-10.033-0.33-11.917,1.34-6.808,6.05-13.295,6.06-19.281.04-1.63-1.63-7.38-1.25-9.1-1.1l-0.91,1.01V78.25L107,78.26l20.459,17.37,0.136,0.35H257.8V93.97H129.2V84.04c2.886-.18,6.011,0,6.6.59,6.771,6.81,14.386,6.82,22.017.04,1.407-1.25,5.561-1.02,8.6-.85,1.245,0.07,2.423.14,3.312,0.1a3.8,3.8,0,0,0,2.975-1.35c1.28-1.58,1.5-4.44.718-9.29l-0.986-.84H161.493a40.633,40.633,0,0,1,.059-8.33H260V62.1H161.018L143.173,47h96.84ZM127.206,92.79L109.016,77.4V68.33l18.19,15.39v9.07Zm44.376-18.34c0.51,3.57.368,5.87-.422,6.85a1.9,1.9,0,0,1-1.508.61c-0.8.03-1.925-.03-3.121-0.09-3.755-.21-8.008-0.45-10.03,1.35-6.807,6.04-13.294,6.06-19.281.04-1.556-1.56-6.86-1.29-8.839-1.12L110.4,66.88c2.429-.05,4.719.15,5.216,0.65,6.771,6.8,14.384,6.82,22.017.04,1.431-1.27,7.109-1.01,10.5-.85,1.314,0.06,2.45.12,3.3,0.1l8.24,6.82v0.01l0.977,0.8h10.932ZM159.6,63.53a49.528,49.528,0,0,0-.243,7.58l-18.1-15.31V48.41Z" transform="translate(0 0)"/>
        <path d="M117.079,49.14v0.01l0.728,1.04,10.554,2.97c-0.477,3.58-1.239,5.76-2.267,6.48a1.893,1.893,0,0,1-1.623.18c-0.779-.19-1.851-0.55-2.988-0.94-3.57-1.23-7.613-2.61-10.055-1.44-8.216,3.97-14.484,2.21-18.631-5.21-1.129-2.02-6.786-3.22-8.5-3.54l-1.15.71L80.2,59.86,22.62,43.6l-0.546,1.94L80.026,61.9l2.1-1.5,2.7-9.56c2.835,0.62,5.807,1.64,6.217,2.37,4.69,8.4,12.04,10.49,21.251,6.04,1.7-.82,5.648.54,8.534,1.53,1.184,0.4,2.3.79,3.173,0.99a3.779,3.779,0,0,0,3.241-.49c1.664-1.17,2.656-3.86,3.214-8.73l-0.724-1.09L119.16,48.48a40.453,40.453,0,0,1,2.322-8c0.08-.21.235-1.78,0.235-1.78l-15.2-22.31L48.988,0.15,48.443,2.09,105.185,18.1l13.272,19.43-8.841-2.49-2.872-.81L33.4,13.53l-0.546,1.93,75.689,21.36v0.01l2.821,0.79h0l8.174,2.31a47.816,47.816,0,0,0-2.081,6.69" transform="translate(0 0)"/>
        <path d="M120.636,38.61l9.633,14.09-3.348-1.19-7.653-11.14Z" transform="translate(0 0)"/>
      </g>
      <circle cx="123" cy="72" r="68" fill="none" stroke="#000" stroke-miterlimit="10" stroke-width="2"/>
    </g>
    <circle cx="156" cy="11" r="11" fill="red"/>
    <g style="isolation: isolate">
      <path d="M154.511,9.649l-1.46-.264A2.275,2.275,0,0,1,153.9,8.08a3.1,3.1,0,0,1,1.787-.424,3.85,3.85,0,0,1,1.6.255,1.6,1.6,0,0,1,.742.647,3.317,3.317,0,0,1,.215,1.44l-0.018,1.878a6.494,6.494,0,0,0,.078,1.183,3.442,3.442,0,0,0,.289.816H157q-0.064-.16-0.155-0.475-0.04-.144-0.057-0.189a2.907,2.907,0,0,1-.882.6,2.526,2.526,0,0,1-1,.2,2.073,2.073,0,0,1-1.48-.509,1.7,1.7,0,0,1-.541-1.289,1.729,1.729,0,0,1,.246-0.919,1.609,1.609,0,0,1,.69-0.619,5.389,5.389,0,0,1,1.28-.375,8.727,8.727,0,0,0,1.563-.4V9.746a0.833,0.833,0,0,0-.229-0.661,1.373,1.373,0,0,0-.865-0.2,1.152,1.152,0,0,0-.67.169A1.174,1.174,0,0,0,154.511,9.649Zm2.153,1.306q-0.31.1-.979,0.246a2.946,2.946,0,0,0-.876.281,0.671,0.671,0,0,0-.315.567,0.789,0.789,0,0,0,.252.584,0.879,0.879,0,0,0,.641.246,1.4,1.4,0,0,0,.831-0.286,1.01,1.01,0,0,0,.384-0.533,3.177,3.177,0,0,0,.063-0.785v-0.32Z" transform="translate(0 0)" fill="#fff"/>
      <path d="M159.831,13.875V12.266h1.609v1.609h-1.609Z" transform="translate(0 0)" fill="#fff"/>
    </g>
  </g>
  <path d="M179.364,168.16l29.891-9.53,4.5,2.16,4.382-6.04-15.494,1.02,4.5,2.16-29.892,9.53Z" transform="translate(0 0)" fill="red"/>
</svg>
