<svg xmlns="http://www.w3.org/2000/svg" xmlns:xlink="http://www.w3.org/1999/xlink" width="145.344mm" height="67.733mm" viewBox="0 0 412 192">
  <defs>
    <clipPath id="a">
      <circle cx="123" cy="69" r="68" fill="#eff3f7" stroke="#000" stroke-miterlimit="10" stroke-width="2"/>
    </clipPath>
  </defs>
  <title>step-2</title>
  <path d="M0,192l262-78,2-59,1,59,147,44L264,117Z"/>
  <path d="M152.991,154.75l105.493-30.74,25.526,7.25L178.517,162.01Z" fill="#fff" stroke="#000" stroke-linejoin="round" stroke-width="2"/>
  <g>
    <circle cx="123" cy="69" r="68" fill="#eff3f7"/>
    <g clip-path="url(#a)">
      <path d="M147.625,67.82v0.02l1.2,0.97h13.367c0.624,4.34.45,7.13-.516,8.32a2.322,2.322,0,0,1-1.844.75c-0.975.04-2.355-.04-3.818-0.12-4.592-.25-9.794-0.54-12.268,1.64-8.326,7.35-16.26,7.37-23.582.06-1.994-2-9.027-1.53-11.137-1.34l-1.113,1.21V92.54H34.994v2.44h73.4l1.97-2.44V80.47c3.529-.22,7.352-0.01,8.076.71,8.282,8.28,17.6,8.3,26.929.05,1.722-1.51,6.8-1.24,10.516-1.03,1.523,0.08,2.963.16,4.051,0.12a4.648,4.648,0,0,0,3.639-1.65c1.566-1.92,1.836-5.4.877-11.28l-1.206-1.03H149.85a49.159,49.159,0,0,1,.073-10.13c0.026-.27-0.312-2.15-0.312-2.15L124.4,32.99H51.54v2.45H123.4l22,18.35H37.682v2.44H147.466a57.939,57.939,0,0,0-.227,8.51"/>
      <path d="M148.314,54.33l15.965,13.3-4.324-.29L147.29,56.84Z"/>
    </g>
    <circle cx="123" cy="69" r="68" fill="none" stroke="#000" stroke-miterlimit="10" stroke-width="2"/>
  </g>
  <path d="M147.178,100.3c18.663,6.52,29.81,14.64,38.977,21.33,2.205-2.88,3.376-3.75,5.982-7.65,5.241,14,9.75,22.06,11.371,32.47-10.559-3.38-19.119-5.77-29.89-8.38,0.666-1.13,2.543-5.05,4.018-6.25-8.223-9.4-18.966-14.7-36.422-21.58,2.222-3.31,2.824-5.29,6.572-9.05Z" fill="red"/>
</svg>
