<svg xmlns="http://www.w3.org/2000/svg" width="549.332" height="260.001" viewBox="0 0 412 195">
    <defs>
        <clipPath id="a">
            <circle cx="123" cy="72" r="68" fill="#eff3f7" stroke="#000" stroke-miterlimit="10" stroke-width="2"/>
        </clipPath>
    </defs>
    <title>
        step-3
    </title>
    <path d="M0 195l262-78 2-59 1 59 147 44-148-41z"/>
    <path d="M157.99 149.22l105.494-30.74 25.526 7.25-105.493 30.75z" fill="#fff" stroke="#000" stroke-linejoin="round" stroke-width="2"/>
    <circle cx="123" cy="72" r="68" fill="#eff3f7"/>
    <g clip-path="url(#a)">
        <path d="M240.013 47v-2.01H141.3l-2.047 1.78v9.49l.356.77 9.318 7.72-.7-.03c-5.4-.26-10.033-.33-11.917 1.34-6.807 6.05-13.294 6.06-19.28.04-1.63-1.63-7.38-1.25-9.1-1.1l-.91 1.01v12.24l-.02.01 20.46 17.37.135.35H257.8v-2.01H129.2v-9.93c2.886-.18 6.01 0 6.6.59 6.77 6.81 14.386 6.82 22.017.04 1.407-1.25 5.56-1.02 8.6-.85 1.245.07 2.423.14 3.312.1a3.8 3.8 0 0 0 2.974-1.35c1.28-1.58 1.5-4.44.718-9.29l-.986-.84h-10.943a40.633 40.633 0 0 1 .06-8.33H260V62.1h-98.982L143.173 47h96.84zM127.206 92.79l-18.19-15.39v-9.07l18.19 15.39v9.07zm44.376-18.34c.51 3.57.368 5.87-.422 6.85a1.9 1.9 0 0 1-1.508.61c-.8.03-1.925-.03-3.12-.09-3.756-.21-8.01-.45-10.03 1.35-6.808 6.04-13.295 6.06-19.282.04-1.556-1.56-6.86-1.29-8.84-1.12L110.4 66.88c2.43-.05 4.72.15 5.216.65 6.77 6.8 14.384 6.82 22.017.04 1.43-1.27 7.11-1.01 10.5-.85 1.314.06 2.45.12 3.3.1l8.24 6.82v.01l.977.8h10.932zM159.6 63.53a49.528 49.528 0 0 0-.243 7.58l-18.1-15.31v-7.39z"/>
        <path d="M117.08 49.14v.01l.727 1.04 10.554 2.97c-.476 3.58-1.238 5.76-2.266 6.48a1.893 1.893 0 0 1-1.623.18c-.778-.19-1.85-.55-2.987-.94-3.57-1.23-7.613-2.61-10.055-1.44-8.216 3.97-14.484 2.21-18.63-5.21-1.13-2.02-6.787-3.22-8.5-3.54l-1.15.71L80.2 59.86 22.62 43.6l-.546 1.94L80.026 61.9l2.1-1.5 2.7-9.56c2.835.62 5.807 1.64 6.217 2.37 4.69 8.4 12.04 10.49 21.25 6.04 1.7-.82 5.65.54 8.535 1.53 1.184.4 2.3.79 3.173.99a3.78 3.78 0 0 0 3.242-.49c1.664-1.17 2.656-3.86 3.214-8.73l-.724-1.09-10.572-2.98a40.453 40.453 0 0 1 2.322-8c.08-.21.235-1.78.235-1.78l-15.2-22.31L48.987.15l-.544 1.94 56.742 16.01 13.272 19.43-8.84-2.49-2.873-.81L33.4 13.53l-.546 1.93 75.69 21.36v.01l2.82.79 8.174 2.31a47.816 47.816 0 0 0-2.08 6.69"/>
        <path d="M120.636 38.61l9.633 14.09-3.35-1.19-7.652-11.14z"/>
    </g>
    <circle cx="123" cy="72" r="68" fill="none" stroke="#000" stroke-miterlimit="10" stroke-width="2"/>
    <circle cx="156" cy="11" r="11" fill="red"/>
    <g style="isolation:isolate" fill="#fff">
        <path d="M154.51 9.65l-1.46-.265a2.275 2.275 0 0 1 .85-1.305 3.1 3.1 0 0 1 1.787-.424 3.85 3.85 0 0 1 1.6.255 1.6 1.6 0 0 1 .742.648 3.317 3.317 0 0 1 .214 1.44l-.018 1.878a6.494 6.494 0 0 0 .078 1.183 3.442 3.442 0 0 0 .29.815H157q-.064-.16-.155-.475-.04-.144-.057-.19a2.907 2.907 0 0 1-.882.6 2.526 2.526 0 0 1-1 .2 2.073 2.073 0 0 1-1.48-.508 1.7 1.7 0 0 1-.54-1.29 1.73 1.73 0 0 1 .245-.918 1.61 1.61 0 0 1 .69-.62 5.39 5.39 0 0 1 1.28-.374 8.727 8.727 0 0 0 1.564-.4v-.154a.833.833 0 0 0-.23-.66 1.373 1.373 0 0 0-.864-.2 1.152 1.152 0 0 0-.67.168 1.174 1.174 0 0 0-.39.595zm2.154 1.305q-.31.1-.98.246a2.946 2.946 0 0 0-.875.282.67.67 0 0 0-.316.567.79.79 0 0 0 .252.583.88.88 0 0 0 .64.246 1.4 1.4 0 0 0 .832-.287 1.01 1.01 0 0 0 .384-.533 3.177 3.177 0 0 0 .063-.785v-.32z"/>
        <path d="M159.83 13.875v-1.61h1.61v1.61h-1.61z"/>
    </g>
    <path d="M179.364 168.16l29.89-9.53 4.5 2.16 4.383-6.04-15.494 1.02 4.5 2.16-29.892 9.53z" fill="red"/>
</svg>
