<svg xmlns="http://www.w3.org/2000/svg" width="549.332" height="182.668" viewBox="0 0 412 137">
    <title>
        step-4
    </title>
    <path d="M0 137l262-78 2-59 1 59 147 44-148-41z"/>
    <path d="M253.406 53.14c3.038-1.01 5.5 2.26 5.5 7.32-4.686 1.55-6.551 2.18-11 3.66 0-5.06 2.463-9.97 5.5-10.98z"/>
    <path d="M173.406 77.14c3.038-1.01 5.5 2.26 5.5 7.32-4.686 1.55-6.551 2.18-11 3.66 0-5.06 2.463-9.97 5.5-10.98z"/>
    <path d="M151.406 84.14c3.038-1.01 5.5 2.26 5.5 7.31-4.686 1.56-6.55 2.19-11 3.67 0-5.06 2.463-9.97 5.5-10.98z"/>
    <path d="M72.406 106.14c3.038-1.01 5.5 2.26 5.5 7.31-4.686 1.56-6.551 2.19-11 3.67 0-5.06 2.463-9.97 5.5-10.98z"/>
    <path d="M48.406 114.14c3.038-1.01 5.5 2.26 5.5 7.31-4.686 1.56-6.55 2.19-11 3.67 0-5.06 2.463-9.97 5.5-10.98z"/>
    <circle cx="285.5" cy="61.92" r="5.5"/>
    <path d="M157.991 89.75l105.493-30.74 25.526 7.25-105.493 30.75z" fill="#fff" stroke="#000" stroke-linejoin="round" stroke-width="2"/>
    <path d="M54.991 119.75l105.493-30.74 25.526 7.25-105.493 30.75z" fill="#fff" stroke="#000" stroke-linejoin="round" stroke-width="2"/>
</svg>
