<?xml version="1.0" encoding="UTF-8" standalone="no"?>
<svg width="1003px" height="212px" viewBox="0 0 1003 212" version="1.1" xmlns="http://www.w3.org/2000/svg" xmlns:xlink="http://www.w3.org/1999/xlink" xmlns:sketch="http://www.bohemiancoding.com/sketch/ns">
    <!-- Generator: Sketch 3.4.4 (17249) - http://www.bohemiancoding.com/sketch -->
    <title>rezult-logotype</title>
    <desc>Created with Sketch.</desc>
    <defs></defs>
    <g id="Page-1" stroke="none" stroke-width="1" fill="none" fill-rule="evenodd" sketch:type="MSPage">
        <g id="Desktop-HD" sketch:type="MSArtboardGroup" transform="translate(-21.000000, -20.000000)" stroke="#FFFFFF" stroke-width="2">
            <path d="M842.5,226.26 L781.075,226.26 L781.075,21.003 L842.5,21.003 L842.5,226.263 L842.5,226.26 L842.5,226.26 L842.5,226.26 Z M691.556,75.013 L691.556,160.777 C691.442092,172.603798 681.822347,182.131339 669.995,182.131339 C658.167653,182.131339 648.547908,172.603798 648.434,160.777 L648.434,160.777 L648.434,160.777 L648.434,75.013 L587.011,75.013 L587.011,170.395 C587.011,203.315 614.011,230.003 647.322,230.003 C664.07705,230.03845 680.09556,223.119572 691.556,210.897 L691.556,226.26 L752.979,226.26 L752.979,75.013 L691.556,75.013 L691.556,75.013 L691.556,75.013 L691.556,75.013 Z M981.97,75.013 L932.02,75.013 L932.02,21.003 L870.59,21.003 L870.59,226.263 L932.02,226.263 L932.02,119.963 L954.47,119.963 L981.97,75.013 L981.97,75.013 L981.97,75.013 Z M563.17,75.013 L412.931,75.013 L412.931,119.964 L481.957,119.964 L409.3,192.932 L409.3,225.917 L563.17,225.917 L563.17,180.966 L492,180.966 L563.171,109.457 L563.171,75.013 L563.17,75.013 L563.17,75.013 L563.17,75.013 Z M308.161,188.027 C290.861,188.027 283.478,176.153 283.478,161.504 L391.478,161.504 C392.102544,157.526439 392.416493,153.506294 392.417,149.48 C392.417,104.995 354.693,68.933 308.159,68.933 C261.625,68.933 223.9,104.995 223.9,149.48 C223.9,193.965 261.625,230.003 308.16,230.003 C342.714,229.360333 368.925,215.752333 386.793,189.179 L336.593,168.755 C333.243,175.083 329.452667,179.876667 325.222,183.136 C320.985,186.403 314.843,188.027 308.161,188.027 L308.161,188.027 L308.161,188.027 L308.161,188.027 Z M286.028,128.678 C286.169143,116.555063 296.036742,106.801681 308.1605,106.801681 C320.284258,106.801681 330.151857,116.555063 330.293,128.678 L286.028,128.678 L286.028,128.678 L286.028,128.678 L286.028,128.678 Z M83.367,119.964 L23,119.964 L23,226.026 L84.423,226.026 L84.423,121.695 L83.367,119.964 L83.367,119.964 L83.367,119.964 Z M167.566,150.182 C194.530696,141.098031 212.726165,115.862527 212.827,87.409 C212.827,50.732 182.744,21 145.635,21 L23,21 L88.65,128.627 L148.243,226.027 L213.97,226.027 L167.566,150.182 L167.566,150.182 L167.566,150.182 Z M147.523,87.845 C147.511494,95.6872349 143.637472,103.020459 137.166,107.45 L110.534,63.922 L123.318,63.922 C136.607658,63.8450073 147.443804,74.5553487 147.522,87.845 L147.523,87.845 L147.523,87.845 L147.523,87.845 Z M1023,199.622 C1023.14558,212.075662 1015.75564,223.38421 1004.2914,228.25105 C992.827161,233.117889 979.558775,230.579288 970.700769,221.824255 C961.842762,213.069221 959.149195,199.831425 963.881657,188.311065 C968.614118,176.790704 979.835487,169.26904 992.29,169.269 C1009.15164,169.171512 1022.90033,182.760377 1023,199.622 L1023,199.622 L1023,199.622 L1023,199.622 Z M842.5,226.26 L781.075,226.26 L781.075,21.003 L842.5,21.003 L842.5,226.263 L842.5,226.26 L842.5,226.26 L842.5,226.26 Z" id="rezult-logotype" sketch:type="MSShapeGroup"></path>
        </g>
    </g>
</svg>