<svg width="1003" height="212" viewBox="0 0 1003 212" xmlns="http://www.w3.org/2000/svg">
    <title>
        rezult-logotype
    </title>
    <path d="M821.5 206.26h-61.425V1.003H821.5v205.26-.003zM670.556 55.013v85.764c-.114 11.827-9.734 21.354-21.56 21.354-11.828 0-21.448-9.526-21.562-21.353V55.013H566.01v95.382c0 32.92 27 59.608 60.312 59.608a60.462 60.462 0 0 0 44.234-19.106v15.363h61.423V55.013h-61.424zm290.414 0h-49.95V1.003h-61.43v205.26h61.43v-106.3h22.45l27.5-44.95zm-418.8 0H391.93v44.95h69.027l-72.657 72.97v32.984h153.87v-44.95H471l71.17-71.51V55.013zM287.16 168.027c-17.3 0-24.682-11.874-24.682-26.523h108a77.58 77.58 0 0 0 .94-12.024c0-44.485-37.725-80.547-84.26-80.547-46.533 0-84.258 36.062-84.258 80.547s37.725 80.523 84.26 80.523c34.554-.643 60.765-14.25 78.633-40.824l-50.2-20.425c-3.35 6.328-7.14 11.122-11.37 14.38-4.238 3.268-10.38 4.892-17.062 4.892zm-22.132-59.35c.14-12.122 10.01-21.875 22.132-21.875 12.124 0 21.992 9.753 22.133 21.876h-44.265zm-202.66-8.713H2v106.062h61.423v-104.33l-1.056-1.732zm84.198 30.218c26.965-9.084 45.16-34.32 45.26-62.773 0-36.678-30.082-66.41-67.19-66.41H2l65.65 107.627 59.593 97.4h65.727l-46.404-75.845zm-20.043-62.337a23.8 23.8 0 0 1-10.357 19.605L89.534 43.922h12.784c13.29-.077 24.126 10.633 24.204 23.923zM1002 179.622a30.712 30.712 0 1 1-30.71-30.353c16.862-.098 30.61 13.49 30.71 30.352zM821.5 206.26h-61.425V1.003H821.5v205.26-.003z" stroke="#FFF" stroke-width="2" fill="none" fill-rule="evenodd"/>
</svg>
