<?xml version="1.0" encoding="UTF-8"?><!DOCTYPE svg PUBLIC "-//W3C//DTD SVG 1.1//EN" "http://www.w3.org/Graphics/SVG/1.1/DTD/svg11.dtd"><svg xmlns="http://www.w3.org/2000/svg"><symbol id="icon-letter-dot" viewBox="0 0 62 210">
    <title>
        letter-dot
    </title>
    <path d="M61.423 179.354A30.712 30.712 0 1 1 30.713 149c16.86-.097 30.61 13.492 30.71 30.354z" fill-rule="evenodd"/>
</symbol><symbol id="icon-letter-e" viewBox="0 0 169 210">
    <title>
        letter-e
    </title>
    <path d="M84.26 168.094c-17.3 0-24.682-11.874-24.682-26.523h108a77.58 77.58 0 0 0 .94-12.023c0-44.485-37.725-80.547-84.26-80.547C37.726 49 0 85.062 0 129.547s37.725 80.523 84.26 80.523c34.554-.643 60.765-14.25 78.633-40.824l-50.2-20.424c-3.35 6.328-7.14 11.122-11.37 14.38-4.238 3.268-10.38 4.892-17.062 4.892zm-22.132-59.35c.14-12.122 10.01-21.875 22.132-21.875 12.124 0 21.992 9.752 22.133 21.875H62.128z" fill-rule="evenodd"/>
</symbol><symbol id="icon-letter-l" viewBox="0 0 62 210">
    <title>
        letter-l
    </title>
    <path d="M61.425 205.257H0V0h61.425v205.26-.003z" fill-rule="evenodd"/>
</symbol><symbol id="icon-letter-r" viewBox="0 0 191 210">
    <title>
        letter-r
    </title>
    <path d="M60.337 98.94H0V205h61.397V100.676l4.224 6.926L125.19 205h65.688L144.5 129.152c30.968-10.374 49.766-41.756 44.3-73.954C183.336 23 155.235-.42 122.58.006H0L60.337 98.94zm.004 0l1.057 1.733-1.06-1.734h.004zm64.13-32.11a23.797 23.797 0 0 1-10.357 19.578l-26.62-43.483h12.78c13.28-.08 24.114 10.622 24.197 23.904z" fill-rule="evenodd"/>
</symbol><symbol id="icon-letter-t" viewBox="0 0 112 210">
    <title>
        letter-t
    </title>
    <path d="M61.43 54.01V0H0v205.26h61.43V98.96h22.45l27.5-44.95H61.43z" fill-rule="evenodd"/>
</symbol><symbol id="icon-letter-u" viewBox="0 0 166 210">
    <title>
        letter-u
    </title>
    <path d="M104.545 55v85.764c-.114 11.827-9.734 21.354-21.56 21.354-11.828 0-21.448-9.527-21.562-21.354V55H0v95.382c0 32.92 27 59.608 60.31 59.608a60.462 60.462 0 0 0 44.235-19.106v15.363h61.423V55h-61.423z" fill-rule="evenodd"/>
</symbol><symbol id="icon-letter-z" viewBox="0 0 154 210">
    <title>
        letter-z
    </title>
    <path d="M153.87 55H3.63v44.95h69.027L0 172.92v32.984h153.87v-44.95H82.7l71.17-71.51V55z" fill-rule="evenodd"/>
</symbol><symbol id="icon-r-logo" viewBox="0 0 261 200">
    <title>
        r-logo
    </title>
    <path d="M57.577 94.413H0V195.62h58.587V96.07l4.03 6.61 56.843 92.94h62.683l-44.253-72.377c29.55-9.9 47.488-39.846 42.272-70.57C174.947 21.948 148.132-.4 116.97.005H0l57.577 94.408zM260.89 170.41a29.294 29.294 0 1 1-29.294-28.958 29.1 29.1 0 0 1 29.294 28.96zM57.58 94.414l1.007 1.654-1.01-1.654h.003zm61.195-30.64a22.71 22.71 0 0 1-9.883 18.682L83.49 40.96h12.194c12.675-.074 23.01 10.137 23.09 22.812z" fill-rule="evenodd"/>
</symbol><symbol id="icon-rezult-logotype" viewBox="0 0 1003 212">
    <title>
        rezult-logotype
    </title>
    <path d="M62.366 99.964L2 1h122.635c37.11 0 67.192 29.732 67.192 66.41-.1 28.453-18.296 53.688-45.26 62.772l46.403 75.845h-65.727l-59.593-97.4-4.227-6.93v104.33H2V99.963h60.366zM821.5 206.26h-61.425V1.003H821.5v205.26-.003zm180.5-26.638a30.712 30.712 0 1 1-30.71-30.353c16.862-.098 30.61 13.49 30.71 30.352zM126.523 67.845a23.8 23.8 0 0 1-10.357 19.605L89.534 43.922h12.784c13.29-.077 24.126 10.633 24.204 23.923zM287.16 168.027c-17.3 0-24.682-11.874-24.682-26.523h108a77.58 77.58 0 0 0 .94-12.024c0-44.485-37.725-80.547-84.26-80.547-46.533 0-84.258 36.062-84.258 80.547s37.725 80.523 84.26 80.523c34.554-.643 60.765-14.25 78.633-40.824l-50.2-20.425c-3.35 6.328-7.14 11.122-11.37 14.38-4.238 3.268-10.38 4.892-17.062 4.892zm-22.132-59.35c.14-12.122 10.01-21.875 22.132-21.875 12.124 0 21.992 9.753 22.133 21.876h-44.265zM542.17 55.014H391.93v44.95h69.027l-72.657 72.97v32.984h153.87v-44.95H471l71.17-71.51V55.013zm368.85 0V1.003h-61.43v205.26h61.43v-106.3h22.45l27.5-44.95h-49.95zm-240.464 0v85.764c-.114 11.827-9.734 21.354-21.56 21.354-11.828 0-21.448-9.526-21.562-21.353V55.013H566.01v95.382c0 32.92 27 59.608 60.312 59.608a60.462 60.462 0 0 0 44.234-19.106v15.363h61.423V55.013h-61.424z" stroke-width="2" stroke-linecap="square" fill-rule="evenodd"/>
</symbol></svg>